<svg id="Layer_1" data-name="Layer 1" xmlns="http://www.w3.org/2000/svg" viewBox="0 0 900 900"><title>Big Guy Illustrations Pack - Scene 5</title><polygon points="596.9 215.18 596.9 168.13 664.34 168.13 664.34 216.65 643.72 216.65 634.1 233.9 622.23 216.44 596.9 216.65 596.9 215.18" fill="#e0b146"/><rect x="146.17" y="354.85" width="611.64" height="171.39" fill="#f4f2ed"/><path d="M361.25,310.33s6,12.75,25.59,13.94,25.66-11.42,25.66-11.42-10.18-22.76-6.72-33.44c0,0,4.9-1.4,9.6-18.21s7-19.23,7-19.23l2.7-5.58s-12.9-6.72-9-30.19c0,0,.19,4.13-17,9.23s-34.29,10.29-27.8,36.37c0,0,2,6.27-5.22,1.68s-6.09-14.83-12.32-14.75-7.15,8.35-3.54,13,9,15.71,14.64,10.67c0,0,7.88,13.55,0,24.57C364.82,287,368.08,299,361.25,310.33Z" fill="#f4f2ed"/><path d="M566.67,329.91s-5.68-19.28,3.67-32,14.27-3.17,15.45-.15,12,20.16,12,20.16l22.18,5.67,5.62-48.94s14.94,8.34,8.33,31.95-15.55,28-15.55,28l-7.1,5.44S590.51,322.72,566.67,329.91Z" fill="#f4f2ed"/><polygon points="611.52 188.4 624.59 188.4 632.15 175.64 637.04 186.35 643.97 185.88 646.49 201.79 625.06 206.2 610.57 202.1 611.52 188.4" fill="#f4f2ed"/><rect x="251.4" y="682.73" width="21.86" height="128.37" fill="#f4f2ed"/><polygon points="534.64 730.3 534.64 683.67 536.8 681.52 557.03 681.52 557.03 757.71 534.64 730.3" fill="#f4f2ed"/><polygon points="534.99 811.1 534.99 782.15 557.03 793.04 557.03 811.1 534.99 811.1" fill="#f4f2ed"/><path d="M414.93,776.6l-10,19.76,20.23,11.76a31.53,31.53,0,0,0,15.59,3c8.79-.64,24-4.92,24-4.92s-13-5.63-18.24-10.91-13.81-15.7-13.81-15.7S416.21,774.69,414.93,776.6Z" fill="#f4f2ed"/><path d="M561,793.42,570.87,777s18.61,6.88,31.3,0l12.69-6.87s-6.51,15-17.47,26.5-12.34,11.46-12.34,11.46h-7.27Z" fill="#f4f2ed"/><polygon points="585.78 297.73 592.65 234.71 629.05 244.17 619.94 323.56 597.76 317.89 585.78 297.73" fill="#f4f2ed"/><path d="M146.17,810.33h9.34s5.59-10.87.54-40.36l-1.21.82Z" fill="#f4f2ed"/><path d="M371.53,253.48s-4.45-23.52,6-29.21,28.46-11,30.41-11.88,23.51-10,1-35.65c0,0,.31,9-30.45,15S331.43,194,322,236.6,364.82,287,364.82,287s8.2-5.67,0-24.57c0,0-6.83,4.35-13.81-9s3.12-16.79,5.79-13.76S361.21,256.71,371.53,253.48Z" fill="#161819"/><path d="M361.25,310.33S273,321.24,230.14,389.53,210.8,518,210.8,518s31.57,90.6,55.1,116.23c0,0,21.84,15.54,55.45-4.62,0,0-9.66-72-6.09-104.48,0,0,4.94,40.73,18.12,62.31,0,0,38.8,15.28,115.67-8.24,0,0,56.78-77.63,52.12-160.85,0,0,16.55,55,.7,88.82,0,0,43,26.28,61.33-1.64s36.68-51.31,51.58-161.27c0,0-13.66-22.57-50.63-13.33,0,0-.86,43.52-25,82,0,0-.24-42.22-39.92-70.53s-62.79-28.73-86.73-29.57c0,0-1.74,11.42-25.66,11.42C367.66,324.27,361.25,310.33,361.25,310.33Z" fill="#161819"/><polygon points="681.35 509.79 757.81 433.1 757.81 453.65 686.18 525.12 681.35 525.12 681.35 509.79" fill="#161819"/><polygon points="681.35 475.97 757.81 399.37 757.81 379.99 682.43 458.65 681.35 475.97" fill="#161819"/><polygon points="682.43 405.7 718.88 366.22 728.63 374.43 681.35 422.81 682.43 405.7" fill="#161819"/><polygon points="145.48 509.79 221.94 433.1 221.94 453.65 150.31 525.12 145.48 525.12 145.48 509.79" fill="#161819"/><polygon points="145.48 475.97 221.94 399.37 221.94 379.99 146.56 458.65 145.48 475.97" fill="#161819"/><polygon points="146.56 405.7 183.01 366.22 192.75 374.43 145.48 422.81 146.56 405.7" fill="#161819"/><polygon points="604.2 509.79 680.65 433.1 680.65 453.65 609.03 525.12 604.2 525.12 604.2 509.79" fill="#161819"/><polygon points="604.2 475.97 680.65 399.37 680.65 379.99 605.28 458.65 604.2 475.97" fill="#161819"/><polygon points="605.28 405.7 641.72 366.22 651.47 374.43 604.2 422.81 605.28 405.7" fill="#161819"/><polygon points="604.9 452.21 530.86 526.25 528.44 526.25 528.44 513.23 595.12 440.55 604.9 433.1 604.9 452.21" fill="#161819"/><polygon points="541.89 392.8 531.42 403.09 535.96 411.55 539.14 412.95 546.2 397.24 541.89 392.8" fill="#161819"/><rect x="231.7" y="661.93" width="346.08" height="20.17" rx="10.08" fill="#161819"/><polygon points="695.42 391.63 711.73 375.87 745.56 410.7 728.63 427.64 695.42 391.63" fill="#e0b146"/><polygon points="710.57 354.86 743.22 355.09 745.56 357.5 728.63 374.43 710.57 354.86" fill="#e0b146"/><polygon points="695.42 446.12 710.34 429.07 745.56 465.19 728.63 482.13 695.42 446.12" fill="#e0b146"/><polygon points="692.65 499.32 710.34 483.26 754.44 526.25 719.11 526.52 692.65 499.32" fill="#e0b146"/><polygon points="159.64 391.63 175.95 375.87 209.78 410.7 192.85 427.64 159.64 391.63" fill="#e0b146"/><polygon points="174.79 354.86 207.44 355.09 209.78 357.5 192.85 374.43 174.79 354.86" fill="#e0b146"/><polygon points="159.64 446.12 174.57 429.07 205.61 460.91 204.36 466.11 204.94 470.03 192.85 482.13 159.64 446.12" fill="#e0b146"/><polygon points="156.88 499.32 174.57 483.26 210.8 516.61 213.79 526.28 183.33 526.52 156.88 499.32" fill="#e0b146"/><polygon points="617.74 391.63 634.05 375.87 667.88 410.7 650.95 427.64 617.74 391.63" fill="#e0b146"/><polygon points="632.89 354.86 665.54 355.09 667.88 357.5 650.95 374.43 632.89 354.86" fill="#e0b146"/><polygon points="617.74 446.12 632.67 429.07 667.88 465.19 650.95 482.13 617.74 446.12" fill="#e0b146"/><polygon points="614.98 499.32 632.67 483.26 676.76 526.25 641.43 526.52 614.98 499.32" fill="#e0b146"/><polygon points="553.88 513.72 571.58 496.92 601.66 526.25 566.33 526.52 553.88 513.72" fill="#e0b146"/><polygon points="481.32 517.73 489.51 496.92 508.71 510.18 525.2 526.25 489.87 526.52 481.32 517.73" fill="#e0b146"/><path d="M488.84,498.64s13.39-37.34,12.58-67.93l3.33,2.38s13.1,45.59-1.82,74.68Z" fill="#e0b146"/><path d="M316.07,581.27,331.65,587S317.78,555.44,318,535.28L313.73,541S311.41,563.31,316.07,581.27Z" fill="#e0b146"/><path d="M136.83,811.09s-5.71-15.31-.49-41.4,7.41-20.65,3.34-38.44-4.85-21.8-4.85-21.8l11.46-1.73,11.82,1.68L151,740.49s-1.37,3.9.26,10.33,5,8.89,4.79,19.15-9.7,39.6-9.88,40.36S136.83,811.09,136.83,811.09Z" fill="#e0b146"/><path d="M742.86,811.09s-5.71-15.31-.49-41.4,7.41-20.65,3.34-38.44-4.86-21.8-4.86-21.8l11.47-1.73,11.82,1.68L757,740.49s-1.38,3.9.26,10.33,5,8.89,4.79,19.15-9.71,39.6-9.88,40.36S742.86,811.09,742.86,811.09Z" fill="#e0b146"/><path d="M570.87,777c-2.52,6.73-9.87,16.39-9.87,16.39s-39.28-18.06-58.07-29.55c-10.16-6.22-24.72-22.25-35.95-35.67l-34.31,51.36c-16.59.42-20.17-7.15-20.17-7.15,2.94-52.72,16.45-78.24,16.45-78.24C406,680,370.17,657.51,350,643.46c-31.28-21.8-27.8-60.74-27.8-60.74s13.69,11.58,62.16,9.27c39.7-1.89,64.69-12.81,64.69-12.81s48.1,42.42,53.82,58.11-11.35,38.84-11.35,38.84-.94-.85-1.22-1.09c.37.36,2.23,2.05,7.77,7.06,12.19,11,15.67,22.26,15.67,22.26Z" fill="#e0b146"/><path d="M244.69,663.19s-1.92-24.88,27.07-24h0l72.77,0h198.2s20.65.91,20.82,24Z" fill="#e0b146"/><rect x="681.35" y="354.86" width="76.45" height="171.39" stroke-width="5" stroke="#161819" stroke-linecap="round" stroke-linejoin="round" fill="none"/><line x1="701.12" y1="456.24" x2="681.35" y2="475.97" fill="none" stroke="#161819" stroke-linecap="round" stroke-linejoin="round" stroke-width="5"/><line x1="709.58" y1="464.71" x2="681.35" y2="492.88" fill="none" stroke="#161819" stroke-linecap="round" stroke-linejoin="round" stroke-width="5"/><line x1="718.88" y1="472.26" x2="681.35" y2="509.79" fill="none" stroke="#161819" stroke-linecap="round" stroke-linejoin="round" stroke-width="5"/><line x1="701.12" y1="508.9" x2="683.77" y2="526.25" fill="none" stroke="#161819" stroke-linecap="round" stroke-linejoin="round" stroke-width="5"/><line x1="757.51" y1="452.51" x2="718.91" y2="491.11" fill="none" stroke="#161819" stroke-linecap="round" stroke-linejoin="round" stroke-width="5"/><line x1="710.34" y1="516.61" x2="700.7" y2="526.25" fill="none" stroke="#161819" stroke-linecap="round" stroke-linejoin="round" stroke-width="5"/><line x1="757.51" y1="469.44" x2="727.27" y2="499.68" fill="none" stroke="#161819" stroke-linecap="round" stroke-linejoin="round" stroke-width="5"/><line x1="718.77" y1="525.11" x2="717.63" y2="526.25" fill="none" stroke="#161819" stroke-linecap="round" stroke-linejoin="round" stroke-width="5"/><line x1="757.81" y1="486.07" x2="735.83" y2="508.05" fill="none" stroke="#161819" stroke-linecap="round" stroke-linejoin="round" stroke-width="5"/><line x1="757.81" y1="503.83" x2="745.56" y2="516.08" fill="none" stroke="#161819" stroke-linecap="round" stroke-linejoin="round" stroke-width="5"/><line x1="694.79" y1="447.37" x2="728.63" y2="480.72" fill="none" stroke="#161819" stroke-linecap="round" stroke-linejoin="round" stroke-width="5"/><line x1="702.29" y1="437.95" x2="736.64" y2="471.81" fill="none" stroke="#161819" stroke-linecap="round" stroke-linejoin="round" stroke-width="5"/><line x1="710.34" y1="429.07" x2="745.45" y2="463.69" fill="none" stroke="#161819" stroke-linecap="round" stroke-linejoin="round" stroke-width="5"/><polyline points="720.19 526.25 710.34 516.61 692.65 499.32" fill="none" stroke="#161819" stroke-linecap="round" stroke-linejoin="round" stroke-width="5"/><line x1="737.31" y1="526.25" x2="701.12" y2="490.86" fill="none" stroke="#161819" stroke-linecap="round" stroke-linejoin="round" stroke-width="5"/><polyline points="754.44 526.25 727.27 499.68 709.59 482.39" fill="none" stroke="#161819" stroke-linecap="round" stroke-linejoin="round" stroke-width="5"/><line x1="701.12" y1="403.09" x2="681.35" y2="422.82" fill="none" stroke="#161819" stroke-linecap="round" stroke-linejoin="round" stroke-width="5"/><line x1="709.58" y1="411.55" x2="681.35" y2="439.73" fill="none" stroke="#161819" stroke-linecap="round" stroke-linejoin="round" stroke-width="5"/><line x1="718.88" y1="419.17" x2="682.43" y2="458.65" fill="none" stroke="#161819" stroke-linecap="round" stroke-linejoin="round" stroke-width="5"/><polyline points="719.94 383.17 728.52 374.58 736.99 366.12 745.45 357.65 748.25 354.86" fill="none" stroke="#161819" stroke-linecap="round" stroke-linejoin="round" stroke-width="5"/><line x1="757.81" y1="362.23" x2="728.4" y2="391.63" fill="none" stroke="#161819" stroke-linecap="round" stroke-linejoin="round" stroke-width="5"/><line x1="757.81" y1="379.17" x2="736.87" y2="400.1" fill="none" stroke="#161819" stroke-linecap="round" stroke-linejoin="round" stroke-width="5"/><line x1="757.81" y1="399.37" x2="719.58" y2="437.29" fill="none" stroke="#161819" stroke-linecap="round" stroke-linejoin="round" stroke-width="5"/><line x1="757.81" y1="416.23" x2="728.63" y2="445.18" fill="none" stroke="#161819" stroke-linecap="round" stroke-linejoin="round" stroke-width="5"/><line x1="757.81" y1="433.09" x2="737.09" y2="453.65" fill="none" stroke="#161819" stroke-linecap="round" stroke-linejoin="round" stroke-width="5"/><line x1="694.79" y1="392.8" x2="728.63" y2="427.64" fill="none" stroke="#161819" stroke-linecap="round" stroke-linejoin="round" stroke-width="5"/><line x1="703.26" y1="384.34" x2="737.09" y2="419.17" fill="none" stroke="#161819" stroke-linecap="round" stroke-linejoin="round" stroke-width="5"/><line x1="711.73" y1="375.87" x2="745.56" y2="410.7" fill="none" stroke="#161819" stroke-linecap="round" stroke-linejoin="round" stroke-width="5"/><line x1="696.39" y1="354.85" x2="681.35" y2="369.86" fill="none" stroke="#161819" stroke-linecap="round" stroke-linejoin="round" stroke-width="5"/><line x1="709.58" y1="358.6" x2="681.35" y2="386.78" fill="none" stroke="#161819" stroke-linecap="round" stroke-linejoin="round" stroke-width="5"/><line x1="718.88" y1="366.22" x2="682.43" y2="405.7" fill="none" stroke="#161819" stroke-linecap="round" stroke-linejoin="round" stroke-width="5"/><line x1="728.52" y1="374.58" x2="708.54" y2="354.85" fill="none" stroke="#161819" stroke-linecap="round" stroke-linejoin="round" stroke-width="5"/><line x1="736.99" y1="366.12" x2="725.59" y2="354.85" fill="none" stroke="#161819" stroke-linecap="round" stroke-linejoin="round" stroke-width="5"/><line x1="745.45" y1="357.65" x2="742.62" y2="354.85" fill="none" stroke="#161819" stroke-linecap="round" stroke-linejoin="round" stroke-width="5"/><path d="M681.35,354.85v171.4H604.9v-124c1.25-6,2.58-12.58,3.86-19.3s2.54-13.81,3.6-20.51c.41-2.57.79-5.1,1.14-7.56Z" fill="none" stroke="#161819" stroke-linecap="round" stroke-linejoin="round" stroke-width="5"/><line x1="624.67" y1="456.24" x2="604.9" y2="475.97" fill="none" stroke="#161819" stroke-linecap="round" stroke-linejoin="round" stroke-width="5"/><line x1="633.13" y1="464.71" x2="604.9" y2="492.88" fill="none" stroke="#161819" stroke-linecap="round" stroke-linejoin="round" stroke-width="5"/><line x1="642.42" y1="472.26" x2="604.9" y2="509.79" fill="none" stroke="#161819" stroke-linecap="round" stroke-linejoin="round" stroke-width="5"/><line x1="624.67" y1="508.9" x2="607.32" y2="526.25" fill="none" stroke="#161819" stroke-linecap="round" stroke-linejoin="round" stroke-width="5"/><line x1="679.92" y1="453.65" x2="642.46" y2="491.11" fill="none" stroke="#161819" stroke-linecap="round" stroke-linejoin="round" stroke-width="5"/><line x1="633.89" y1="516.61" x2="624.25" y2="526.25" fill="none" stroke="#161819" stroke-linecap="round" stroke-linejoin="round" stroke-width="5"/><line x1="679.92" y1="470.58" x2="650.82" y2="499.68" fill="none" stroke="#161819" stroke-linecap="round" stroke-linejoin="round" stroke-width="5"/><line x1="642.31" y1="525.11" x2="641.18" y2="526.25" fill="none" stroke="#161819" stroke-linecap="round" stroke-linejoin="round" stroke-width="5"/><line x1="679.92" y1="487.51" x2="659.38" y2="508.05" fill="none" stroke="#161819" stroke-linecap="round" stroke-linejoin="round" stroke-width="5"/><line x1="679.42" y1="508.55" x2="669.65" y2="518.32" fill="none" stroke="#161819" stroke-linecap="round" stroke-linejoin="round" stroke-width="5"/><line x1="618.34" y1="447.37" x2="651.95" y2="480.5" fill="none" stroke="#161819" stroke-linecap="round" stroke-linejoin="round" stroke-width="5"/><line x1="625.84" y1="437.95" x2="659.38" y2="471.01" fill="none" stroke="#161819" stroke-linecap="round" stroke-linejoin="round" stroke-width="5"/><line x1="633.89" y1="429.07" x2="669.3" y2="463.99" fill="none" stroke="#161819" stroke-linecap="round" stroke-linejoin="round" stroke-width="5"/><polyline points="643.74 526.25 633.89 516.61 616.2 499.32" fill="none" stroke="#161819" stroke-linecap="round" stroke-linejoin="round" stroke-width="5"/><line x1="660.86" y1="526.25" x2="624.67" y2="490.86" fill="none" stroke="#161819" stroke-linecap="round" stroke-linejoin="round" stroke-width="5"/><polyline points="677.98 526.25 650.82 499.68 633.13 482.39" fill="none" stroke="#161819" stroke-linecap="round" stroke-linejoin="round" stroke-width="5"/><line x1="624.67" y1="403.09" x2="604.9" y2="422.82" fill="none" stroke="#161819" stroke-linecap="round" stroke-linejoin="round" stroke-width="5"/><line x1="633.13" y1="411.55" x2="604.9" y2="439.73" fill="none" stroke="#161819" stroke-linecap="round" stroke-linejoin="round" stroke-width="5"/><line x1="642.42" y1="419.17" x2="605.98" y2="458.65" fill="none" stroke="#161819" stroke-linecap="round" stroke-linejoin="round" stroke-width="5"/><polyline points="643.48 383.17 652.07 374.58 660.53 366.12 669 357.65 671.8 354.86" fill="none" stroke="#161819" stroke-linecap="round" stroke-linejoin="round" stroke-width="5"/><line x1="681.35" y1="362.23" x2="651.95" y2="391.63" fill="none" stroke="#161819" stroke-linecap="round" stroke-linejoin="round" stroke-width="5"/><line x1="681.35" y1="379.17" x2="660.41" y2="400.1" fill="none" stroke="#161819" stroke-linecap="round" stroke-linejoin="round" stroke-width="5"/><line x1="681.35" y1="399.37" x2="643.13" y2="437.29" fill="none" stroke="#161819" stroke-linecap="round" stroke-linejoin="round" stroke-width="5"/><line x1="681.35" y1="416.23" x2="652.17" y2="445.18" fill="none" stroke="#161819" stroke-linecap="round" stroke-linejoin="round" stroke-width="5"/><line x1="681.35" y1="433.09" x2="660.64" y2="453.65" fill="none" stroke="#161819" stroke-linecap="round" stroke-linejoin="round" stroke-width="5"/><line x1="618.34" y1="392.8" x2="652.17" y2="427.64" fill="none" stroke="#161819" stroke-linecap="round" stroke-linejoin="round" stroke-width="5"/><line x1="626.81" y1="384.34" x2="660.64" y2="419.17" fill="none" stroke="#161819" stroke-linecap="round" stroke-linejoin="round" stroke-width="5"/><line x1="635.27" y1="375.87" x2="669.1" y2="410.7" fill="none" stroke="#161819" stroke-linecap="round" stroke-linejoin="round" stroke-width="5"/><line x1="619.93" y1="354.85" x2="612.36" y2="362.41" fill="none" stroke="#161819" stroke-linecap="round" stroke-linejoin="round" stroke-width="5"/><line x1="633.13" y1="358.6" x2="608.76" y2="382.92" fill="none" stroke="#161819" stroke-linecap="round" stroke-linejoin="round" stroke-width="5"/><line x1="642.42" y1="366.22" x2="605.98" y2="405.7" fill="none" stroke="#161819" stroke-linecap="round" stroke-linejoin="round" stroke-width="5"/><line x1="652.07" y1="374.58" x2="632.09" y2="354.85" fill="none" stroke="#161819" stroke-linecap="round" stroke-linejoin="round" stroke-width="5"/><line x1="660.53" y1="366.12" x2="649.13" y2="354.85" fill="none" stroke="#161819" stroke-linecap="round" stroke-linejoin="round" stroke-width="5"/><line x1="669" y1="357.65" x2="666.17" y2="354.85" fill="none" stroke="#161819" stroke-linecap="round" stroke-linejoin="round" stroke-width="5"/><path d="M561,354.85c-.33,1.27-.7,2.68-1.12,4.2-1.56,5.72-3.76,13-6.62,20.94-.63,1.73-1.29,3.51-2,5.29-1.53,3.94-3.21,8-5.07,12a146.42,146.42,0,0,1-9.15,17,72,72,0,0,0-1.4-15.16h0a94.35,94.35,0,0,0-4.23-15.26c-.85-2.32-1.84-4.71-3-7.13V354.85Z" fill="none" stroke="#161819" stroke-linecap="round" stroke-linejoin="round" stroke-width="5"/><path d="M604.9,402.22v124H528.44V518a44.61,44.61,0,0,0,10.7-.07h0a45.91,45.91,0,0,0,8.6-2,30.49,30.49,0,0,0,6.14-2.87,46.06,46.06,0,0,0,9.31-7.63,78.53,78.53,0,0,0,7.57-9.34,124.78,124.78,0,0,0,7.74-12.7c2-3.72,3.85-7.54,5.55-11.33,1.83-4,3.48-8.06,5-11.91,2.5-6.49,4.54-12.53,6.08-17.43h0c2.28-7.31,3.47-12.09,3.47-12.09s1-4.07,2.44-10.65C602.11,415.25,603.46,409.1,604.9,402.22Z" fill="none" stroke="#161819" stroke-linecap="round" stroke-linejoin="round" stroke-width="5"/><polyline points="539.14 517.97 539.14 517.97 530.86 526.25" fill="none" stroke="#161819" stroke-linecap="round" stroke-linejoin="round" stroke-width="5"/><line x1="604.9" y1="452.21" x2="582.92" y2="474.19" fill="none" stroke="#161819" stroke-linecap="round" stroke-linejoin="round" stroke-width="5"/><line x1="557.43" y1="516.61" x2="547.8" y2="526.25" fill="none" stroke="#161819" stroke-linecap="round" stroke-linejoin="round" stroke-width="5"/><line x1="603.47" y1="470.58" x2="574.36" y2="499.68" fill="none" stroke="#161819" stroke-linecap="round" stroke-linejoin="round" stroke-width="5"/><line x1="565.86" y1="525.11" x2="564.73" y2="526.25" fill="none" stroke="#161819" stroke-linecap="round" stroke-linejoin="round" stroke-width="5"/><line x1="604.9" y1="486.07" x2="582.92" y2="508.05" fill="none" stroke="#161819" stroke-linecap="round" stroke-linejoin="round" stroke-width="5"/><line x1="603.47" y1="505.01" x2="591.67" y2="516.8" fill="none" stroke="#161819" stroke-linecap="round" stroke-linejoin="round" stroke-width="5"/><line x1="604.6" y1="492.38" x2="601.75" y2="489.57" fill="none" stroke="#161819" stroke-linecap="round" stroke-linejoin="round" stroke-width="5"/><polyline points="553.88 513.14 557.43 516.61 567.28 526.25" fill="none" stroke="#161819" stroke-linecap="round" stroke-linejoin="round" stroke-width="5"/><line x1="584.41" y1="526.25" x2="563.2" y2="505.51" fill="none" stroke="#161819" stroke-linecap="round" stroke-linejoin="round" stroke-width="5"/><polyline points="570.77 496.17 574.36 499.68 582.92 508.05 601.53 526.25" fill="none" stroke="#161819" stroke-linecap="round" stroke-linejoin="round" stroke-width="5"/><line x1="604.9" y1="416.23" x2="601.03" y2="420.06" fill="none" stroke="#161819" stroke-linecap="round" stroke-linejoin="round" stroke-width="5"/><polyline points="604.9 433.1 595.12 442.8 595.12 442.81" fill="none" stroke="#161819" stroke-linecap="round" stroke-linejoin="round" stroke-width="5"/><line x1="546.2" y1="397.24" x2="541.89" y2="392.8" fill="none" stroke="#161819" stroke-linecap="round" stroke-linejoin="round" stroke-width="5"/><line x1="551.27" y1="385.28" x2="550.35" y2="384.33" fill="none" stroke="#161819" stroke-linecap="round" stroke-linejoin="round" stroke-width="5"/><line x1="543.48" y1="354.85" x2="528.44" y2="369.86" fill="none" stroke="#161819" stroke-linecap="round" stroke-linejoin="round" stroke-width="5"/><line x1="556.68" y1="358.6" x2="531.42" y2="383.8" fill="none" stroke="#161819" stroke-linecap="round" stroke-linejoin="round" stroke-width="5"/><polyline points="535.65 399.07 535.65 399.07 553.26 379.99" fill="none" stroke="#161819" stroke-linecap="round" stroke-linejoin="round" stroke-width="5"/><line x1="559.88" y1="359.05" x2="555.64" y2="354.85" fill="none" stroke="#161819" stroke-linecap="round" stroke-linejoin="round" stroke-width="5"/><path d="M528.44,518v8.21h-51c1.3-2.77,2.73-5.86,4.14-9.07,1.74-3.91,3.46-8,5-11.88,1.15-2.95,2.18-5.8,3-8.38a73.69,73.69,0,0,0,22.25,16.31A53.5,53.5,0,0,0,528.44,518Z" fill="none" stroke="#161819" stroke-linecap="round" stroke-linejoin="round" stroke-width="5"/><path d="M528.44,354.85v21.83a91.38,91.38,0,0,0-5.05-9.4,92.65,92.65,0,0,0-7-9.9l-.28.27-2.83-2.8Z" fill="none" stroke="#161819" stroke-linecap="round" stroke-linejoin="round" stroke-width="5"/><line x1="489.4" y1="525.11" x2="488.27" y2="526.25" fill="none" stroke="#161819" stroke-linecap="round" stroke-linejoin="round" stroke-width="5"/><line x1="490.82" y1="526.25" x2="481.56" y2="517.18" fill="none" stroke="#161819" stroke-linecap="round" stroke-linejoin="round" stroke-width="5"/><line x1="507.95" y1="526.25" x2="486.53" y2="505.3" fill="none" stroke="#161819" stroke-linecap="round" stroke-linejoin="round" stroke-width="5"/><line x1="525.07" y1="526.25" x2="511.76" y2="513.23" fill="none" stroke="#161819" stroke-linecap="round" stroke-linejoin="round" stroke-width="5"/><path d="M518.89,354.85l-2.52,2.52h0l-.28.27" fill="none" stroke="#161819" stroke-linecap="round" stroke-linejoin="round" stroke-width="5"/><line x1="528.44" y1="362.23" x2="523.39" y2="367.28" fill="none" stroke="#161819" stroke-linecap="round" stroke-linejoin="round" stroke-width="5"/><path d="M222.63,398.92V354.85h36.22c-1.44,1.27-3,2.69-4.71,4.27A169.81,169.81,0,0,0,222.63,398.92Z" fill="none" stroke="#161819" stroke-linecap="round" stroke-linejoin="round" stroke-width="5"/><line x1="237.66" y1="354.85" x2="222.62" y2="369.86" fill="none" stroke="#161819" stroke-linecap="round" stroke-linejoin="round" stroke-width="5"/><line x1="250.86" y1="358.6" x2="222.62" y2="386.78" fill="none" stroke="#161819" stroke-linecap="round" stroke-linejoin="round" stroke-width="5"/><line x1="254.14" y1="359.12" x2="249.82" y2="354.85" fill="none" stroke="#161819" stroke-linecap="round" stroke-linejoin="round" stroke-width="5"/><path d="M222.63,354.85v44.52l-.57.57h0a128,128,0,0,0-11.58,28.34q-1.29,4.73-2.19,9.67-1,5.58-1.64,11h0c-.41,3.47-.72,6.89-.94,10.24-.36,5.7-.46,11.2-.35,16.46.13,6.36.57,12.38,1.18,18q.45,3.92,1,7.54c.94,6.31,2.1,12,3.27,16.81.74,3.09,1.49,5.86,2.2,8.27H146.17V354.85Z" fill="none" stroke="#161819" stroke-linecap="round" stroke-linejoin="round" stroke-width="5"/><line x1="165.94" y1="456.24" x2="146.17" y2="475.97" fill="none" stroke="#161819" stroke-linecap="round" stroke-linejoin="round" stroke-width="5"/><line x1="174.4" y1="464.71" x2="146.17" y2="492.88" fill="none" stroke="#161819" stroke-linecap="round" stroke-linejoin="round" stroke-width="5"/><line x1="183.7" y1="472.26" x2="146.17" y2="509.79" fill="none" stroke="#161819" stroke-linecap="round" stroke-linejoin="round" stroke-width="5"/><line x1="165.94" y1="508.9" x2="148.59" y2="526.25" fill="none" stroke="#161819" stroke-linecap="round" stroke-linejoin="round" stroke-width="5"/><line x1="205.36" y1="469.48" x2="183.73" y2="491.11" fill="none" stroke="#161819" stroke-linecap="round" stroke-linejoin="round" stroke-width="5"/><line x1="175.16" y1="516.61" x2="165.52" y2="526.25" fill="none" stroke="#161819" stroke-linecap="round" stroke-linejoin="round" stroke-width="5"/><line x1="205.84" y1="485.93" x2="192.09" y2="499.68" fill="none" stroke="#161819" stroke-linecap="round" stroke-linejoin="round" stroke-width="5"/><line x1="183.58" y1="525.11" x2="182.45" y2="526.25" fill="none" stroke="#161819" stroke-linecap="round" stroke-linejoin="round" stroke-width="5"/><line x1="207.53" y1="501.17" x2="200.65" y2="508.05" fill="none" stroke="#161819" stroke-linecap="round" stroke-linejoin="round" stroke-width="5"/><line x1="193.78" y1="481.06" x2="159.61" y2="447.37" fill="none" stroke="#161819" stroke-linecap="round" stroke-linejoin="round" stroke-width="5"/><line x1="202.25" y1="472.59" x2="167.11" y2="437.95" fill="none" stroke="#161819" stroke-linecap="round" stroke-linejoin="round" stroke-width="5"/><line x1="205.71" y1="459.19" x2="175.16" y2="429.07" fill="none" stroke="#161819" stroke-linecap="round" stroke-linejoin="round" stroke-width="5"/><polyline points="185.01 526.25 175.16 516.61 157.47 499.32" fill="none" stroke="#161819" stroke-linecap="round" stroke-linejoin="round" stroke-width="5"/><line x1="202.13" y1="526.25" x2="165.94" y2="490.86" fill="none" stroke="#161819" stroke-linecap="round" stroke-linejoin="round" stroke-width="5"/><polyline points="210.8 517.98 200.65 508.05 192.09 499.68 174.4 482.39" fill="none" stroke="#161819" stroke-linecap="round" stroke-linejoin="round" stroke-width="5"/><line x1="165.94" y1="403.09" x2="146.17" y2="422.82" fill="none" stroke="#161819" stroke-linecap="round" stroke-linejoin="round" stroke-width="5"/><line x1="174.4" y1="411.55" x2="146.17" y2="439.73" fill="none" stroke="#161819" stroke-linecap="round" stroke-linejoin="round" stroke-width="5"/><line x1="183.7" y1="419.17" x2="147.25" y2="458.65" fill="none" stroke="#161819" stroke-linecap="round" stroke-linejoin="round" stroke-width="5"/><polyline points="184.76 383.17 193.34 374.58 201.81 366.12 210.27 357.65 213.07 354.86" fill="none" stroke="#161819" stroke-linecap="round" stroke-linejoin="round" stroke-width="5"/><line x1="222.63" y1="362.23" x2="193.22" y2="391.63" fill="none" stroke="#161819" stroke-linecap="round" stroke-linejoin="round" stroke-width="5"/><line x1="222.63" y1="379.17" x2="201.68" y2="400.1" fill="none" stroke="#161819" stroke-linecap="round" stroke-linejoin="round" stroke-width="5"/><polyline points="184.4 437.29 222.06 399.94 222.06 399.94 222.63 399.38" fill="none" stroke="#161819" stroke-linecap="round" stroke-linejoin="round" stroke-width="5"/><line x1="210.48" y1="428.28" x2="193.45" y2="445.18" fill="none" stroke="#161819" stroke-linecap="round" stroke-linejoin="round" stroke-width="5"/><polyline points="201.91 453.65 206.65 448.95 206.65 448.94" fill="none" stroke="#161819" stroke-linecap="round" stroke-linejoin="round" stroke-width="5"/><line x1="159.61" y1="392.8" x2="193.45" y2="427.64" fill="none" stroke="#161819" stroke-linecap="round" stroke-linejoin="round" stroke-width="5"/><line x1="168.08" y1="384.34" x2="201.91" y2="419.17" fill="none" stroke="#161819" stroke-linecap="round" stroke-linejoin="round" stroke-width="5"/><line x1="176.54" y1="375.87" x2="210.38" y2="410.7" fill="none" stroke="#161819" stroke-linecap="round" stroke-linejoin="round" stroke-width="5"/><line x1="161.21" y1="354.85" x2="146.17" y2="369.86" fill="none" stroke="#161819" stroke-linecap="round" stroke-linejoin="round" stroke-width="5"/><line x1="174.4" y1="358.6" x2="146.17" y2="386.78" fill="none" stroke="#161819" stroke-linecap="round" stroke-linejoin="round" stroke-width="5"/><line x1="183.7" y1="366.22" x2="147.25" y2="405.7" fill="none" stroke="#161819" stroke-linecap="round" stroke-linejoin="round" stroke-width="5"/><line x1="193.34" y1="374.58" x2="173.36" y2="354.85" fill="none" stroke="#161819" stroke-linecap="round" stroke-linejoin="round" stroke-width="5"/><line x1="201.81" y1="366.12" x2="190.4" y2="354.85" fill="none" stroke="#161819" stroke-linecap="round" stroke-linejoin="round" stroke-width="5"/><line x1="210.27" y1="357.65" x2="207.44" y2="354.85" fill="none" stroke="#161819" stroke-linecap="round" stroke-linejoin="round" stroke-width="5"/><path d="M408.93,176.74s15.13,15.76,8.19,27.73-20.16,8.19-36.54,17.64-8.82,32.14-8.82,32.14-9.46,0-11.35-8.82-12-8.83-12-.63,10.08,22.05,16.38,17.64c0,0,7.57,14.49,0,24.57,0,0-47.88-8.19-42.84-50.41s36.1-41.58,48.29-43.47S407.67,186.83,408.93,176.74Z" fill="none" stroke="#161819" stroke-linecap="round" stroke-linejoin="round" stroke-width="5"/><path d="M417.12,204.47s-4.62,20.16,0,25.62,8,6.3,8,6.3-1.22,5.05-5,8-5,20.16-5,20.16-5.93,26-36.59,24.36" fill="none" stroke="#161819" stroke-linecap="round" stroke-linejoin="round" stroke-width="5"/><path d="M399.06,260.34s3.36-13,15.12-16.38,13,10.92,10.93,16.38A28.45,28.45,0,0,1,399.06,260.34Z" fill="#161819"/><path d="M364.82,287s1.9,14.08-3.57,23.32c0,0,10.93,15.12,29.41,13.86s21.84-11.34,21.84-11.34-8.47-21.5-6.13-33.44" fill="none" stroke="#161819" stroke-linecap="round" stroke-linejoin="round" stroke-width="5"/><path d="M412.5,312.85s32.85-4.62,80.32,25.2,44,79.4,44,79.4,26.88-43.27,27.3-86.54c0,0,23.11-11.76,50.83,11.76,0,0-16.38,134.43-56.29,167.2,0,0-26,24.78-67.63-10.93" fill="none" stroke="#161819" stroke-linecap="round" stroke-linejoin="round" stroke-width="5"/><path d="M318,581.7c45.36,23.1,131.06-2.52,131.06-2.52,66.79-106.7,51.25-163.77,51.25-163.77s17.84,55,1.57,91.74" fill="none" stroke="#161819" stroke-linecap="round" stroke-linejoin="round" stroke-width="5"/><path d="M272.62,637.3s-10.38,18.79,3.08,48.61c0,0,7.54,19.78,16,14.13s7.24-16,8.5-25.19,3.33-15.88,19.31-13.61,6.64-8.39,6.64-8.39-9.75-17.81-9-20.9C317.16,632,296,643.54,272.62,637.3Z" fill="#f4f2ed"/><path d="M361.25,310.33s-73.09,5.88-121.4,63.85-52.51,141.15,26,260c0,0,31.5,13.86,55.45-4.62,0,0-9.67-63.43-5.88-107.12,0,0,6,52.61,17.91,64.95" fill="none" stroke="#161819" stroke-linecap="round" stroke-linejoin="round" stroke-width="5"/><path d="M318,632a53.23,53.23,0,0,0,1.9,7.25c4.63,13.71,13.06,21.23,6.93,22.32-1.09.19-2,.32-2.83.41a16.81,16.81,0,0,1-4.43,0c-2.62-.39-3.89-1.33-11.64,0-8.74,1.51-7.54,10.14-8.33,20.17A39.87,39.87,0,0,1,297,694.28c-5.05,12.25-17.2,4.72-23.73-12a.9.9,0,0,1-.08-.21,60.39,60.39,0,0,1-2.66-8.82,70.46,70.46,0,0,1-1.61-11.35,55.81,55.81,0,0,1,2.94-22.73,23,23,0,0,1,1.11-2.61" fill="none" stroke="#161819" stroke-linecap="round" stroke-linejoin="round" stroke-width="5"/><path d="M426.79,619.93s9.76,8.3,22.52,19.27c8.1,7,17.42,15,26.2,22.73,8.59,7.53,16.66,14.71,22.56,20.17a119.31,119.31,0,0,1,8.95,8.82c7.56,9.24,6.72,13.44,6.72,13.44l21.25,27,22,28L569.26,775l1.61,2c-4.2,12.61-11.34,16.39-11.34,16.39L557,792.36c-4-1.72-12.44-5.41-22-10.14-13.85-6.81-30.14-15.78-39.31-24.09-8.89-8-20-20.5-29-31-9.3-10.89-16.34-19.78-16.34-19.78s-9.18-5.27-22.37-13.13h0c-6-3.57-12.8-7.68-19.95-12.07-10.37-6.38-21.47-13.36-31.78-20.17-12.52-8.28-23.9-16.31-31.47-22.73a56.76,56.76,0,0,1-7.42-7.25c-15.54-19.5-15.76-48.57-14.78-48.15" fill="none" stroke="#161819" stroke-linecap="round" stroke-linejoin="round" stroke-width="5"/><path d="M491.68,676.13a85.2,85.2,0,0,0,7.93-14.2c3.72-8.63,5-16.46,3.73-22.73a18.41,18.41,0,0,0-3-7.25c-6.72-9.41-51.25-52.77-51.25-52.77" fill="none" stroke="#161819" stroke-linecap="round" stroke-linejoin="round" stroke-width="5"/><path d="M427.94,694.17h0c-.62,0-15.85,42.25-15.43,78.24a22.5,22.5,0,0,0,3.31,2.57,27.35,27.35,0,0,0,16.86,4.58s13.36-16.74,34-52.48" fill="none" stroke="#161819" stroke-linecap="round" stroke-linejoin="round" stroke-width="5"/><path d="M415.81,775s-7.09,13-10.87,21.37c0,0,15.55,12.18,29,14.28s32.72-3.78,32.72-3.78-4.58-1.26-13.82-6.72-20.16-20.58-20.16-20.58" fill="none" stroke="#161819" stroke-linecap="round" stroke-linejoin="round" stroke-width="5"/><path d="M559.53,793.42l18.06,14.7h8.83s25.2-23.52,29.4-41.17c0,0-8.82,10.21-21.42,12.67S569.26,775,569.26,775" fill="none" stroke="#161819" stroke-linecap="round" stroke-linejoin="round" stroke-width="5"/><path d="M273.18,682.1H241.64a10.09,10.09,0,0,1,0-20.17h27.27a70.46,70.46,0,0,0,1.61,11.35A60.39,60.39,0,0,0,273.18,682.1Z" fill="none" stroke="#161819" stroke-linecap="round" stroke-linejoin="round" stroke-width="5"/><path d="M498.07,682.1h68.54a10.09,10.09,0,0,0,0-20.17h-67" fill="none" stroke="#161819" stroke-linecap="round" stroke-linejoin="round" stroke-width="5"/><path d="M408,682.1H299.58c.79-10-.41-18.66,8.33-20.17H376.2" fill="none" stroke="#161819" stroke-linecap="round" stroke-linejoin="round" stroke-width="5"/><rect x="251.21" y="682.1" width="22.05" height="129" stroke-width="5" stroke="#161819" stroke-linecap="round" stroke-linejoin="round" fill="none"/><polyline points="534.99 731.38 534.99 682.1 557.03 682.1 557.03 759.43" fill="none" stroke="#161819" stroke-linecap="round" stroke-linejoin="round" stroke-width="5"/><polyline points="557.03 792.36 557.03 811.1 534.99 811.1 534.99 782.22" fill="none" stroke="#161819" stroke-linecap="round" stroke-linejoin="round" stroke-width="5"/><path d="M271.85,639.2a55.81,55.81,0,0,0-2.94,22.73H244.69a22.73,22.73,0,0,1,22.73-22.73Z" fill="none" stroke="#161819" stroke-linecap="round" stroke-linejoin="round" stroke-width="5"/><path d="M319.55,661.93H307.91C315.66,660.6,316.93,661.54,319.55,661.93Z" fill="none" stroke="#161819" stroke-linecap="round" stroke-linejoin="round" stroke-width="5"/><path d="M344.73,639.2c7.57,6.42,18.95,14.45,31.47,22.73H324c.82-.09,1.74-.22,2.83-.41,6.13-1.09-2.3-8.61-6.93-22.32Z" fill="none" stroke="#161819" stroke-linecap="round" stroke-linejoin="round" stroke-width="5"/><path d="M499.61,661.93c3.72-8.63,5-16.46,3.73-22.73h37.47a22.72,22.72,0,0,1,22.74,22.73Z" fill="none" stroke="#161819" stroke-linecap="round" stroke-linejoin="round" stroke-width="5"/><path d="M393,237.47l2.19,6.52a3.65,3.65,0,0,1-2.69,1.83c-2.72.2-5.22-3.67-5.59-8.64s1.54-9.17,4.26-9.38,5.21,3.68,5.59,8.65a17.41,17.41,0,0,1,0,2.9l-2.13-2.74A.94.94,0,0,0,393,237.47Z" fill="#0a0c0f"/><path d="M567.27,328s-6.9-15.54,2.13-28.77,15.12-6.73,16.39-1.47,12,20.16,12,20.16l22.18,5.67,9.11-79.39-36.4-9.46-6.86,58.18" fill="none" stroke="#161819" stroke-linecap="round" stroke-linejoin="round" stroke-width="5"/><path d="M626.81,274.62a27.79,27.79,0,0,1,8.46,24.58C633,315,626.64,329.59,611.67,340" fill="none" stroke="#161819" stroke-linecap="round" stroke-linejoin="round" stroke-width="5"/><ellipse cx="601.75" cy="308.52" rx="3.15" ry="4.07" fill="#0a0c0f"/><polyline points="623.48 216.65 596.9 216.65 596.9 168.13 664.34 168.13 664.34 216.65 643.89 216.65" fill="none" stroke="#161819" stroke-linecap="round" stroke-linejoin="round" stroke-width="5"/><polyline points="623.48 216.65 634.1 233.9 643.89 216.65" fill="none" stroke="#0a0c0f" stroke-linecap="round" stroke-linejoin="round" stroke-width="5"/><polyline points="624.59 204.63 624.59 187.93 632 175.48 636.72 186.67 643.89 185.88 646.64 202.1 624.43 206.2 610.41 202.1 610.41 188.09 624.59 188.09" fill="none" stroke="#0a0c0f" stroke-linecap="round" stroke-linejoin="round" stroke-width="5"/><path d="M134.23,708.56h23.46l-6.91,35a13.48,13.48,0,0,0,.16,6l4.32,17a92.41,92.41,0,0,1,.25,44.53H134.23" fill="none" stroke="#161819" stroke-linecap="round" stroke-linejoin="round" stroke-width="5"/><path d="M134.65,708.56l6.91,35a13.63,13.63,0,0,1-.16,6l-4.32,17a92.28,92.28,0,0,0-.25,44.53h0" fill="none" stroke="#161819" stroke-linecap="round" stroke-linejoin="round" stroke-width="5"/><path d="M148.59,708.56s3.88-16.38,11-26.46,10.65-7.14,11.63-3.36-11.2,18.9-16.66,29.82Z" fill="#0a0c0f"/><path d="M144.07,708.56s-5.46-23.94-4.2-49.15,7.14-23.62,10.5-20.21,3.37,20.21,0,39.54,0,29.82,0,29.82Z" fill="#0a0c0f"/><path d="M138,708.56s-10.33-8.39-10.75-26.46,8.82-10.92,8.82-3.36.42,21.84,8,29.82Z" fill="#0a0c0f"/><path d="M157.31,675.22c4.23.57,8.4-13.08,12.18-23.58s12.6-31.92,5-34.44S160,627.49,158.11,641.56,151.42,674.43,157.31,675.22Z" fill="#0a0c0f"/><path d="M171.3,670.76c-4-1.11.77-12.19,6.2-24s9.84-19.32,16.56-17.43-4.2,18.06-9,27.09S175.84,672,171.3,670.76Z" fill="#0a0c0f"/><path d="M132.94,661.59c3.68.22,1.94-13.94,1.29-31.37s-.87-31.09-8.22-31.72-4.83,16.17-3.78,32.56S127.27,661.24,132.94,661.59Z" fill="#0a0c0f"/><path d="M125.54,661.75c-2.69-9.75-9.61-22.42-15.62-20.88s-1.29,8.52,3.22,16.08,5.51,10,8.84,13S128.31,671.84,125.54,661.75Z" fill="#0a0c0f"/><path d="M146.17,632c2.84-.21,5.25-1.31,9.25-23.79s8.42-54.61-.94-54.4S143,581.07,140.71,596.82,139.86,632.42,146.17,632Z" fill="#0a0c0f"/><path d="M182.45,621c4.77,1.4,13.68-8.83,19.68-18.49s5.13-15.54,0-17-11,4.62-15.63,15.12S176.72,619.3,182.45,621Z" fill="#0a0c0f"/><path d="M185.87,590.1c4.85,0,10.92-8.82,7.25-20.58s-8.57-6.3-10.12,0S179.05,590.08,185.87,590.1Z" fill="#0a0c0f"/><path d="M135.67,573.72c5.47.54,7.25-4,6.15-12s-3.63-22.26-9.93-23.73-1.26,12.18,0,19.32S131.46,573.3,135.67,573.72Z" fill="#0a0c0f"/><path d="M103.75,640.75c5.62,2.14-.63-8.64-3.57-16.83s-5.05-15.13-10.72-13S93.87,637,103.75,640.75Z" fill="#0a0c0f"/><path d="M98.92,612.57c3.18,3.42,5,2.73,5.46-2.94a163.3,163.3,0,0,0,0-22.68c-.63-6.72-6.52-5.25-8.83,3.15S97.35,610.89,98.92,612.57Z" fill="#0a0c0f"/><path d="M740.09,708.56h23.46l-6.91,35a13.63,13.63,0,0,0,.16,6l4.33,17a92.41,92.41,0,0,1,.24,44.53H740.09" fill="none" stroke="#161819" stroke-linecap="round" stroke-linejoin="round" stroke-width="5"/><path d="M740.52,708.56l6.9,35a13.48,13.48,0,0,1-.16,6l-4.32,17a92.41,92.41,0,0,0-.25,44.53h0" fill="none" stroke="#161819" stroke-linecap="round" stroke-linejoin="round" stroke-width="5"/><path d="M754.45,708.56s3.88-16.38,11-26.46,10.65-7.14,11.62-3.36-11.2,18.9-16.66,29.82Z" fill="#0a0c0f"/><path d="M749.94,708.56s-5.46-23.94-4.2-49.15,7.14-23.62,10.5-20.21,3.36,20.21,0,39.54,0,29.82,0,29.82Z" fill="#0a0c0f"/><path d="M743.88,708.56s-10.33-8.39-10.75-26.46,8.83-10.92,8.83-3.36.42,21.84,8,29.82Z" fill="#0a0c0f"/><path d="M763.17,675.22c4.24.57,8.4-13.08,12.18-23.58s12.6-31.92,5-34.44S765.83,627.49,764,641.56,757.29,674.43,763.17,675.22Z" fill="#0a0c0f"/><path d="M777.16,670.76c-4-1.11.77-12.19,6.2-24s9.84-19.32,16.57-17.43-4.2,18.06-9,27.09S781.7,672,777.16,670.76Z" fill="#0a0c0f"/><path d="M738.8,661.59c3.68.22,2-13.94,1.29-31.37s-.87-31.09-8.22-31.72-4.83,16.17-3.78,32.56S733.13,661.24,738.8,661.59Z" fill="#0a0c0f"/><path d="M731.4,661.75c-2.68-9.75-9.61-22.42-15.62-20.88S714.5,649.39,719,657s5.51,10,8.84,13S734.18,671.84,731.4,661.75Z" fill="#0a0c0f"/><path d="M752,632c2.84-.21,5.26-1.31,9.25-23.79s8.42-54.61-.94-54.4-11.45,27.31-13.76,43.06S745.73,632.42,752,632Z" fill="#0a0c0f"/><path d="M788.32,621c4.77,1.4,13.67-8.83,19.68-18.49s5.12-15.54,0-17-11,4.62-15.64,15.12S782.59,619.3,788.32,621Z" fill="#0a0c0f"/><path d="M791.73,590.1c4.85,0,10.93-8.82,7.25-20.58s-8.57-6.3-10.11,0S784.92,590.08,791.73,590.1Z" fill="#0a0c0f"/><path d="M741.53,573.72c5.48.54,7.25-4,6.15-12s-3.62-22.26-9.93-23.73-1.26,12.18,0,19.32S737.32,573.3,741.53,573.72Z" fill="#0a0c0f"/><path d="M709.61,640.75c5.63,2.14-.63-8.64-3.57-16.83s-5-15.13-10.71-13S699.74,637,709.61,640.75Z" fill="#0a0c0f"/><path d="M704.78,612.57c3.18,3.42,5,2.73,5.46-2.94a163.3,163.3,0,0,0,0-22.68c-.63-6.72-6.51-5.25-8.82,3.15S703.21,610.89,704.78,612.57Z" fill="#0a0c0f"/><polyline points="588.91 301.84 596.9 241.44 623.66 249 614.98 322.29" fill="none" stroke="#161819" stroke-linecap="round" stroke-linejoin="round" stroke-width="2"/></svg>