<svg id="Layer_1" data-name="Layer 1" xmlns="http://www.w3.org/2000/svg" viewBox="0 0 900 900"><title>Big Guy Illustrations Pack - Scene 2</title><path d="M499.71,592.67A125.49,125.49,0,0,1,479.53,608a199.11,199.11,0,0,1-22.39,11.92,289,289,0,0,1-47.8,16.46l-6.14,1.49-6.16,1.4c-2.06.44-4.12.84-6.18,1.26l-6.2,1.16c-8.28,1.53-16.61,2.67-25,3.68a440.26,440.26,0,0,1-100.55,0c-8.34-1-16.67-2.15-24.94-3.68-4.14-.75-8.27-1.55-12.39-2.43l-6.16-1.4-6.13-1.49a288.9,288.9,0,0,1-47.81-16.48,199.91,199.91,0,0,1-22.38-11.93,124.87,124.87,0,0,1-20.16-15.3,2.05,2.05,0,0,1,2.31-3.34h0c14.61,7.21,29.82,12.3,45.29,16.4a437.63,437.63,0,0,0,47,9.41,663,663,0,0,0,95.62,6.65,663.07,663.07,0,0,0,95.62-6.63,437.56,437.56,0,0,0,47-9.39c15.48-4.09,30.69-9.17,45.31-16.36h0a2.06,2.06,0,0,1,2.32,3.34Z" fill="#1c1b1a"/><rect x="144.96" y="163.1" width="166.99" height="366.66" fill="#f4f2ed"/><rect x="506.27" y="163.1" width="166.99" height="366.66" fill="#f4f2ed"/><path d="M245.42,521.56s-1.72,6.26-7.4,16.25-14,18.18-9.57,27.63,9,18.5,26,22.11l15.2-36.78s7.23-7.61,16.68-4.4S290.24,564,290.24,564l-5.7,16.28s10.8,3.13,19.63-7.67,9.14-20.61,2.89-42.8Z" fill="#f4f2ed"/><path d="M298.27,765.09l-12.1,15.36a17.64,17.64,0,0,1,9.48,10.2c2.64,7.61,12.35,17.75,26,18.63s26.65.88,26.65.88,5.85-8.23,2.8-9.2-12.88-3.54-16.66-6.48-11.27-13-15.3-23.49C319.12,771,303.3,771.41,298.27,765.09Z" fill="#f4f2ed"/><path d="M150.66,765.09l55.76-146.44,11.84,4.51,9.84-25.84s3.32-6.93,12.77-3.34l36.72,14,24.82,9.45s7.17,1.77,4.12,9.77L241.06,799.13s-.59,8.25-9.57,4.56l-5.26-2s6.5-14.29-4.28-30S195.4,760,185.43,765.09a24.62,24.62,0,0,0-12.24,15.15s-8.32,3-10.58-5.4l-1.42-1.73-11.59-5.24Z" fill="#f4f2ed"/><path d="M250.56,597.58l16.68-43s7.26-15.23,19.07-8.19,0,29.13,0,29.13l-10.78,31.68Z" fill="#f4f2ed"/><path d="M397,775s-2.37,25.56-4.62,35.15l55.71-.41s14.37-13.24,11.81-17.17-2.25,1-15.85,1.06-30.63-12.26-33-22.49A28.18,28.18,0,0,1,397,775Z" fill="#f4f2ed"/><polygon points="593.49 678.71 621.41 809.75 697.28 809.75 726.49 678.71 593.49 678.71" fill="#f4f2ed"/><path d="M437.31,217s20.22,65.23,23,77.2c0,0-.92,2.31,4.29,1.19s17.73-1.82,16.95-20.31c0,0-18.71-47.89-29.17-57.23C452.42,217.82,442.12,215,437.31,217Z" fill="#f4f2ed"/><path d="M414,122c-4.38,4.42-15.18,11-22.19,17.21s-16.88,21.94-16.88,30.8.92,10-5.7,4.89-13.53-8.72-12.46-4,7.57,19.1,16.68,16.48c0,0,3.22,8.63,1.48,14.71s1.94,14.19,1.94,14.19l-.31,12.36-1.63,4.89a24.65,24.65,0,0,0,26.86,10.58c18.26-4.22,20.75-9.26,23.6-24.7,0,0-6.6-13.54-6-18.58,0,0,9-6.73,9.25-17.39s-4.91-24-4.91-24,5.27-6.54,3.86-9-8.82-3.7-10.4-10.08" fill="#f4f2ed"/><path d="M482.32,339.31s-52.86-18.14-42.46-36.26c0,0,3.77-7.67,16.69-7.38s19,.47,23.19-9.23a23.35,23.35,0,0,0,.44-17.9l1.41-3.29s29.15,7.39,35.77,32.28C517.36,297.53,488.45,324.94,482.32,339.31Z" fill="#f4f2ed"/><path d="M374.89,208.27s-34.59.41-44.46-30.88,1-48.08,9.77-53.18c0,0,7.17-7.95,17.92-7.74a157.89,157.89,0,0,0,29.12-2.62c8.09-1.37,10.57-6.46,11.26-11.07s0-14.16,0-14.16S407,91,412.39,96.48s6.08,15.42,2.8,21.25-4.29,9.85-16.7,16.48S377.12,154.3,376.41,160a83.76,83.76,0,0,0-.18,13.3l-1.34,5.62s-5.32-6.56-10.85-8.22-8.07-3.63-7.31.23.48,11.79,7.11,13.77,9.57,2.71,9.57,2.71S383.43,195.48,374.89,208.27Z" fill="#161819"/><path d="M374.89,229s-37.38,10.87-68.33,40.12-62.82,77.33-74,153.05-5,88.87-5,88.87,23.49,29.47,89.53,20.34c0,0,17-41.74,20.5-56.62s10.5-43.83,10.5-43.83l3.15,40.74,6.69,45.18s66.77,8.32,119.5-8.26c0,0,33.7-59.4,40.69-105,0,0,15.83,9.61,29.79,12.21s37.68,3.08,46.72-4.88,14.19-19.86,2.79-57.4-21.52-93.2-117.9-129.22c0,0-15.5-5-23.55-6l-.69,3.32s16,20.57,23,43.61c0,0,22.39.48,39.88,32.55,0,0,8.18-9.71,14.31-8.56s19.48,19.82,19.48,19.82l-4.64-.18-16.69-13.52s-9.09-1.76-18.26,7.69-30,36.26-30,36.26-6.78,9-4.88,14.51,25.61,40.39,25.61,40.39S474.72,381.12,468,361.38A56.11,56.11,0,0,1,479.88,341s2.22-1.37-4.56-4.26-59-25.32-28.31-39.64a112.51,112.51,0,0,1,13.34-1.78l-23-78.39-10.48.85s-8.26,26.49-22.23,26S375.87,243.66,374.89,229Z" fill="#161819"/><polygon points="181.11 726.03 215.83 710.87 213.66 701.18 209.32 700.66 185.43 711.08 181.11 726.03" fill="#161819"/><polygon points="250.04 753.34 229.53 707.39 245.42 713.61 256.5 738.45 250.04 753.34" fill="#161819"/><polygon points="187.46 736.95 198.42 732.15 208.07 753.54 192.13 747.31 187.46 736.95" fill="#161819"/><polygon points="220.62 749.42 232.81 744.09 237.69 755.02 226.82 759.78 224.02 759.78 220.62 749.42" fill="#161819"/><polygon points="207.73 658.23 242.45 643.08 240.27 633.38 235.93 632.86 212.05 643.28 207.73 658.23" fill="#1c1b1a"/><polygon points="276.65 685.54 256.15 639.6 272.04 645.81 283.12 670.65 276.65 685.54" fill="#1c1b1a"/><polygon points="214.07 669.15 225.04 664.35 234.69 685.75 218.75 679.51 214.07 669.15" fill="#1c1b1a"/><polygon points="247.24 681.63 259.42 676.3 264.3 687.23 253.44 691.98 250.64 691.98 247.24 681.63" fill="#1c1b1a"/><circle cx="228.45" cy="244.13" r="57.86" fill="#e0b146"/><path d="M338.26,471.17s11.91,44.51,13.84,44.76a27.85,27.85,0,0,0,4.79,0l-7.5-77.45-3.75,2.85Z" fill="#e0b146"/><path d="M468.13,361s3.63-12.46,9.31-14.52l-1.25,7.26,4.93,8.89,23.52,29.79S476.87,386.57,468.13,361Z" fill="#e0b146"/><path d="M519.39,297.69l9.35-1,18.54,12.23s6.23-3-14.84-19.64l-6.88,2.45Z" fill="#e0b146"/><path d="M360.49,516.9,354.78,635s-24.08,39.58-33.3,59.13-26.35,65.21-26.35,65.21a18.84,18.84,0,0,0,10.63,10.48,25.3,25.3,0,0,0,16.22.91s30.22-40.47,39.16-51.83,39-46.65,39-46.65l19-64.05,25-91.25L401.76,519Z" fill="#e0b146"/><path d="M383.62,691.7l1,46.75,4.91,33s6.44,9.36,25.23-3.25c0,0,19-54.65,13-54.53L459.93,592.8l17.51-84.2-33.38,8.3Z" fill="#e0b146"/><polygon points="198.42 732.15 208.07 753.54 224.02 759.78 209.39 727.35 198.42 732.15" fill="#e0b146"/><polygon points="176.38 741.14 221.74 721.3 215.83 710.87 179.27 726.83 174.03 740.23 176.38 741.14" fill="#e0b146"/><polygon points="185.43 711.08 209.32 700.66 192.54 692.92 185.43 711.08" fill="#e0b146"/><polygon points="214.4 738.45 227.93 733.16 232.81 744.09 220.62 749.42 214.4 738.45" fill="#e0b146"/><polygon points="243.15 767.26 213.66 701.18 229.53 707.39 250.38 754.11 245.24 768.08 243.15 767.26" fill="#e0b146"/><polygon points="250.04 723.48 259.78 719.22 263.74 720.77 256.5 738.45 250.04 723.48" fill="#e0b146"/><polygon points="225.63 664.32 235.29 685.71 251.23 691.95 236.6 659.52 225.63 664.32" fill="#e0b146"/><polygon points="203.59 673.32 248.95 653.47 243.04 643.05 206.49 659 201.25 672.4 203.59 673.32" fill="#e0b146"/><polygon points="212.65 643.25 236.53 632.83 219.75 625.09 212.65 643.25" fill="#e0b146"/><polygon points="241.61 670.62 255.14 665.33 260.02 676.26 247.83 681.6 241.61 670.62" fill="#e0b146"/><polygon points="270.36 699.43 240.87 633.35 256.75 639.56 277.59 686.28 272.45 700.25 270.36 699.43" fill="#e0b146"/><polygon points="277.25 655.65 286.99 651.39 290.95 652.95 283.72 670.62 277.25 655.65" fill="#e0b146"/><path d="M371.55,113.11a21.7,21.7,0,0,0,10.38,1.48c5.31-.74,15.21-3.24,16-10s-.73-9.6-.73-9.6-2.54,6-7.58,8.9-21,8.57-21,8.57Z" fill="#e0b146"/><polygon points="130.97 811.38 109.17 811.38 114.08 583.21 126.06 583.21 130.97 811.38" fill="#1c1b1a"/><circle cx="120.07" cy="583.21" r="8.12" fill="#1c1b1a"/><polygon points="509.68 811.38 487.87 811.38 492.79 583.21 504.76 583.21 509.68 811.38" fill="#1c1b1a"/><circle cx="498.77" cy="583.21" r="8.12" fill="#1c1b1a"/><path d="M586.38,619.4c1.82,6.66,4.23,11.84,7.11,15.4a24.52,24.52,0,0,0-2,2.25l-.14.19-3.9-.94a288.19,288.19,0,0,1-47.8-16.48,198.29,198.29,0,0,1-22.38-11.93,125.39,125.39,0,0,1-20.17-15.3,2.06,2.06,0,0,1,2.32-3.34h0c14.61,7.21,29.82,12.3,45.29,16.39,13.13,3.45,26.43,6.15,39.82,8.31C585.32,616,585.94,617.79,586.38,619.4Z" fill="#1c1b1a"/><path d="M790.83,613.88v21.51c-1.19.32-2.37.63-3.56.93l-6.14,1.5-6.16,1.4c-2.06.45-4.12.84-6.19,1.26l-6.2,1.16c-8.27,1.54-16.6,2.67-24.94,3.68-5.1.6-10.2,1.09-15.31,1.5-1.1-6.09-2.88-10.25-5-13.07,2.24-3.48,3.1-7.66,4.12-12.6l0-.24c20.57-1,41.09-2.82,61.45-5.81C785.61,614.71,788.22,614.31,790.83,613.88Z" fill="#1c1b1a"/><path d="M424.26,158.43s-8.11.1-13,9.06-2.6,13.52-2.6,13.52l23.86-4.58S431.8,158.41,424.26,158.43Z" fill="#161819"/><polygon points="697.28 809.75 621.41 809.75 592.2 678.71 726.49 678.71 697.28 809.75" fill="none" stroke="#161819" stroke-linecap="round" stroke-linejoin="round" stroke-width="5"/><path d="M676.44,571.68c8.49,5.1,7.32-13,17.09-29.3s-4.88-28.49-13.84-18.72S668.3,566.8,676.44,571.68Z" fill="#1c1b1a"/><path d="M610.41,678.71s-21.47-25.23-12.51-36.63,14.65,4.07,17.9,15.47,12.67,21.16,12.67,21.16Z" fill="#0a0c0f"/><path d="M633.93,678.71S624.35,671,617,646.56s-15.46-54.53,0-55.34,13.84,24.41,17.1,40.69,6.19,34.18,13.67,46.8Z" fill="#0a0c0f"/><path d="M653.65,550.52c-15.45.67-21.16,9.77-18.72,44.77s9.69,70,16.65,83.42h11.76s3.33-19.94,4.15-61.45S672.37,549.71,653.65,550.52Z" fill="#0a0c0f"/><path d="M668.42,678.71s4.76-11,4.76-34.59,2.44-61,16.28-61,5.7,35.81,4.88,55.34-7.06,40.29-7.06,40.29Z" fill="#0a0c0f"/><path d="M710.81,678.71s6.32-10.17,3.88-28.08-9.76-16.28-13.83-9-4.13,28.48-9.8,37Z" fill="#0a0c0f"/><path d="M700,618.07c0,13,3.26,17.91,9,13s2.45-16.28,14.65-43.14,15.47-45.58,0-47.21S700,592,700,618.07Z" fill="#0a0c0f"/><path d="M708.18,500.87c-8.1,2.16-2.44,14.65-1.63,26s4.89,12.21,10.58,9.76S720.39,497.62,708.18,500.87Z" fill="#0a0c0f"/><path d="M739.11,548.08c-6.11-3.33-5.7-21.16,8.14-27.67s15.46,8.14,5.7,13.83S748.06,553,739.11,548.08Z" fill="#0a0c0f"/><path d="M582,550.52c9-8.51,17.9,3.26,19.53,22s3.26,38.25,4.88,51.27-7.32,11.4-12.21-6.51S567.38,564.36,582,550.52Z" fill="#0a0c0f"/><path d="M615.4,583.08c6.31,1.58,9.76-10.58,12.2-27.68s18.72-30.92,6.52-40.69-24.42,14.65-26,33.37S605.63,580.63,615.4,583.08Z" fill="#0a0c0f"/><path d="M653.65,512.27c7.18,1.43,8.14,5.69,11.39,15.46s2.45,17.09-8.14,18.72-17.9,2.44-16.27-12.21S649.58,511.45,653.65,512.27Z" fill="#0a0c0f"/><path d="M560.86,535.87c3.26-3.26,8.14-1.63,12.21,1.63s7.33,5.7,6.51,9.76-5.69,11.4-13.83,1.63S560.86,535.87,560.86,535.87Z" fill="#0a0c0f"/><path d="M608.22,509.46c-4.81-7.39-.33-14.7,5.76-14.28s5.67,6.09,6.09,12.18.63,7.35-2.52,9S611.91,515.13,608.22,509.46Z" fill="#0a0c0f"/><path d="M666.73,489.92c-6.15,2.91-4.65,7.18-1.08,16.09s6.9,16.66,13.86,15.42-1.47-11.7-2.31-20.76S671.18,487.82,666.73,489.92Z" fill="#0a0c0f"/><path d="M675.1,487.85c-3.77-3.61-1.68-11.79,4.2-15.57s9-2.1,8.4,5S679.51,492.08,675.1,487.85Z" fill="#0a0c0f"/><path d="M717.05,501.48c-4-2.53-6-10.51,2.16-17.23s10.92-1.89,9.87,2.31S725,506.52,717.05,501.48Z" fill="#0a0c0f"/><path d="M610.41,678.71s-21.47-25.23-12.51-36.63,14.65,4.07,17.9,15.47,12.67,21.16,12.67,21.16Z" fill="#161819"/><path d="M633.93,678.71S624.35,671,617,646.56s-15.46-54.53,0-55.34,13.84,24.41,17.1,40.69,6.19,34.18,13.67,46.8Z" fill="#161819"/><path d="M653.65,550.52c-15.45.67-21.16,9.77-18.72,44.77s9.69,70,16.65,83.42h11.76s3.33-19.94,4.15-61.45S672.37,549.71,653.65,550.52Z" fill="#161819"/><path d="M668.42,678.71s4.76-11,4.76-34.59,2.44-61,16.28-61,5.7,35.81,4.88,55.34-7.06,40.29-7.06,40.29Z" fill="#161819"/><path d="M710.81,678.71s6.32-10.17,3.88-28.08-9.76-16.28-13.83-9-4.13,28.48-9.8,37Z" fill="#161819"/><path d="M700,618.07c0,13,3.26,17.91,9,13s2.45-16.28,14.65-43.14,15.47-45.58,0-47.21S700,592,700,618.07Z" fill="#161819"/><path d="M708.18,500.87c-8.1,2.16-2.44,14.65-1.63,26s4.89,12.21,10.58,9.76S720.39,497.62,708.18,500.87Z" fill="#161819"/><path d="M739.11,548.08c-6.11-3.33-5.7-21.16,8.14-27.67s15.46,8.14,5.7,13.83S748.06,553,739.11,548.08Z" fill="#161819"/><path d="M582,550.52c9-8.51,17.9,3.26,19.53,22s3.26,38.25,4.88,51.27-7.32,11.4-12.21-6.51S567.38,564.36,582,550.52Z" fill="#161819"/><path d="M615.4,583.08c6.31,1.58,9.76-10.58,12.2-27.68s18.72-30.92,6.52-40.69-24.42,14.65-26,33.37S605.63,580.63,615.4,583.08Z" fill="#161819"/><path d="M653.65,512.27c7.18,1.43,8.14,5.69,11.39,15.46s2.45,17.09-8.14,18.72-17.9,2.44-16.27-12.21S649.58,511.45,653.65,512.27Z" fill="#161819"/><path d="M560.86,535.87c3.26-3.26,8.14-1.63,12.21,1.63s7.33,5.7,6.51,9.76-5.69,11.4-13.83,1.63S560.86,535.87,560.86,535.87Z" fill="#161819"/><path d="M608.22,509.46c-4.81-7.39-.33-14.7,5.76-14.28s5.67,6.09,6.09,12.18.63,7.35-2.52,9S611.91,515.13,608.22,509.46Z" fill="#161819"/><path d="M666.73,489.92c-6.15,2.91-4.65,7.18-1.08,16.09s6.9,16.66,13.86,15.42-1.47-11.7-2.31-20.76S671.18,487.82,666.73,489.92Z" fill="#161819"/><path d="M675.1,487.85c-3.77-3.61-1.68-11.79,4.2-15.57s9-2.1,8.4,5S679.51,492.08,675.1,487.85Z" fill="#161819"/><path d="M717.05,501.48c-4-2.53-6-10.51,2.16-17.23s10.92-1.89,9.87,2.31S725,506.52,717.05,501.48Z" fill="#161819"/><polyline points="241.05 529.76 144.96 529.76 144.96 163.1 311.95 163.1 311.95 264.49" fill="none" stroke="#161819" stroke-linecap="round" stroke-linejoin="round" stroke-width="5"/><path d="M673.25,163.1V529.76h-167V448.31a252.21,252.21,0,0,0,11.86-44.7s48,28.49,76.51,7.33-17.9-111.51-33.37-132.67c-7.9-10.82-29-28.65-55-42.31V163.1Z" fill="none" stroke="#161819" stroke-linecap="round" stroke-linejoin="round" stroke-width="5"/><circle cx="228.45" cy="244.13" r="57.72" fill="none" stroke="#161819" stroke-linecap="round" stroke-linejoin="round" stroke-width="5"/><path d="M170.74,247.75s-24.52,25.2-6.88,32.77,64.91-18.91,87-39.07" fill="none" stroke="#161819" stroke-linecap="round" stroke-linejoin="round" stroke-width="5"/><line x1="170.74" y1="323.36" x2="245.78" y2="323.36" fill="none" stroke="#161819" stroke-linecap="round" stroke-linejoin="round" stroke-width="5"/><line x1="170.74" y1="346.43" x2="200.41" y2="346.43" fill="none" stroke="#161819" stroke-linecap="round" stroke-linejoin="round" stroke-width="5"/><line x1="170.74" y1="369.5" x2="228.45" y2="369.5" fill="none" stroke="#161819" stroke-linecap="round" stroke-linejoin="round" stroke-width="5"/><line x1="170.74" y1="461.77" x2="211.75" y2="461.77" fill="none" stroke="#161819" stroke-linecap="round" stroke-linejoin="round" stroke-width="5"/><line x1="170.74" y1="484.84" x2="211.75" y2="484.84" fill="none" stroke="#161819" stroke-linecap="round" stroke-linejoin="round" stroke-width="5"/><line x1="532.44" y1="217.82" x2="640.4" y2="217.82" fill="none" stroke="#161819" stroke-linecap="round" stroke-linejoin="round" stroke-width="5"/><line x1="532.44" y1="240.89" x2="562.12" y2="240.89" fill="none" stroke="#161819" stroke-linecap="round" stroke-linejoin="round" stroke-width="5"/><line x1="583.23" y1="263.96" x2="640.95" y2="263.96" fill="none" stroke="#161819" stroke-linecap="round" stroke-linejoin="round" stroke-width="5"/><line x1="532.44" y1="461.77" x2="573.46" y2="461.77" fill="none" stroke="#161819" stroke-linecap="round" stroke-linejoin="round" stroke-width="5"/><line x1="532.44" y1="484.84" x2="573.46" y2="484.84" fill="none" stroke="#161819" stroke-linecap="round" stroke-linejoin="round" stroke-width="5"/><path d="M265.24,233.66c7.09-7.93,11.1-14.94,9.28-16.79s-9,2.12-17.14,9.19l-16.3-7.13s-6.42-2-.83,3.52l10.27,10.2a62.86,62.86,0,0,0-8.34,11.71l-9.61-.64a.47.47,0,0,0-.38.77l6.46,7.38-.18.48.46-.16,5.82,6.67a.47.47,0,0,0,.82-.28l.65-9.65a62.82,62.82,0,0,0,12.24-8.4c3.09,3.08,7.44,7.4,10.68,10.61,5.58,5.55,3.51-.85,3.51-.85Z" fill="#161819"/><rect x="532.44" y="186.41" width="115.35" height="17.8" fill="#161819"/><path d="M306.53,627.19,241.06,799.13a7.49,7.49,0,0,1-9.57,4.56l-6.05-2.31c.15-.35.3-.71.43-1.08,5.8-15.22-1.3-32-15.85-37.58s-31,2.3-36.83,17.52c-.14.36-.28.73-.4,1.1l-6-2.31a7.49,7.49,0,0,1-4.12-9.76L228.1,597.32a7.5,7.5,0,0,1,9.57-4.55l64.74,24.65A7.5,7.5,0,0,1,306.53,627.19Z" fill="none" stroke="#161819" stroke-linecap="round" stroke-linejoin="round" stroke-width="5"/><ellipse cx="199.53" cy="790.27" rx="19.3" ry="18.46" transform="translate(-610.01 695.53) rotate(-69.16)" fill="#161819"/><rect x="177.59" y="615.68" width="12.67" height="159.67" transform="translate(259.53 -19.93) rotate(20.84)" stroke-width="5" stroke="#161819" stroke-linecap="round" stroke-linejoin="round" fill="none"/><line x1="290.24" y1="563.95" x2="275.53" y2="607.18" fill="none" stroke="#161819" stroke-linecap="round" stroke-linejoin="round" stroke-width="5"/><line x1="263.08" y1="565.07" x2="250.31" y2="597.58" fill="none" stroke="#0a0c0f" stroke-linecap="round" stroke-linejoin="round" stroke-width="5"/><path d="M414,122c.81,11.4.81,22,12.2,26.05,0,0,4.89,4.07-2.44,11.39,0,0,7.33,8.95,4.07,26.86s-26,17.91-26,17.91" fill="none" stroke="#161819" stroke-linecap="round" stroke-linejoin="round" stroke-width="5"/><path d="M398.49,88.63s12.21-.81,17.09,14.65-2.44,20.35-17.09,30.93-26,19.53-22,40.69c0,0,1.62,9-7.33,0s-13.84-6.51-12.21-1.62,5.7,15.46,15.47,13c0,0,8.95,8.14,2.44,22,0,0-47.21-1.62-48.84-48s38.26-43.95,56.16-52.09c6.35-2.88,10.24-6.17,12.62-9.22C399.17,93.38,398.49,88.63,398.49,88.63Z" fill="none" stroke="#161819" stroke-linecap="round" stroke-linejoin="round" stroke-width="5"/><path d="M374.89,208.27s4.88,10.59,0,25.24c0,0,4.07,11.39,26.86,10.58S425.35,218,425.35,218s-5.73-8.49-6.12-18.9" fill="none" stroke="#161819" stroke-linecap="round" stroke-linejoin="round" stroke-width="5"/><path d="M482.32,339.31s-21.16-6.51-37.44-19.53-4.07-25.23,15.47-24.42,26-14.65,17.9-30.11c0,0,22.79-.82,39.88,32.55A202.36,202.36,0,0,0,482.32,339.31Z" fill="none" stroke="#161819" stroke-linecap="round" stroke-linejoin="round" stroke-width="5"/><path d="M245.48,524.07s-8.14,15.46-15.47,27.67,4.07,33.37,24.42,35.81l12.21-31.74s6.51-15.46,17.9-9.77,5.7,17.91,5.7,17.91l-5.7,16.28s9.77,5.7,22-10.58,0-36.63,0-36.63S273.15,537.09,245.48,524.07Z" fill="none" stroke="#161819" stroke-linecap="round" stroke-linejoin="round" stroke-width="5"/><path d="M425.35,218c26.66-4.38,56,4.86,80.92,17.92,26,13.66,47.1,31.49,55,42.31,15.47,21.16,61.86,111.5,33.37,132.67s-76.51-7.33-76.51-7.33a252.21,252.21,0,0,1-11.86,44.7,334.28,334.28,0,0,1-28.83,60.29c-49.65,17.91-125.34,7.33-125.34,7.33-4.88-10.58-13.84-44.76-13.84-44.76-4.07,25.23-21.16,60.22-21.16,60.22s-17.91,5.7-47.24.17-42.29-20.51-42.29-20.51c-7.32-80.58,23.6-187.2,67.56-231.15s81.39-51.28,81.39-51.28" fill="none" stroke="#161819" stroke-linecap="round" stroke-linejoin="round" stroke-width="5"/><path d="M460.35,295.36S450.09,255,437.31,217" fill="none" stroke="#161819" stroke-linecap="round" stroke-linejoin="round" stroke-width="5"/><path d="M481.59,276.09s-8.55-32-29.17-58.27" fill="none" stroke="#161819" stroke-linecap="round" stroke-linejoin="round" stroke-width="5"/><ellipse cx="394.83" cy="155.37" rx="5.29" ry="9.77" transform="translate(-28.26 123.28) rotate(-17.14)" fill="#161819"/><path d="M360.49,516.9,355,629.47s1.63,6.51-4.89,16.28a428.93,428.93,0,0,0-37.84,68c-16.28,37.44-17.09,45.58-17.09,45.58s2.44,14.65,26.85,11.39c0,0,52.91-72.44,78.14-98.48,0,0,11.39-34.18,24.42-84.65s19.52-70.65,19.52-70.65" fill="none" stroke="#161819" stroke-linecap="round" stroke-linejoin="round" stroke-width="5"/><path d="M383.63,690.85s-2.23,46.46,5.91,80.64c0,0,10.58,9.77,25.23-3.25l13-44s2.44-8.14,0-10.58c0,0,19.54-74.07,28.49-106.62s21.16-98.49,21.16-98.49" fill="none" stroke="#161819" stroke-linecap="round" stroke-linejoin="round" stroke-width="5"/><path d="M298.27,765.09l-12.1,15.36s6.51,5.7,15.47,17.9,29,11.81,29,11.81h17.64S357,800.8,348,800s-22-5.9-28.91-29" fill="none" stroke="#161819" stroke-linecap="round" stroke-linejoin="round" stroke-width="5"/><path d="M397,775s-.15,6.25-1.77,18.46-2.85,16.69-2.85,16.69h51.67s13.85-4.48,15.47-15.88c0,0,3.26-5.69-8.95-1.62S415.41,787.9,411,771.15" fill="none" stroke="#161819" stroke-linecap="round" stroke-linejoin="round" stroke-width="5"/><path d="M338.26,471.17s7.08-27.87,10.86-44.68c0,0,.42,58.07,8.82,90.37" fill="none" stroke="#161819" stroke-linecap="round" stroke-linejoin="round" stroke-width="5"/><path d="M518.13,297.8s5.66-7.19,14.31-8.56c0,0,16.22,11.65,24.2,27.61,0,0-22.66-16.63-27.9-20.2,0,0-9.68-1.29-22.47,12.51" fill="none" stroke="#161819" stroke-linecap="round" stroke-linejoin="round" stroke-width="5"/><path d="M482.32,339.31s-5.52,6.11-4.88,14.51,23,36.33,33,43.69c0,0-30.25-10.93-42.43-36.13A30.87,30.87,0,0,1,482.32,339.31Z" fill="none" stroke="#161819" stroke-linecap="round" stroke-linejoin="round" stroke-width="5"/><path d="M398.49,88.63s5.8,23-10.59,26.11-36.89-3.41-53.24,14.63" fill="none" stroke="#161819" stroke-linecap="round" stroke-linejoin="round" stroke-width="5"/><line x1="245.24" y1="768.08" x2="263.74" y2="720.77" fill="none" stroke="#161819" stroke-linecap="round" stroke-linejoin="round" stroke-width="5"/><polyline points="192.54 692.92 185.43 711.08 179.27 726.83 174.03 740.23" fill="none" stroke="#161819" stroke-linecap="round" stroke-linejoin="round" stroke-width="5"/><line x1="209.32" y1="700.66" x2="185.43" y2="711.08" fill="none" stroke="#161819" stroke-linecap="round" stroke-linejoin="round" stroke-width="5"/><line x1="215.83" y1="710.87" x2="179.27" y2="726.83" fill="none" stroke="#161819" stroke-linecap="round" stroke-linejoin="round" stroke-width="5"/><line x1="221.74" y1="721.3" x2="176.38" y2="741.14" fill="none" stroke="#161819" stroke-linecap="round" stroke-linejoin="round" stroke-width="5"/><line x1="227.93" y1="733.16" x2="214.9" y2="738.86" fill="none" stroke="#161819" stroke-linecap="round" stroke-linejoin="round" stroke-width="5"/><line x1="259.78" y1="719.22" x2="250.04" y2="723.48" fill="none" stroke="#161819" stroke-linecap="round" stroke-linejoin="round" stroke-width="5"/><line x1="232.9" y1="744.05" x2="219.56" y2="749.89" fill="none" stroke="#161819" stroke-linecap="round" stroke-linejoin="round" stroke-width="5"/><polyline points="237.7 755.02 237.69 755.02 225.5 760.36" fill="none" stroke="#161819" stroke-linecap="round" stroke-linejoin="round" stroke-width="5"/><polyline points="243.15 767.26 237.69 755.02 232.81 744.09 227.93 733.16 213.66 701.18" fill="none" stroke="#161819" stroke-linecap="round" stroke-linejoin="round" stroke-width="5"/><line x1="250.38" y1="754.11" x2="229.53" y2="707.39" fill="none" stroke="#161819" stroke-linecap="round" stroke-linejoin="round" stroke-width="5"/><line x1="256.51" y1="738.45" x2="245.42" y2="713.61" fill="none" stroke="#161819" stroke-linecap="round" stroke-linejoin="round" stroke-width="5"/><line x1="192.13" y1="747.31" x2="187.46" y2="736.95" fill="none" stroke="#161819" stroke-linecap="round" stroke-linejoin="round" stroke-width="5"/><line x1="208.07" y1="753.54" x2="198.42" y2="732.15" fill="none" stroke="#161819" stroke-linecap="round" stroke-linejoin="round" stroke-width="5"/><polyline points="224.02 759.78 219.56 749.89 209.39 727.35" fill="none" stroke="#161819" stroke-linecap="round" stroke-linejoin="round" stroke-width="5"/><line x1="195.42" y1="694.05" x2="192.75" y2="695.35" fill="none" stroke="#161819" stroke-linecap="round" stroke-linejoin="round" stroke-width="5"/><rect x="193.49" y="692.27" width="50.8" height="76.46" transform="translate(-541.15 668.23) rotate(-68.64)" stroke-width="5" stroke="#161819" stroke-linecap="round" stroke-linejoin="round" fill="none"/><line x1="271.77" y1="700" x2="290.28" y2="652.7" fill="none" stroke="#161819" stroke-linecap="round" stroke-linejoin="round" stroke-width="5"/><polyline points="219.07 624.84 211.97 643 205.81 658.75 200.57 672.15" fill="none" stroke="#161819" stroke-linecap="round" stroke-linejoin="round" stroke-width="5"/><line x1="235.86" y1="632.58" x2="211.97" y2="643" fill="none" stroke="#161819" stroke-linecap="round" stroke-linejoin="round" stroke-width="5"/><line x1="242.37" y1="642.8" x2="205.81" y2="658.75" fill="none" stroke="#161819" stroke-linecap="round" stroke-linejoin="round" stroke-width="5"/><line x1="248.27" y1="653.22" x2="202.92" y2="673.07" fill="none" stroke="#161819" stroke-linecap="round" stroke-linejoin="round" stroke-width="5"/><line x1="254.46" y1="665.08" x2="241.44" y2="670.78" fill="none" stroke="#161819" stroke-linecap="round" stroke-linejoin="round" stroke-width="5"/><line x1="286.31" y1="651.14" x2="276.57" y2="655.4" fill="none" stroke="#161819" stroke-linecap="round" stroke-linejoin="round" stroke-width="5"/><line x1="259.44" y1="675.97" x2="246.1" y2="681.81" fill="none" stroke="#161819" stroke-linecap="round" stroke-linejoin="round" stroke-width="5"/><polyline points="264.24 686.94 264.23 686.95 252.04 692.28" fill="none" stroke="#161819" stroke-linecap="round" stroke-linejoin="round" stroke-width="5"/><polyline points="269.68 699.18 264.23 686.95 259.34 676.01 254.46 665.08 240.19 633.1" fill="none" stroke="#161819" stroke-linecap="round" stroke-linejoin="round" stroke-width="5"/><line x1="276.92" y1="686.03" x2="256.07" y2="639.31" fill="none" stroke="#161819" stroke-linecap="round" stroke-linejoin="round" stroke-width="5"/><line x1="283.04" y1="670.37" x2="271.96" y2="645.53" fill="none" stroke="#161819" stroke-linecap="round" stroke-linejoin="round" stroke-width="5"/><line x1="218.67" y1="679.23" x2="213.99" y2="668.87" fill="none" stroke="#161819" stroke-linecap="round" stroke-linejoin="round" stroke-width="5"/><line x1="234.61" y1="685.46" x2="224.96" y2="664.07" fill="none" stroke="#161819" stroke-linecap="round" stroke-linejoin="round" stroke-width="5"/><polyline points="250.56 691.7 246.1 681.81 235.93 659.27" fill="none" stroke="#161819" stroke-linecap="round" stroke-linejoin="round" stroke-width="5"/><line x1="221.95" y1="625.97" x2="219.29" y2="627.27" fill="none" stroke="#161819" stroke-linecap="round" stroke-linejoin="round" stroke-width="5"/><rect x="220.03" y="624.19" width="50.8" height="76.46" transform="translate(-460.88 649.66) rotate(-68.64)" stroke-width="5" stroke="#161819" stroke-linecap="round" stroke-linejoin="round" fill="none"/></svg>