<svg id="Layer_1" data-name="Layer 1" xmlns="http://www.w3.org/2000/svg" viewBox="0 0 900 900"><title>Big Guy Illustrations Pack - Scene 3</title><path d="M345.25,214.07s4.1,17.64-2.83,28.35,39.06,12.92,48.52,2.52,3.78-14.18,3.78-14.18S379.59,215,383.5,199.12c0,0,7.44-8.05,9-18.14s4.64-20.07,3.9-25-6.55-.89-10.42-8.08-4.79-21.16-4.79-21.16-16.27,13.52-29.89,20.65-12.67,26.43-12.67,26.43-20.48-22.17-23.95-9.55,13.86,30.26,13.86,30.26l15.74,3.15Z" fill="#f4f2ed"/><path d="M555.08,221s-18.61-21.16,3.46-40.2c0,0,5.72.9,7.12,8.42s13.25,22,28.28,21.69l11.07-49s3-1.88,5.69,5.24,13.69,39-15,57.14C595.72,224.25,580,209.34,555.08,221Z" fill="#f4f2ed"/><path d="M356.11,519.61S378.48,496.68,382,462a47.06,47.06,0,0,0,25.39,7.75c15,.12,14.76,7.1,5,12.52s-16.42,6.47-17,12.53,6.24,20.14,8,24.79,8.66,18.81,4,22.33-11.34,9.47-29,4.79S356.11,519.61,356.11,519.61Z" fill="#f4f2ed"/><path d="M378.44,810.79l7.65-28.35L398.6,782s.42,9.54,12.6,13.87,22.06,6.66,22.06,6.66v3l-16.37,5.32Z" fill="#f4f2ed"/><path d="M303,777.81s.71,13.36,4.31,18.58S318.55,806.14,323,806a47.58,47.58,0,0,1,5.69,0l-1.79,4.25s-15.37,5.5-26.33,1.86S286,801.61,286,801.61L275.1,786.84l10.54-11.91S290.21,785,303,777.81Z" fill="#f4f2ed"/><path d="M579.45,725.2s-9.88,6.61-18.49-1.37-.84-17.81-.84-17.81h2s3.28,10,8.95,13.61,10.3,3,10.3,3Z" fill="#f4f2ed"/><path d="M583.78,724s-8.77,6.61-12.54,21.37-1.88,24.21,5.06,34.29,15.12,24.79,15.12,24.79-5.18,7.53,1.82,8.06,14.14.76,14.35-2.39-6.93-8.41-6.93-8.41L604,788.94s13.61,3.82,19.94,3.11,15.47-2.38,15.47-2.38,2.28,7.78,4.83,10.8a63.47,63.47,0,0,0,5.55,5.7s-4.11,4.29,0,5.57,15-1.21,15-1.21-2-4.71-2.94-6.83S663,795,663,795l2-6.49a29.23,29.23,0,0,0,7.66,3c3.7.72,14.65.09,14.65.09l5.79-2.26,7.59,14.8v6.89l7.11,2.15,9.08-3.76-2.36-7.9,8.4-35.7s15.25,1.14,25.59-7.2,14.56-23,14.56-23l1.23-6.54s-5.4.63-13.2-2.41S735,713.83,732.39,705.19s-8.65-24.46-13.48-25.18c0,0-4.83,5.8-5.25,10s-1.51,12.19-1.51,12.19a37.82,37.82,0,0,0-14.67-.53c-8.72,1.22-15.56,2.2-15.56,2.2s-6.37-16.25-13.46-19.67a6.41,6.41,0,0,0-2.9,3.08c-.84,2.1-4.9,20.08-4.9,20.08l.49,8.7a11.4,11.4,0,0,1-6.3,3.57c-4.41,1-17.7,3.82-26.88,2.1S593.37,712.49,583.78,724Z" fill="#f4f2ed"/><path d="M407.42,541.94,449,539V508.75s-2.77-29.44-33.12-30.37c0,0-2.24,4.43-12.67,8.53s-9.62,13.58-6.73,18.27S410.71,527.34,407.42,541.94Z" fill="#f4f2ed"/><path d="M345.25,239.58s-55.55,16.6-86.8,50.89-28.74,45.91-33.56,66.77-7.95,81.25,19,114.07,63.86,53.28,101.92,58.38c0,0,42.68-29.76,35.54-83.53,0,0-43.15-14.73-40.06-57.57l2.86,3.27s19.93,40,54.19,47.58c0,0,4.6,15.12-2,26.88,0,0,.12,2.28,11,3.45s9.47,6.63,9.47,6.63,30,8,32.12,32.35l2.1,3.36s15.81.66,22.82-4.29c0,0,29.69-77.62,33.89-113.33s-6.44-78.06-6.44-78.06S533.67,350,519.9,400.6c0,0,12.88,7.32,26.87,7.95s20.19-6.66,24.65-14.06S590,365.21,601.84,328s11.42-80.09.5-101.09c0,0-22.26-22.27-50-5.88,0,0,7.56,47.05-20.58,71,0,0-38.06-73.72-135.39-60,0,0-7.57,17-25.57,17.06S345.25,239.58,345.25,239.58Z" fill="#161819"/><path d="M370.46,97.49s9.52,12.46,2.07,22-25,20.44-27.28,34.11A179.44,179.44,0,0,0,343,179.84s-1,2.65-5.57-2-5.63-11-10.67-9.1-1.46,10.28.73,13.5,6.2,10.44,14,7.29c0,0,9,13.44,3.78,24.58,0,0-34.79,5.63-48.9-25.33s2.87-55.11,16.12-61.1,35.74-8.36,44.53-15.79A78.46,78.46,0,0,0,370.46,97.49Z" fill="#161819"/><path d="M661.15,717.11s-6.79,3.25-18.93,3.38-34.43-2.15-44.51-3-13.92,5.07-13.92,5.07-18.37-1.22-23-20.78c0,0-8.13,16.78-.72,23.4s19.42,1.63,19.82,1.48c-.31.44-10.91,15.22-9.71,30,1.21,15-1.56,17.24,18.25,43.85l3,3.93s-2.25,3.85-.5,6.3l-.22,1.63H417.76l2.33-2.17s10.86-4.09,15.48-7.45c0,0-37.39-4.65-37-20.81l4-1.81.51-3.37s3.46-22.48,6.9-27.95,5.27-10.18,6.75-20.08S422.06,704,422.06,704l44.57-166.44,194.17,170Z" fill="#161819"/><path d="M562,182l-3.8-1.46,2.52-4.39,9.9-44.84,38.44,12.6-15.12,67L587,211s-4.59-1-10.8-7Z" fill="#f4f2ed"/><path d="M458.35,795.86c4.72,5.92,6.39,14,6.82,16.56H455.7c-1.84-2.36-6.28-8.71-5.53-14.23C451.11,791.25,452.69,788.73,458.35,795.86Z" fill="#e0b146"/><path d="M491.76,742.1c-.58,28.38-3.24,64.1-3.71,70.32H473.57c-17.26-12.91-20.68-57.74-11.75-58.66,9.14-1,8.82,4.1,11,22.37a248.1,248.1,0,0,0,5.08,29.62s.63-23-2.52-44.3-5.35-49.91,5.68-54.31S492.38,710.91,491.76,742.1Z" fill="#e0b146"/><path d="M511.29,769.83c0,17.67-4.5,38.3-5.48,42.59H491.54c.34-3.11,1.48-13.8,3-30.43,1.89-20,3.47-37.68,11-38S511.29,750,511.29,769.83Z" fill="#e0b146"/><path d="M520.6,812.42H509.1c4.64-11.9,3.29-33.07,10.06-30.43C525.34,784.41,521.51,807.45,520.6,812.42Z" fill="#e0b146"/><path d="M411.41,746.51l-8.82,33.68c-16.59,6.36-22.68-2.8-22.68-2.8-7.77-19.53-7-81-7-81l-1.22-3.66-69.86,86.53c-18.58,4.15-18.38-9.4-18.38-9.4-2.52-43.41,38.65-107.56,44.44-119.17s9.39-29.51,9.39-29.51l11.21-93.83,7.32-9.75s2,23.53,22.52,29.16,29-4.79,29-4.79L449,539V512.25l24.37-2.66L420.65,709.72l-3.76,12.87S417.09,741.47,411.41,746.51Z" fill="#e0b146"/><path d="M341.17,392.71s-.85,37,40.21,53.45L382,462l13.17,6s9.45-17.34,1.18-29c0,0-34.68-9.88-52.2-47.16Z" fill="#e0b146"/><path d="M507.82,394.49l12.08,6.11a112.87,112.87,0,0,0,.9-43.13c-4.16-23.37-15-35.55-15-35.55l-1.9,3.55A197.64,197.64,0,0,1,507.82,394.49Z" fill="#e0b146"/><path d="M351.31,147.39s12.89-5.62,19.16-11.36,22-18.28,4.91-33.87l-.82,3.62s3.21,12.52-9.26,23.1S351.91,141.41,351.31,147.39Z" fill="#e0b146"/><path d="M370.46,97.49s22.05,16.39,5.67,33.4-31.51,12.6-32.77,30.25,0,20.79,0,20.79-3.78.63-9.45-9.45-12-4.41-9.45,3.15,10.08,18.9,17,13.86c0,0,9.45,12.6,3.78,24.58,0,0-32.76,5.67-48.52-24.58s1.89-56.71,17-62.38S359.75,118.92,370.46,97.49Z" fill="none" stroke="#161819" stroke-linecap="round" stroke-linejoin="round" stroke-width="5"/><path d="M381.44,122.37s-1.53,16.08,2.56,24.27,11.35,6.93,11.35,6.93,3.15,3.15-1.58,10.72-2.83,18.27-2.83,18.27-4.1,24.89-28,29.3" fill="none" stroke="#161819" stroke-linecap="round" stroke-linejoin="round" stroke-width="5"/><path d="M345.25,214.07a52.58,52.58,0,0,1,0,25.51s29.47,25.84,51.13-7.56c0,0-12.75-7.52-12.88-32.9" fill="none" stroke="#161819" stroke-linecap="round" stroke-linejoin="round" stroke-width="5"/><path d="M393.77,164.29s-17-1.26-20.16,18c0,0,9,2.52,22.77,0C396.38,182.24,402.28,166.18,393.77,164.29Z" fill="#161819"/><ellipse cx="363.21" cy="160.51" rx="5.67" ry="8.51" transform="translate(-20.66 58.88) rotate(-9.01)" fill="#161819"/><path d="M396.38,468c6.17-19.74,0-29,0-29-32.48-7.14-54.91-52.09-54.91-52.09-4.62,43.69,39.91,59.23,39.91,59.23,7.14,50-36.13,84-36.13,84C163.78,491.11,235.19,320.56,235.19,320.56c34-59.66,110.06-81,110.06-81" fill="none" stroke="#161819" stroke-linecap="round" stroke-linejoin="round" stroke-width="5"/><path d="M382,462s8.59,6.82,24.13,7.66,10.93,8.82,6.3,12.61-23.77,8.4-16.08,22.68,13.56,28.56,11,37-45.92,14.58-51.31-22.33" fill="none" stroke="#161819" stroke-linecap="round" stroke-linejoin="round" stroke-width="5"/><path d="M396.38,232s88.34-18.58,135.39,60c0,0,24.36-16.8,20.58-71,0,0,21-16.39,50,5.88,0,0,31.51,69.31-32.77,170.55,0,0-5,13.86-24.36,10.92s-37.39-13.86-37.39-13.86,5.88-41.17-7.14-80.24c0,0,31.41,34.68,19.22,86.35" fill="none" stroke="#161819" stroke-linecap="round" stroke-linejoin="round" stroke-width="5"/><path d="M507.82,394.49A455.32,455.32,0,0,1,489.76,462c-12.18,33.71-16.38,47.57-16.38,47.57s-8.83,3.36-22.27,2.52" fill="none" stroke="#161819" stroke-linecap="round" stroke-linejoin="round" stroke-width="5"/><path d="M407.42,541.94,449,539V508.75s-4.9-29.23-33.12-30.37" fill="none" stroke="#161819" stroke-linecap="round" stroke-linejoin="round" stroke-width="5"/><path d="M449,515.47l-15.18,2.76a4,4,0,0,0-3.3,3.95v3.49a4,4,0,0,0,4.47,4l14-1.6" fill="#161819"/><path d="M552.35,221s-10.08-17-3.15-30.67,13.86-10.92,16-2.73,12.4,22.89,28.78,23.31l15.12-67-38.44-12.6-10.71,48.52" fill="none" stroke="#161819" stroke-linecap="round" stroke-linejoin="round" stroke-width="5"/><path d="M598.7,224.25s12.88-10.39,15.82-31.4-8.9-33.67-8.9-33.67" fill="none" stroke="#161819" stroke-linecap="round" stroke-linejoin="round" stroke-width="5"/><ellipse cx="574.48" cy="196" rx="6.02" ry="3.73" transform="translate(255.28 712.29) rotate(-77.11)" fill="#161819"/><path d="M348.54,527.32s-7.07,77.42-12.74,101.36-20.16,42.85-36.55,77.51-15.75,63.64-15.75,63.64S286,785,303.66,778.65c0,0,54.19-67.42,62.39-78.76s7.56-6.31,12.6-23.32,49.57-136.1,49.57-136.1" fill="none" stroke="#161819" stroke-linecap="round" stroke-linejoin="round" stroke-width="5"/><path d="M373,691.09s-1.3,64.88,6.89,86.3c0,0,8.82,8.11,22.68,2.8,0,0,3.78-27.37,8.82-33.68s5.28-15.12,5.48-21.42S463.5,555,473.38,509.59" fill="none" stroke="#161819" stroke-linecap="round" stroke-linejoin="round" stroke-width="5"/><path d="M285.64,774.93a52.94,52.94,0,0,1-10.54,11.91s9.66,13.94,15.54,20.17,18.49,6.22,18.49,6.22,16.38,1.34,18.9-4.54-2.52,0-13.44-4.62-10.93-25.42-10.93-25.42" fill="none" stroke="#161819" stroke-linecap="round" stroke-linejoin="round" stroke-width="5"/><path d="M386.5,780.93l-8.06,29.86h38.45s16.16-2.1,18.68-8c0,0-8.4-.46-24.37-6.95S398.6,782,398.6,782" fill="none" stroke="#161819" stroke-linecap="round" stroke-linejoin="round" stroke-width="5"/><path d="M216.89,804.9c-1.81,4.49-2.64,6.57-3,7.52H201.16c1-3.93,5.39-19,12-23.06C220.67,784.74,220.26,796.58,216.89,804.9Z" fill="#161819"/><path d="M205.55,794.14c-5.63,6.9-9.19,15.62-10.2,18.28H186c.3-1.28.93-3.81,1.84-7.09h0a183.82,183.82,0,0,1,8-23.33c6.3-14.47,13-19.09,19.74-14.89S212.27,785.91,205.55,794.14Z" fill="#161819"/><path d="M187.86,805.33a62.53,62.53,0,0,0,1.11,7.09H177.64c-.28-1.48-.88-4.64-1.55-9-2-13.18-4.74-37.54-2.46-61.48,3.35-35.28,14.7-28.56,15.53-17.22.75,10.08-3.8,56.51-1.3,80.65Z" fill="#161819"/><path d="M181,810.79v1.63H165.76c-2.16-3-8.47-13.14-10.2-31.5-2.1-22.22,8-21,10.92-15.31,2.48,4.79,2.32,23.46,9.61,37.76A37.06,37.06,0,0,0,181,810.79Z" fill="#161819"/><path d="M165.67,812.42h-16c-1.77-3.61-7.63-16.71-3.31-22.93C151.21,782.42,156.51,801.38,165.67,812.42Z" fill="#161819"/><path d="M144.76,777.18c4.65,1.61,6.6-13.44,2.82-30.25s-6.72-25.62-14.7-23.1S134,773.43,144.76,777.18Z" fill="#161819"/><path d="M164,750.35c6.51-.61,4.62-15.6,2.52-44.16s-1-42-11.2-41.59-7.91,24.36-5.7,44.53S154.86,751.21,164,750.35Z" fill="#161819"/><path d="M181,704.51c6.44.78,10.26-10.52,11.94-39.92s8.82-58.8,0-59.22-13,10.92-17.65,43.27S174.11,703.67,181,704.51Z" fill="#161819"/><path d="M197.27,767.94c9.79-.72,18.78-41.94,23.82-60.46s-4.2-25.66-15.12-9.27S188.59,768.57,197.27,767.94Z" fill="#161819"/><path d="M214.37,759.12c4.42,5.22,15.12-6.72,23.95-23.53s11.34-28.07,5-31.05-13.45,9.63-18.49,21.81S209.75,753.66,214.37,759.12Z" fill="#161819"/><path d="M230,695.69c6.2,2.94,10.4-3.79,20.48-20.17s13-27.11,3.78-29.73-15.54,14.61-21.84,31S230,695.69,230,695.69Z" fill="#161819"/><path d="M682.16,704.51s21.84-6.72,31.5,0c0,0-4.62-13.87,5.88-25.21,0,0,8,7.56,11.76,22.27s14.29,27.3,32.35,27.72c0,0,1.26,35.29-40.75,36.55s-59.65-37-61.75-48.73,2.94-27.31,6.3-33.61C667.45,683.5,676.69,689,682.16,704.51Z" fill="none" stroke="#161819" stroke-linecap="round" stroke-linejoin="round" stroke-width="5"/><path d="M722.9,765.84c-.84,10.92-8.4,35.7-8.4,35.7,6.3,8.41.84,11.69-8.4,11.69s-4.62-7.48-4.62-7.48l-8.4-16.39c-14.29,7.56-28.1-.84-28.1-.84l-4.32,13.86s11.41,10.85-2.87,10.85-8-7.06-8-7.06a28.07,28.07,0,0,1-10.5-17.23c-19.75,7.14-35.29,0-35.29,0l-3.78,13c9.24,3.37,8.82,11.27-2.52,11.27s-6.3-8.74-6.3-8.74-6.3-7.57-16.38-24.3-2.95-38.3-2.95-38.3c5-14.7,13.87-26.88,30.25-23.94s45.79,4.62,58.81-.84l-.35-9.63S451.64,523.6,449,522.58" fill="none" stroke="#161819" stroke-linecap="round" stroke-linejoin="round" stroke-width="5"/><path d="M583.78,722.59s-20.09.82-22.19-22.28c0,0-11.34,18.9,0,26S583.78,722.59,583.78,722.59Z" fill="none" stroke="#161819" stroke-linecap="round" stroke-linejoin="round" stroke-width="5"/><path d="M743.5,761.45a10.13,10.13,0,0,1-5.89-9.47" fill="none" stroke="#161819" stroke-linecap="round" stroke-linejoin="round" stroke-width="5"/><ellipse cx="764.28" cy="727.72" rx="5.88" ry="8.09" fill="#161819"/><ellipse cx="717.02" cy="725.2" rx="5.88" ry="8.09" fill="#0a0c0f"/><ellipse cx="698.96" cy="726.67" rx="5.88" ry="8.09" transform="translate(-84.59 92.13) rotate(-7.11)" fill="#0a0c0f"/><path d="M370.46,97.49s10.5,14.29-2.1,28.15-22.74,18.3-24.07,30.35" fill="none" stroke="#161819" stroke-linecap="round" stroke-linejoin="round" stroke-width="5"/><path d="M416.15,486.91s20.26,1.26,23.62,26.88" fill="none" stroke="#161819" stroke-linecap="round" stroke-linejoin="round" stroke-width="2"/><polyline points="564.4 185.34 574.48 139.5 601.5 148.74 586.94 209.81" fill="none" stroke="#161819" stroke-linecap="round" stroke-linejoin="round" stroke-width="2"/><path d="M720,704.19s-3.32-4.4-.27-14.39" fill="none" stroke="#161819" stroke-linecap="round" stroke-linejoin="round" stroke-width="2"/><path d="M667.44,713.33a29.32,29.32,0,0,1,2.32-19.54" fill="none" stroke="#161819" stroke-linecap="round" stroke-linejoin="round" stroke-width="2"/></svg>