<svg id="Layer_1" data-name="Layer 1" xmlns="http://www.w3.org/2000/svg" viewBox="0 0 900 900"><title>Big Guy Illustrations Pack - Scene 7</title><path d="M410.22,252.86s10.39-11.3,12.13-22.19-17.49-39.24-17.49-39.24l13.86-23,44.9-7.25,23.63-6.09S487.12,165.78,486,172s-1.33,12.7,1.36,13.79,5.75,4.71,2.82,7.12a94.18,94.18,0,0,0-7.39,7.38L477,209.39s-.61,19.47-20.14,21.39l1.49,4.44S454,247.82,466.91,256c0,0-10,18.59-35.56,12.92S410.22,252.86,410.22,252.86Z" fill="#f4f2ed"/><path d="M270.87,469.48s-16.22,32.31-6.33,53.56,22.28,15.66,29,10.27,1.53-26,8.88-26.54,15.17,5.54,17.22-4.62-14.34-38.91-14.34-38.91Z" fill="#f4f2ed"/><path d="M607.55,394.33s11.34-18.21,21-29.69,16.81,7.22,16.81,7.22l49.57,9.44s-13,36.55-34.45,42.43-47.59,10.4-47.59,10.4Z" fill="#f4f2ed"/><path d="M266.38,646.86s35.34-35.23,96.47-39.91c0,0,22.31,20.52,43.4,28.71l-31.71,28.49-6.25,1.65-97.2,3.74S260.44,659.1,266.38,646.86Z" fill="#f4f2ed"/><path d="M445.61,625.58l42.64,53.14S483.84,707.36,486,726s10.19,60.67,10.19,60.67,7.14,10.49,23.1,0l18.72-84.27s8.1-21.84,5.91-32-14.74-39.63-31-67.32Z" fill="#f4f2ed"/><path d="M437,436.78c5,16.15,25.7,51.51,78.68,51.47l3.4-12s-64.7-19.74-78.76-47.05Z" fill="#e0b146"/><path d="M320.5,461.09s6.86-25.18,18.2-34.84l-6.16-16.82S306.93,442.58,320.5,461.09Z" fill="#e0b146"/><path d="M447.94,173c-.17.4,4.74-3.87,22.18-8.47s27.48-17.7,15.66-37l-2.57,6.76s2.57,8.43-10.69,16S453,160.87,447.94,173Z" fill="#e0b146"/><path d="M736.93,156.14c18,10.88,39.07,54.19,54.61,115.1s29.83,111.32,25.63,142-30.9,91.59-30.9,91.59,20.75-8.52,41.16-54.47S830,341,818.74,291.86s-49.81-127.92-83.43-140.64C733.62,150.58,736.93,156.14,736.93,156.14Z" fill="#e0b146"/><path d="M161.39,319.22s8.36,11.25,11.66,30.16,5.4,64.69,13.8,94.93,16.29,56.64,20,89.13,0,48.22,0,48.22,22.36-21,12.56-80.07-16.61-103.75-21.06-119.07S181.3,324.35,161.39,319.22Z" fill="#e0b146"/><path d="M380.87,547.85s-21,44.35-24.68,52.18c0,0,24.07,28.86,61.89,38.65l9.54-10.4s39.43-5.51,85.32-25.22l-23.29-73.23-100.12-12-8.66,6.72.68,16Z" fill="#e0b146"/><path d="M497.37,787.62a11.18,11.18,0,0,0,11.5,3.28c7-2.12,10.8-3.28,10.8-3.28s1.37,12.58,17,15.49,29.14,2.2,25.68,5.83-5.81,4.85-6.67,5.11-58.32,1.12-58.32,1.12l-5.15-7.8Z" fill="#e0b146"/><path d="M244.11,647c6.52-3,22.27-.13,22.27-.13s-1.56,11.82,4.71,22.68c0,0-5.17.86-7.85,12s2.58,26.83,2.58,26.83-5.69,2.35-11.06-6.93S241.61,682,240,672,236.48,650.55,244.11,647Z" fill="#e0b146"/><path d="M262.09,463.51s-11.69-72.7,25.21-137.73,62.06-82,125.28-75.36c0,0,11,19.94,27.77,15.84s21.54-3.47,23.27-10.8c0,0,41.84,6,52.9,23.43s25,60.66,37,82.38a42.43,42.43,0,0,0,53,19.48s18.33,27.6,8.82,60.91c0,0-23.6,43.12-96.26,36.65,0,0-68.56-13.67-89.83-61.43,0,0,10.13,57.55,86.43,71.37,0,0-10.13,26.8-20.48,40.79,0,0-66.68,12.49-122.66-4.62,0,0-32.93-68.4-40.33-117.2,0,0-20.77,24.12-12.51,56l-.09,4.47S289.45,484.17,262.09,463.51Z" fill="#161819"/><path d="M481.58,121.56s5.93,13.54,0,24.27-18.43,7.64-31.51,21.16-15.75,30.82-15.75,30.82-7.06,3.24-6.6-4.93-5.27-14.25-11.44-8.9,1.8,22,1.8,22a9.52,9.52,0,0,0,8.05.63s3.61,18.16-.65,23.41a48.24,48.24,0,0,1-42.12-27.12c-14-27.88,4.78-53.76,23.75-67.49s44.59-3,58-2.69S481.58,121.56,481.58,121.56Z" fill="#161819"/><path d="M598.94,381.72s16.92-71.49,32.93-115.45,37-109.5,86.79-117.06,73.72,103.34,83.81,150,26.8,100.15,15.12,143.66-34.92,67.3-44.7,75.76-68.73,64.07-128.59,53.07S581,508.47,584.59,468.1l33.25-39.91s13.64,2.88,31.39-6.35,41.89-33.42,34.39-37.4-18.63,9.08-37.48.5,1-21-10.35-20.3-14.19,13.53-17.68,18.45-6.25,8.17-6.25,8.17l-5.31-10.51Z" fill="#161819"/><path d="M144.08,610.12s38.66,8.31,59.41-23.72-4.73-96.3-14.36-148.6-7.54-115.94-35.37-122.24c0,0-16.49-7.94-47,43.29S57.52,485.44,56.05,500.73,47.52,556.2,79.8,583,144.08,610.12,144.08,610.12Z" fill="#161819"/><path d="M115.84,815c-.69-4.43-1.75-11.45-2.3-15.8-.85-6.72,6.72-8.4,9.66,0,2.34,6.69,5.21,10.63,5.87,15.8Z" fill="#161819"/><path d="M150.74,815H136.12c-2.25-3.9-5.19-10.72-6.92-21.49-3.06-19.09-5-25.39,5-25s7.51,14,9.18,26.56c1,7.36,4.3,14.42,6.86,19Z" fill="#161819"/><path d="M128,664.3c-5.5-1.43-7.56,2.94-9.24,15.55s-.21,19.53,6.93,17.64,3.36-8.82,4.83-17.85S132.86,665.56,128,664.3Z" fill="#161819"/><path d="M98.62,683.84c2.71-3.38,5-1.26,11.14,4.2s7.77,8,4.62,12.39-8,4.19-11.34-2.63S96.1,687,98.62,683.84Z" fill="#161819"/><path d="M90.22,701.06c-4-1.44-6.51,4.62-5.46,13.86s3.78,13,9.45,12.19-.21-9.25,0-16.18S92.53,701.9,90.22,701.06Z" fill="#161819"/><path d="M84.52,733c2.8-2.25,5.7-2.1,11.16,3.57s9,12.6,2.94,16.38-6.93-5.25-11.55-9.87S83.51,733.81,84.52,733Z" fill="#161819"/><path d="M76.57,761.76c1.94-3.53,6.72-.63,12.81,2.94S99,771.42,99,777.1s-7.19,6.72-14.52,0S74.26,766,76.57,761.76Z" fill="#161819"/><path d="M110.6,790.33c5.69-.4,6.93-6.09,6.51-14.28s-4-20.25-8.82-22.21-6.3,2.88-5.25,10.65S101.57,791,110.6,790.33Z" fill="#161819"/><path d="M126.72,763.65c-4.65,0-7.25-10.71-5.38-19.53s5.25-10.29,7.86-8.19,2,9.24,2.5,16S131.29,763.65,126.72,763.65Z" fill="#161819"/><path d="M117.18,703.39c4.61-3.07,9.59,1.77,10.85,10.64s-1,17.09-6.69,17.6-4.06-5.57-5.41-12.3S112.43,706.57,117.18,703.39Z" fill="#161819"/><path d="M167.1,645c4.32-1.83,5.88,6.93,7.14,15.12s5.67,18.8-3.57,22.11S164,674,162.69,666,160.17,647.92,167.1,645Z" fill="#161819"/><path d="M159.54,724.8c.68-10.91,7.14-41.38,18.69-42s5.67,21.21,3.15,28.35a198,198,0,0,0-6.72,26.05C173.4,744.33,158.28,745,159.54,724.8Z" fill="#161819"/><path d="M167,815H150.2c0-.28,0-.58,0-.91.14-5.08.29-15.18-.13-29.8-.64-21.85-1.45-40.31,9.37-41.5s9.43,16.08,9.59,27.21C169.2,780.81,165.61,778.69,167,815Z" fill="#161819"/><path d="M192.09,767.22c-.17,8.27-4.56,36.82-6.27,47.73H169.9c-.16-7.49-.17-23.36,2.4-30.3,3.41-9.23,3.2-13.43,5.72-21S192.3,756.93,192.09,767.22Z" fill="#161819"/><path d="M206.59,803.56A65.81,65.81,0,0,0,202.72,815H189.31c2-7.15,6-21.29,8-27.14,2.74-8,7.77-15.33,15.55-12.82S210.57,794.53,206.59,803.56Z" fill="#161819"/><path d="M205.74,815a30.35,30.35,0,0,1,5-10.13c5.25-6.93,13.86-2.94,13.65,2.52a34.24,34.24,0,0,1-1.35,7.61Z" fill="#161819"/><path d="M217.3,771.88c-7.41-.57-2.31-13.07,1.47-22.51s4-22.68,13.44-23.52,6.51,13.23,2.73,21.63-5.88,10.71-7.77,15.33S223.18,772.33,217.3,771.88Z" fill="#161819"/><path d="M192.09,756.93c-6.47-.5-4.41-8.4,1.68-20.79S204.06,713,210.58,708s10.92-.21,6.93,10.71-12.26,21.43-15.58,28.15S197.56,757.35,192.09,756.93Z" fill="#161819"/><path d="M209.32,668.3c4.51-1,5.07,8.82,5.47,14.49s.2,23.31-7.37,24.36-3.29-9.66-3.85-20.16S203.64,669.56,209.32,668.3Z" fill="#161819"/><path d="M260.56,780.26c-4.31,12-7,27.35-8.19,34.69H233.84c.45-5.07,1.94-14.68,6.77-29,7.56-22.47,7.77-37,16.59-38.43S266.45,763.89,260.56,780.26Z" fill="#161819"/><path d="M284.51,771c-2.52,13.24-6.51,25.12-5.46,35.35a36.41,36.41,0,0,0,1.8,8.6h-24a115.85,115.85,0,0,1,3.88-15.59c4.82-15.76,8.18-30.46,12-38.65S287,757.77,284.51,771Z" fill="#161819"/><path d="M247.7,713.17a17.68,17.68,0,0,0-4.83,19.23c3.15,8.44,9.53,13.69,13.59,8.44S255.06,707.35,247.7,713.17Z" fill="#161819"/><path d="M291.23,676.07c4.43-.71,5.25,10.08,0,21S282.16,723.3,274,727.74s-4-11.35,0-21.75S280.73,677.75,291.23,676.07Z" fill="#161819"/><path d="M282.1,755c-10.13-2.06-.53-18.48,5.14-31.29s9.24-27.73,21.42-22.69-7.14,27.1-12.81,39.28S288.3,756.3,282.1,755Z" fill="#161819"/><path d="M305.52,795c-.82,7.12.21,15.13,1,19.91h-21c-1.31-4.41-1.93-12.93,2.29-28.61C295.22,759,296.06,754,302.15,741s8-19.53,16-17.43,3.15,20.37-2.94,36.75S306.77,784,305.52,795Z" fill="#161819"/><path d="M337.44,788c-1.36,7.87-.76,20.49-.32,26.93H316.06c-.53-7.82-.83-25.06,4.79-40.46,7.56-20.71,10.29-19.6,15.12-15.85S339.33,777.1,337.44,788Z" fill="#161819"/><path d="M364.92,815H343c-.85-5.73-1.56-17.14,2.62-31.63,6.09-21.14,13.65-16.52,15.13-10.43S358.66,796,363.27,804A14.78,14.78,0,0,1,364.92,815Z" fill="#161819"/><path d="M329.28,679c4.8-.15,8.37,8,4.8,18.06s-7.14,21.63-12.81,21.63-5.88-5.79-4.41-18.64S322.38,679.22,329.28,679Z" fill="#161819"/><path d="M341.22,694.34c-3.7-1.14-3.38-10.51,1.14-15.33s11-2.37,10.62,2.49-4,4.72-5.67,9.1S344,695.18,341.22,694.34Z" fill="#161819"/><path d="M339.22,753.36c-7,1-7-24.78-2-38.65s8.4-15.22,12.81-12.44,5,14.19,1.47,26.23S346.26,752.31,339.22,753.36Z" fill="#161819"/><path d="M355.92,763c6.26-.79,6.3-9.66,4.2-17.85S351.93,737.4,350,742,344.37,764.49,355.92,763Z" fill="#161819"/><path d="M387.42,815H368.94a48.79,48.79,0,0,1,.84-19.91c3.36-12.27,9.67-13.85,12.4-7.18C384.51,793.57,383.93,807.52,387.42,815Z" fill="#161819"/><path d="M375.25,778.78c4.6-.6,4.41-5,5.46-18.7s-.42-44.11-10.5-41.38-3.83,22.48-1.92,33.82S368.74,779.62,375.25,778.78Z" fill="#161819"/><path d="M385.33,780.25c-3.41.23-5.25-6.31,0-18.91s7.14-25.2,17.43-25.41,8.61,15.75,0,25.2S391.42,779.83,385.33,780.25Z" fill="#161819"/><path d="M384.7,718.7c-4.62.68-6.57-4.2-3.71-15.54s7.49-35.71,19.46-35.92,2.1,20.8-1.68,30.25S394.57,717.27,384.7,718.7Z" fill="#161819"/><path d="M412.94,815H395.73a41.26,41.26,0,0,0,4.72-13.46c2.52-13,5.88-18.72,12.4-15.15C417.83,789.07,414.68,806.82,412.94,815Z" fill="#161819"/><path d="M412.21,778.81c1.31,4.87,7.77,1.65,16.18-12.85s13.86-32.76,4.83-33.39S406.54,757.63,412.21,778.81Z" fill="#161819"/><path d="M441,815h-19c-1.29-8.09-3-25.22,4.79-29.66,10.28-5.89,8.68,12,11.16,21.42A39.58,39.58,0,0,0,441,815Z" fill="#161819"/><path d="M460.24,815H446.35c-1.66-3.26-3.54-8.76-4.1-17.48-1.05-16.59-7.49-33.86-4.38-46.54s14.25-12.42,14.67,2.46-1.47,35.11,4,48.1C459.16,807.78,460,812.13,460.24,815Z" fill="#161819"/><path d="M418.72,729.84c5.07,3,12-2.1,6.73-9.67s-8.83-16-15.76-13.44S406.54,722.49,418.72,729.84Z" fill="#161819"/><path d="M435.53,728.5c7.82,1.82,7.14-6.64,8.4-15.68s12.18-33.37,1.68-36.43-11.78,14.9-13.24,25.88S428,726.75,435.53,728.5Z" fill="#161819"/><path d="M479.24,815h-14.6a21.9,21.9,0,0,0-.13-11.18c-2.31-9.66-5.92-23.15-4.22-52.84s17.67-19.83,14.52-5.34-3.15,38.65,1.46,51.25A47.53,47.53,0,0,1,479.24,815Z" fill="#161819"/><path d="M460.29,728.75c4.16,2.83,8.21-1.64,8.42-4.79s-5.46-9.32-9.87-17.68S442.62,716.74,460.29,728.75Z" fill="#161819"/><path d="M759.4,815c2.5-5.93,7.35-17,11.56-24.2,6-10.19,15.75-19,21.42-9.87,4.81,7.72-.77,25-6.23,34.07Z" fill="#161819"/><path d="M802.15,748.43c-7.45,6.38-16.51,17.64-7.94,26.77s25.27-2.83,27.79-16.38S815.38,737.08,802.15,748.43Z" fill="#161819"/><path d="M804.67,737.08c8,.38,13.23-11.34,12.6-22.05s-2.83-21.74-12.6-18.27S791.12,736.45,804.67,737.08Z" fill="#161819"/><path d="M817.33,689.82c-.21,9.06,3.09,18.28,15.7,9.14s15.75-31.19,9.45-38.12S817.78,669.37,817.33,689.82Z" fill="#161819"/><path d="M754.64,815H733.47c-.83-13.05-2.49-51.61,6.93-54.21,11.34-3.12,12.92,15.73,12.29,30A111.29,111.29,0,0,0,754.64,815Z" fill="#161819"/><path d="M744.16,730.15c-3.91,8.47-.61,28.67,13.57,26.78s18.27-49.46,6.93-50.41S748.24,721.33,744.16,730.15Z" fill="#161819"/><path d="M790.73,696.11c6.9,2.53,10.48-7.55,7-21.72s-6-24.58-15.75-21.43S775.21,690.42,790.73,696.11Z" fill="#161819"/><path d="M738.82,652.4c4-8.71,16.39,3.08,20.17,12.85s7.84,21.74-2.07,24.89S733.78,663.49,738.82,652.4Z" fill="#161819"/><path d="M753.63,629.33c5.1-10.27,9.94-18.9,17.57-16.07s1,15.76-2.76,24.58-7.88,12.95-12.92,11.52S748.7,639.27,753.63,629.33Z" fill="#161819"/><path d="M724.41,815H704.25c-1.21-8.79-4.3-30-8-45.1-4.72-19.54-7.25-39.07,0-44.74s16.7,12,19.85,31.94C718.69,773.25,722.91,803.93,724.41,815Z" fill="#161819"/><path d="M699.33,815H673a90.82,90.82,0,0,1-9.19-28.72c-2.84-19.85-11-51,1.58-52.93S681.8,755,686.21,771.53C689.62,784.28,696.42,805.83,699.33,815Z" fill="#161819"/><path d="M700.7,712.19c4.42,5.82,11-5.2,9.45-21.82s1-44-9.45-44S687.78,695.18,700.7,712.19Z" fill="#161819"/><path d="M682.43,731.77c8.61-1.12,6.61-18.95,3.15-37.22s-8.51-39.07-18.9-33.4-.63,26.55,1.57,43.05S671.91,733.13,682.43,731.77Z" fill="#161819"/><path d="M658.6,729.65c8.4-2.89-3.27-22.5-11.77-35.42s-11.66-15.75-18-11.65-3.47,18.26,7.56,31.18S652.73,731.67,658.6,729.65Z" fill="#161819"/><path d="M664.45,815H646.92c-2.23-7-7.89-21.54-19-32.17-15.13-14.47-29.94-30.26-20.8-35s16.07,1.9,33.08,20.8C653.41,783.25,661.49,805.64,664.45,815Z" fill="#161819"/><path d="M611.43,815A64.28,64.28,0,0,0,610.28,795c-2.84-12,3.15-15.74,12-8.18,6.53,5.6,12.72,20.66,15.49,28.09Z" fill="#161819"/><path d="M600.53,815H582.1c4.07-13.2-.58-24.27-1.44-39.51-.94-16.77,8.2-13.47,16.39.78C603.29,787.09,601.66,806.4,600.53,815Z" fill="#161819"/><path d="M630.13,749.37c-9.46-.63-14.79-9.83-22.28-19.72s-10.12-21.47-3.53-24.19,13.54,8,21.25,20.6S640.55,750.06,630.13,749.37Z" fill="#161819"/><path d="M618.2,683.84c7.11-.84,7.2-10.71-3.19-18.59s-20.48-5.67-22.37,1.57S607.53,685.1,618.2,683.84Z" fill="#161819"/><path d="M658.6,661.78c-8.82,1.7-12.69-2.79-23.57-12.42s-10.54-26,0-22.86,14.63,20.29,21.88,25.9S661.62,661.2,658.6,661.78Z" fill="#161819"/><path d="M676.44,652.4c7-.39,7.88-8.26,8.51-23.7s-1.58-39.06-12-34-.63,20.16-1.58,35S669.51,652.78,676.44,652.4Z" fill="#161819"/><path d="M561.15,815h-4.43l3.45-4.35a95.28,95.28,0,0,0,.33-32.2c-2.84-17.9-12.29-28.09-5-32.07s17.33,11.23,18.9,34.55A91,91,0,0,1,570.54,815Z" fill="#161819"/><path d="M567.12,746.33c7.48,10.41,19.53,13.37,27.09,10.73s3.23-15.64-3.11-22.18C580.6,724,553.31,727.1,567.12,746.33Z" fill="#161819"/><path d="M532.1,801.85s.68-7.1,3.2-21.6,4.88-26.13,12.28-23.51,0,18.78,0,30.12a189,189,0,0,0,.87,19.08A20.78,20.78,0,0,1,532.1,801.85Z" fill="#161819"/><path d="M487.25,155.09s1.26,6.17-1.26,16.88-1.26,13.87,3.78,13.87c0,0,1.89,4.41-2.52,9.45S477.4,206,477.4,206s-.86,26.46-27.33,24.57" fill="none" stroke="#161819" stroke-linecap="round" stroke-linejoin="round" stroke-width="5"/><path d="M422.35,230.67c9.56,2,3.78-24,3.78-24-6.3,3.15-10.08-3.78-12-14.45s10.71-14.54,12.6-3.19,7.56,8.82,7.56,8.82c.63-12.61,8.19-26.47,29-31.51s25.75-8.72,26.86-21.42-8.59-23.32-8.59-23.32-1.26,13.87-22.06,10.72-51-9.46-72.46,21.42S383.91,222.58,422.35,230.67Z" fill="none" stroke="#161819" stroke-linecap="round" stroke-linejoin="round" stroke-width="5"/><path d="M422.35,230.67s-1.89,12.19-9.77,19.75c0,0,6.3,14.49,25.84,15.76s25.2-10.72,25.2-10.72-9.4-14-4.7-25.42" fill="none" stroke="#161819" stroke-linecap="round" stroke-linejoin="round" stroke-width="5"/><path d="M412.58,250.42s-44.63-11.66-85,19.85-79.39,133.59-65.53,193.24c0,0,20.16,21,57.55,4.2,0,0-.65-13.86,16.27-40.33" fill="none" stroke="#161819" stroke-linecap="round" stroke-linejoin="round" stroke-width="5"/><path d="M463.62,255.46s47.15,1,64,40.86,22.68,99.55,79,84.43c0,0,17.65,29,8.82,60.91,0,0-30.24,44.11-93.67,37s-92.42-61.75-92.42-61.75,17,61.25,86.43,71.37" fill="none" stroke="#161819" stroke-linecap="round" stroke-linejoin="round" stroke-width="5"/><path d="M519.11,478.31s-8.76,29.31-23.88,50.73c0,0-75.61,12.18-122.66-4.62,0,0-34-68.47-40.33-117.2,0,0-22.68,34-12.6,60.49" fill="none" stroke="#161819" stroke-linecap="round" stroke-linejoin="round" stroke-width="5"/><path d="M611.48,391.13c8.09-6.18,13.14-24.66,22.8-26.34s-1.26,11.34,8.4,18.06,18.9,5.88,37.81,1.68-22,47.49-62.89,44.54" fill="none" stroke="#161819" stroke-linecap="round" stroke-linejoin="round" stroke-width="5"/><path d="M308.89,471.68s12,20,10.75,30.47-7.56,1.26-17.22,4.62,1.26,34-21.43,30.67-24.45-40.56-10.12-68" fill="none" stroke="#161819" stroke-linecap="round" stroke-linejoin="round" stroke-width="5"/><path d="M381.05,527.06s-1.76,13.74,5.8,39S410,630.7,410,630.7s53-6.63,103-27.64c0,0-17.52-50.17-23.29-73.23" fill="none" stroke="#161819" stroke-linecap="round" stroke-linejoin="round" stroke-width="5"/><path d="M381.87,545.93S364.59,579,356.19,600c0,0,23.81,29,61.89,38.65l9.54-10.4" fill="none" stroke="#161819" stroke-linecap="round" stroke-linejoin="round" stroke-width="5"/><path d="M445.61,625.58s13.65,17.85,42.64,53.14c0,0-6.3,26.88,0,65.95s8,42,8,42,9.66,9.66,23.1,0c0,0,21.43-94.94,24.37-111.32s-19.26-51.31-30.76-72.3" fill="none" stroke="#161819" stroke-linecap="round" stroke-linejoin="round" stroke-width="5"/><path d="M358,607h0s-17.64,2.1-47.89,13.44-43.69,26.47-43.69,26.47-3.6,13,4.71,22.68c0,0,39.4-2.1,69.65-2.52s27.3,3.36,42.84-10.08,22.67-21.28,22.67-21.28" fill="none" stroke="#161819" stroke-linecap="round" stroke-linejoin="round" stroke-width="5"/><path d="M266.38,646.86s-10.92,1.26-20.16,0-10.5,20.16-2.52,34,10.92,28.57,22.68,29a64.23,64.23,0,0,1-3.78-17.64c-.84-10.51,2.28-19.33,8.49-22.69" fill="none" stroke="#161819" stroke-linecap="round" stroke-linejoin="round" stroke-width="5"/><path d="M496.23,786.68s-2.1,11.76-3.78,18.06,6.3,10.22,6.3,10.22h45.13s14.28,2,18.48-6c0,0,5.93-2.94-12.18-2.94-9.84,0-26.65-6.3-30.85-19.32" fill="none" stroke="#161819" stroke-linecap="round" stroke-linejoin="round" stroke-width="5"/><path d="M153.76,315.56c25.44,3.65,43.45,43.9,53.81,113.63s24.92,110.9,1.57,148.92S155,616.46,117.47,603.06,35.52,564.8,62.93,469.48,127.4,311.78,153.76,315.56Z" fill="none" stroke="#161819" stroke-linecap="round" stroke-linejoin="round" stroke-width="5"/><path d="M584.74,467.32s-13.84,69.41,33.1,94.93,100.88,3.34,145.27-35.19,88.55-71.61,68.36-179.36-62.72-207-112.81-198.49-71.81,68-93.09,137-27.35,96.25-27.35,96.25" fill="none" stroke="#161819" stroke-linecap="round" stroke-linejoin="round" stroke-width="5"/><line x1="724.96" y1="554.32" x2="724.96" y2="814.96" fill="none" stroke="#161819" stroke-miterlimit="10" stroke-width="5"/><line x1="144.08" y1="610.12" x2="144.08" y2="809.71" fill="none" stroke="#161819" stroke-linecap="round" stroke-linejoin="round" stroke-width="5"/><ellipse cx="458.34" cy="181.35" rx="5.28" ry="8.35" fill="#161819"/><path d="M481.58,121.56s6.25,18.86-2.15,27.14S449.5,158.36,438.1,184" fill="none" stroke="#161819" stroke-linecap="round" stroke-linejoin="round" stroke-width="5"/><path d="M461,207.5l24.4,1.89s6.62-13.55-4.25-15.28S462.07,202.61,461,207.5Z" fill="#161819"/></svg>