<svg id="Layer_1" data-name="Layer 1" xmlns="http://www.w3.org/2000/svg" viewBox="0 0 900 900"><title>Big Guy Illustrations Pack - Scene 6</title><rect x="497" y="186" width="57" height="115" fill="#f4f2ed"/><rect x="606" y="186" width="57" height="156" fill="#f4f2ed"/><path d="M319.74,314.41s30.61-15.22,73.62-15.05a371.94,371.94,0,0,1,76.24,8.07V336.5s-63.47,51.34-151.9,46.67v-17s-5.68-13.34-33.61-12.46c0,0-15.23-1.31-15.64,10.27l-1.2,33.45s-12.2,3.67-14.47,12.59c0,0-8.38-7.55-16.36-8,0,0-16.76,6-22,14.53h4s15.3-6.65,20.59-2.77S251.4,424,251.4,424s43.83,47.75,52.65,69.18c0,0-15.49,36.95-63.61,44.1s-93.5-27-94.76-44.58c0,0-13.57-28.87-.48-65.65s29.4-57.67,66-80.84S270.44,326,270.44,326s12.59,11.84,26.05,8.2S322.36,328.63,319.74,314.41Z" fill="#161819"/><path d="M254.9,599.47s128.54,16.38,141.78-6.93l21-57.21s-85.28,44.34-159.93,23.57l2.34-26.66-19.62,5S243.56,574.26,254.9,599.47Z" fill="#161819"/><path d="M327.37,190.05s5.4,12.79-1.1,23.88S301,233.07,291.94,246.07s-7.46,23.58-7.46,23.58-6.33.13-7.19-8.32-7.49-9.31-10.54-3.08S271.11,276,271.11,276s4.32,7.55,10.05,1.93c0,0,.49,16.53-4.39,22.14,0,0-36-4.22-46.52-35.84s14-51.89,14-51.89,10.66-12.66,46.89-13.89S327.37,190.05,327.37,190.05Z" fill="#161819"/><rect x="620.37" y="505.04" width="132.95" height="53.86" fill="#161819"/><path d="M292.77,247.29l31.35-17.39s27.28-16.33,5.38-39.85c0,0,4,21.61-6.59,30.44S292.77,247.29,292.77,247.29Z" fill="#e0b146"/><rect x="674.72" y="513.65" width="35.56" height="24.24" fill="#e0b146"/><circle cx="650.61" cy="531.97" r="16.38" fill="#e0b146"/><path d="M420.85,537.29,707.08,473l28.49-119.31L523.28,269s5.93,26.15,5.72,43.48c0,0,14.07,7.25,17.43,20.69s8.41,31.36-17.43,37.52l-11.55,92.28s-36.52,43-96.6,70.84Z" fill="#e0b146"/><polygon points="591.97 296.38 591.97 170.99 677.61 170.99 677.61 329.15 662.96 322.69 662.96 185.64 605.5 185.64 605.5 301.78 591.97 296.38" fill="#e0b146"/><polygon points="483.03 278.9 483.03 170.99 568.67 170.99 568.67 329.15 554.02 322.69 554.02 185.64 496.57 185.64 496.57 268.97 483.03 278.9" fill="#e0b146"/><path d="M245.66,659.09s2.05-15,35.89-24.31c0,0,15.48,13.48,43.1,23.66Z" fill="#161819"/><path d="M267.06,602.2s-1,16.66,9.17,26.92,30.6,22.55,48.42,29.32,42.16,14.92,42.16,14.92l-2.61,6.76s-11.84,43.26-6.59,69.31c0,0,8.74,12.21,32.13,12.61L404,740.83s6.74,13.29,12.21,14.27,19.32,3.4,20.16-.62,11.81-49.51,8.43-87.35c0,0,3.89-8.23,3.47-12.21s11.47-8.4-60.37-55.45c0,0-27.91,4.77-36.38,5.59-21,2.05-84.46-2.86-84.46-2.86Z" fill="#e0b146"/><path d="M278.27,526.05s19.05-6.82,37.12-33.07c0,0-8.58-23.64-24-36.71l-8.74,4.15,21.43,32.77s-16.22,25.59-30.1,32.32Z" fill="#e0b146"/><path d="M214.39,416.56s9.84-12.43,22-14.53a33,33,0,0,1,16.36,8l-1.38,14-14-11S220.08,413,214.39,416.56Z" fill="#e0b146"/><path d="M529,312.45s-.1-31.82-5.72-43.48-24.95-1.29-32.6,4.32-26.27,20.26-19.33,33.17l-1.75,4.87V336s-62.85,53-154.21,47.18l2.31-1.72-.38-10.78s3.74-13.19-20.83-16.33-27.81,3.16-28,9.62-1.2,51-1.2,51,1.85,11.51,12.08,9.64S305.39,413,305.39,413s11.78-5.49,12.62,4.31-6.26,24.4-23.34,36.95l-3.31,2s15.36,15.42,23.32,34.89l.71,1.82s-20.17,32.73-55.3,39l-2.37,26.93s54,19.31,112.25-4.72,72.92-23.6,147.48-91.24c0,0,12.81-63.36,11.55-92.28,0,0-16.64-1.64-22.18-18.42s-3-28.45,9.58-30.65,12.6.31,12.6.31Z" fill="#e0b146"/><rect x="525.85" y="558.9" width="227.47" height="30.88" fill="#f4f2ed"/><rect x="427.55" y="682.01" width="227.47" height="30.88" transform="translate(-156.16 1238.74) rotate(-90)" fill="#f4f2ed"/><rect x="624.15" y="682.01" width="227.47" height="30.88" transform="translate(40.43 1435.34) rotate(-90)" fill="#f4f2ed"/><rect x="680.44" y="543.38" width="55.45" height="15.52" fill="#f4f2ed"/><polygon points="714.57 543.39 714.05 473 733.79 473 726.54 542.76 714.57 543.39" fill="#f4f2ed"/><polygon points="707.09 473 733.79 473 760.49 359.64 735.57 353.69 707.09 473" fill="#f4f2ed"/><path d="M506.44,300.22c10.18-11.9,23.62-27,13.95-34.77s-28.68,6.54-37.92,14-15.54,25.74-9.55,30.15S496.48,311.86,506.44,300.22Z" fill="#f4f2ed"/><path d="M288.38,376.41s15.07,6.61,25.24-1.74-1.17-16.59-14.61-21-34,1.92-30.56,10.27C273,375,280.27,375.15,288.38,376.41Z" fill="#f4f2ed"/><path d="M507.4,326.59c5.06-6.91,15.09-7.1,21.6-4.69l.09-8.51s9.21,3.23,15.06,14.85,9.8,30.64-6.67,39.51-29.13-1.51-31.22-17.22S505.12,329.71,507.4,326.59Z" fill="#f4f2ed"/><path d="M249.85,422.55s2-24.3,17.4-24.3c0,0-2.3,18.87,2,23s16.3,2.81,27.85-2.42,15.75-10.54,20.89-1.48c0,0-3.6,33.25-36.3,42.26Z" fill="#f4f2ed"/><path d="M270.44,326s8.56-8.47,6.91-26.71c0,0,4.56-8,3-20.54,0,0-5.43,4.44-9.92-5.46s-6.51-17.74,1.26-18.64,4.89,9.39,6.86,13a5.1,5.1,0,0,0,5.85,2.4s3.56-21,8.77-24.28,30.2-10.92,42.49-25.4c0,0,1,12.87-2.38,24.72s3.74,17.7,6.26,16.24,1-.41,1-.41l-6.67,16s-2.1,21.09-19.74,26.71l1.62,1.44,1.79,9.81s11.79,9.31-7.78,15.8S279.26,332.93,270.44,326Z" fill="#f4f2ed"/><path d="M413.69,754.48s.07,7.52-1.54,12.58-5,12.78,1.54,16.06,31.54,2.45,31.54,2.45,28.07-2.9,28.51-13.21c0,0-9.85,2.7-15.52,1s-16.37-4.74-21.43-10.73-3.77-6.88-3.77-6.88S421.67,754.9,413.69,754.48Z" fill="#f4f2ed"/><path d="M384.28,762.88s-.21,10.87,2.94,14.7,5.12,8,14.2,10.19,9.45,4.41,9.45,4.41-9.51,6.94-28,4.68-32.49-20.6-32.49-20.6l2.53-3.85s7.29-8.48,8.84-18.88A38.13,38.13,0,0,0,384.28,762.88Z" fill="#f4f2ed"/><path d="M364.2,680.12H238.64s-18.61-12.65.93-21h88.75L365.59,673Z" fill="#f4f2ed"/><path d="M267.06,602.2s-4.6,25,30.69,43.9,92,34,92,34" fill="none" stroke="#161819" stroke-linecap="round" stroke-linejoin="round" stroke-width="5"/><path d="M357.61,604.51s41.59,25.2,64.27,39.7,22.69,4.41,23.32,35.91-8.83,74.36-8.83,74.36-6.3,4.41-22.68,0c0,0-21.87-21.12-27.95-75.46" fill="none" stroke="#161819" stroke-linecap="round" stroke-linejoin="round" stroke-width="5"/><path d="M387.22,599.47c22.45,12.82,42.59,29.72,54.29,40.33a20.52,20.52,0,0,1,5,23.46q-.85,1.93-1.74,3.87" fill="none" stroke="#161819" stroke-linecap="round" stroke-linejoin="round" stroke-width="5"/><path d="M404,740.83C395.56,754,389.74,762,389.74,762c-15.56.43-24.89-5.67-29.21-9.52a21.68,21.68,0,0,1-2.92-3.09c-3.15-51.66,9.2-76.07,9.2-76.07" fill="none" stroke="#161819" stroke-linecap="round" stroke-linejoin="round" stroke-width="5"/><path d="M413.69,754.48s.63,7.56-3.15,17.64,6.93,13.23,23.31,13.86,30.67-4.2,37.39-8.82,1.68-6.72-5.46-4.62-31.91-5.82-32.76-16.77" fill="none" stroke="#161819" stroke-linecap="round" stroke-linejoin="round" stroke-width="5"/><path d="M360.53,752.52s-1.45,15.4-10.69,23c0,0,9.24,15.12,27.3,20.16,0,0,13.58,4.92,32.64-2.52,0,0,5.59-3.36-4.49-4.62s-21.43-7.51-21-26.44" fill="none" stroke="#161819" stroke-linecap="round" stroke-linejoin="round" stroke-width="5"/><rect x="525.85" y="558.9" width="30.88" height="250.66" stroke-width="5" stroke="#161819" stroke-linecap="round" stroke-linejoin="round" fill="none"/><rect x="624.15" y="460.6" width="30.88" height="227.47" transform="translate(65.25 1213.93) rotate(-90)" stroke-width="5" stroke="#161819" stroke-linecap="round" stroke-linejoin="round" fill="none"/><rect x="722.45" y="558.9" width="30.88" height="250.66" stroke-width="5" stroke="#161819" stroke-linecap="round" stroke-linejoin="round" fill="none"/><path d="M538.26,551.92a19,19,0,0,0-2.33,7H601a17.67,17.67,0,0,0-11.75-17.79s-17.79-7.88-36.81-1.17A25.65,25.65,0,0,0,538.26,551.92Zm43.56,2.26c-.31-5.52-6.3-8.51-6.3-8.51,11.18.63,12.6,8.51,12.6,8.51Z" fill="#161819"/><rect x="680.44" y="543.38" width="55.45" height="15.53" stroke-width="5" stroke="#161819" stroke-linecap="round" stroke-linejoin="round" fill="none"/><polygon points="733.79 473 714.05 473 714.05 543.38 726.65 543.38 733.79 473" fill="none" stroke="#161819" stroke-linecap="round" stroke-linejoin="round" stroke-width="5"/><polygon points="734.11 472.92 707.09 473 735.57 353.69 760.49 359.64 734.11 472.92" fill="none" stroke="#161819" stroke-linecap="round" stroke-linejoin="round" stroke-width="5"/><line x1="707.08" y1="473" x2="416.21" y2="538.33" fill="none" stroke="#161819" stroke-linecap="round" stroke-linejoin="round" stroke-width="5"/><line x1="735.57" y1="353.69" x2="523.28" y2="268.97" fill="none" stroke="#161819" stroke-linecap="round" stroke-linejoin="round" stroke-width="5"/><polyline points="730.54 505.04 753.32 505.04 753.32 558.91 735.89 558.91 722.44 558.91 680.44 558.91 620.37 558.91 620.37 505.04 714.04 505.04" fill="none" stroke="#161819" stroke-linecap="round" stroke-linejoin="round" stroke-width="5"/><circle cx="650.61" cy="531.97" r="16.38" fill="none" stroke="#161819" stroke-linecap="round" stroke-linejoin="round" stroke-width="5"/><rect x="674.72" y="513.65" width="11.85" height="11.85" stroke-width="5" stroke="#161819" stroke-linecap="round" stroke-linejoin="round" fill="none"/><rect x="686.58" y="513.65" width="11.85" height="11.85" stroke-width="5" stroke="#161819" stroke-linecap="round" stroke-linejoin="round" fill="none"/><rect x="698.43" y="513.65" width="11.85" height="11.85" stroke-width="5" stroke="#161819" stroke-linecap="round" stroke-linejoin="round" fill="none"/><rect x="674.72" y="526.05" width="11.85" height="11.85" stroke-width="5" stroke="#161819" stroke-linecap="round" stroke-linejoin="round" fill="none"/><rect x="686.58" y="526.05" width="11.85" height="11.85" stroke-width="5" stroke="#161819" stroke-linecap="round" stroke-linejoin="round" fill="none"/><rect x="698.43" y="526.05" width="11.85" height="11.85" stroke-width="5" stroke="#161819" stroke-linecap="round" stroke-linejoin="round" fill="none"/><path d="M326.27,659.09H241.52a10.71,10.71,0,0,0,0,21.42h120.2" fill="none" stroke="#161819" stroke-linecap="round" stroke-linejoin="round" stroke-width="5"/><path d="M244.12,659.09c5.54-11.13,19.47-20.1,37.43-24.31" fill="none" stroke="#161819" stroke-linecap="round" stroke-linejoin="round" stroke-width="5"/><polygon points="320.49 783.12 300.33 783.12 302.85 680.51 317.97 680.51 320.49 783.12" fill="#161819"/><polygon points="315.39 779.25 309.72 782.3 255.96 811.19 204.66 811.19 307.7 764.95 309.72 768.71 315.39 779.25" fill="#161819"/><polygon points="414.78 811.19 363.48 811.19 309.72 782.3 304.06 779.25 309.72 768.71 311.74 764.95 414.78 811.19" fill="#161819"/><path d="M328.13,189.81s15.22,12.32,8,27.44S311,235.47,296.59,243.41,284.41,270,284.41,270s-5.89.05-7.36-10.14-11-5.73-11.11,2.68,8.29,22.4,15,15.66c0,0,.83,13.64-4.74,22.07,0,0-30.06-4-43.9-31.83s6-55.18,21.1-61.82,27-8,50.57-7.79S328.13,189.81,328.13,189.81Z" fill="none" stroke="#161819" stroke-linecap="round" stroke-linejoin="round" stroke-width="5"/><path d="M335.54,218.35a86.57,86.57,0,0,1-1.92,25.26c-3,12.22,1.26,20.28,6.92,17.27a64.28,64.28,0,0,1-6.67,16,18.59,18.59,0,0,0-2.7,9.41s-7.52,24.47-35.67,15.2" fill="none" stroke="#161819" stroke-linecap="round" stroke-linejoin="round" stroke-width="5"/><path d="M319,255.05a17,17,0,0,1-.49,3.11l-3-2.67a.48.48,0,0,0-.79.47l1.64,6.72a4.89,4.89,0,0,1-4.07,2.18c-3.33-.23-5.72-5-5.34-10.62s3.39-10,6.72-9.8S319.37,249.42,319,255.05Z" fill="#161819"/><path d="M337.82,268.25s-22.64-8.85-29.13,14.31l28,4.27S342.3,278.08,337.82,268.25Z" fill="#161819"/><path d="M277.16,300.85s2.1,15.49-6.72,25.15c0,0,13,13.44,34.87,6.3s12.39-16.8,12.39-16.8a88,88,0,0,1-2.17-12.6" fill="none" stroke="#161819" stroke-linecap="round" stroke-linejoin="round" stroke-width="5"/><path d="M249.85,422.55s2.32-21.36,17.4-25.14v18.06s.25,15.13,20.42,6.73,19.32-13.93,27.72-8.86-.85,34.48-32.77,47.08" fill="none" stroke="#161819" stroke-linecap="round" stroke-linejoin="round" stroke-width="5"/><path d="M270.44,326s-29.4-3.36-77.71,32.76S124.26,467.33,152.82,505,264.14,560,304.05,493.19c0,0-36.55-60.49-65.11-79.4,0,0-10.92-2.94-28.15,7.14,0,0,6.3-10.5,25.63-18.9,0,0,4.57,0,16.36,8" fill="none" stroke="#161819" stroke-linecap="round" stroke-linejoin="round" stroke-width="5"/><path d="M240.44,537.29s4.38,42,14.46,62.18c0,0,33.89,5,64.84,5s66.22,1.89,76.94-12l19.53-54.21" fill="none" stroke="#161819" stroke-linecap="round" stroke-linejoin="round" stroke-width="5"/><path d="M529,371.37a798,798,0,0,1-12.6,93.25s-39.7,47.89-122.24,81S257.72,558.9,257.72,558.9L260.09,532s33.24-4.34,55.3-39c0,0-8.37-20.49-24-36.71" fill="none" stroke="#161819" stroke-linecap="round" stroke-linejoin="round" stroke-width="5"/><path d="M319,315.42s49.4-30.17,150.57-8V336.5s-52.13,41.17-123.33,46.21S268.45,364,268.45,364l-1.2,33.45" fill="none" stroke="#161819" stroke-linecap="round" stroke-linejoin="round" stroke-width="5"/><path d="M469.6,336.5s41.76-30,51.84-56.5-23.94-14.91-36.55-2.93c-13.13,12.48-19.74,26.87-12,32.54,10.59,7.73,29.09-3.54,42.21-17.57" fill="none" stroke="#161819" stroke-linecap="round" stroke-linejoin="round" stroke-width="5"/><path d="M529,312.45s11.34,3.24,17.64,21.94,0,25,0,25-8.19,16.7-25.83,9.46-21.11-40-9.77-45.69,18-1.26,18-1.26.63-31.38-5.72-52.93" fill="none" stroke="#161819" stroke-linecap="round" stroke-linejoin="round" stroke-width="5"/><path d="M268.45,364s8.29,15.81,32.66,14.13,21-19.82-2.1-24.4S268.73,356.16,268.45,364Z" fill="none" stroke="#161819" stroke-linecap="round" stroke-linejoin="round" stroke-width="5"/><line x1="318.33" y1="368" x2="317.7" y2="383.17" fill="none" stroke="#161819" stroke-linecap="round" stroke-linejoin="round" stroke-width="5"/><polyline points="482.47 279.46 482.47 170.99 569.23 170.99 569.23 287.31 569.23 375.59 528.68 375.59" fill="none" stroke="#161819" stroke-linecap="round" stroke-linejoin="round" stroke-width="5"/><polyline points="554.58 281.46 554.58 185.64 497.12 185.64 497.12 268.97" fill="none" stroke="#161819" stroke-linecap="round" stroke-linejoin="round" stroke-width="5"/><polyline points="662.96 324.71 662.96 287.31 662.96 185.64 605.5 185.64 605.5 300.22" fill="none" stroke="#161819" stroke-linecap="round" stroke-linejoin="round" stroke-width="5"/><rect x="590.86" y="170.99" width="86.75" height="204.6" stroke-width="5" stroke="#161819" stroke-linecap="round" stroke-linejoin="round" fill="none"/><path d="M328.13,189.81s7,17.93-4.2,29.23-20.36,12.05-31.69,27.51" fill="none" stroke="#161819" stroke-linecap="round" stroke-linejoin="round" stroke-width="5"/><polyline points="590.75 296.38 677.61 331.69 677.61 375.59 590.75 375.59 590.75 296.38" fill="#161819"/><path d="M530.58,376.41l38.65-.82L569,286.93l-43.16-18-1.65,4.32s3.86,24.67,4.8,39.16c0,0,13.32,6.12,18.16,23.54s2.45,18.35-.45,23.71-10.32,12.47-17.71,11Z" fill="#161819"/><line x1="556.73" y1="589.78" x2="525.85" y2="558.9" fill="none" stroke="#161819" stroke-linecap="round" stroke-linejoin="round" stroke-width="5"/><line x1="556.73" y1="558.9" x2="525.85" y2="589.78" fill="none" stroke="#161819" stroke-linecap="round" stroke-linejoin="round" stroke-width="5"/><line x1="753.32" y1="589.78" x2="722.45" y2="558.9" fill="none" stroke="#161819" stroke-linecap="round" stroke-linejoin="round" stroke-width="5"/><line x1="753.32" y1="558.9" x2="722.45" y2="589.78" fill="none" stroke="#161819" stroke-linecap="round" stroke-linejoin="round" stroke-width="5"/></svg>