<svg id="Layer_1" data-name="Layer 1" xmlns="http://www.w3.org/2000/svg" xmlns:xlink="http://www.w3.org/1999/xlink" viewBox="0 0 900 900"><defs><clipPath id="clip-path"><path d="M400.26,466.05,386.13,486.1l-275.49,9.26c4.5-142.36,99.46-261.88,229.29-303Z" fill="none"/></clipPath></defs><title>Big Guy Illustrations Pack - Scene 4</title><path d="M689.19,472.58s-34.7-11.93-8-45.87l3,2.09s-7.12,12.62-3.86,23.05c2.85,9.09,9.25,17.82,9.25,17.82Z" fill="#e0b146"/><path d="M510.64,661.9l10.67,7.76s19.87-44.88,25.43-54.21C546.74,615.45,537.29,615.55,510.64,661.9Z" fill="#e0b146"/><path d="M597,725.89s3.15-18.07,14.81-23.74l56.37-10.92s1.65,5-17.51,12.17-30.56,11.15-30.56,11.15l-10.68,14.84Z" fill="#e0b146"/><path d="M594.46,793.05s.42,8.45,10.08,16.85h15.55l-12.82-24.36S604.12,788,594.46,793.05Z" fill="#e0b146"/><path d="M510.64,712.87l-131.53-.21-68.05,61.58s-.9,14.4,14.17,21.88H320.6l-11.54,8.32s-15.51-8.11-21.75-21.7l-8.49,1.12-2,3.81s-5.55,14.67,4.42,22.23H557.91s-45.49-45.37-54-86.75Z" fill="#e0b146"/><path d="M214.71,811.9s19.32-15.54,10.92-33.81-16.38-33-16.38-33L189.58,735,174.8,752.57,176.06,772l-8.4-2.1L157.93,767s-4.55,28.56,15.19,44.94Z" fill="#e0b146"/><path d="M386.13,486.1l14.13-20.05s19.5-4.95,26.62,18.75l-16,18.74s-20.31,3.63-24.76-17.44" fill="#e0b146"/><path d="M656.63,560.8a59.26,59.26,0,0,0,14.74-23.5s-13.48-8.43-11.06-26.49l-3.68-14.21s-3.24-4.58-2-12.56c0,0,10.9,2.46,14.34-8.2s5.21-13.07,5.21-13.07,3.39,4.46,15.05,9.81,22.68,21.17,17,37.53l5.63-.37s2.35-8.26,9.23-7.11,4,8.76,0,12.82-12,9.64-12,9.64l-2.84-1.15A72.24,72.24,0,0,0,703.6,544c.08,11.58,2.6,28.55,2.6,28.55s-5.7,6-34.83,4.2S656.63,560.8,656.63,560.8Z" fill="#f4f2ed"/><path d="M496.49,527.48s-19.28,8-34.43,33.27c0,0-23.95-5.28-35.78-25.62s-8.61-23.75-1.26-24.32a29.59,29.59,0,0,1,13.71,2.54s18.58,13.42,26.14,14.68-.28-6.5-.28-6.5S447.73,515,453.3,508.76s16.52-6.66,21.29-4.73S492.83,509.91,496.49,527.48Z" fill="#f4f2ed"/><path d="M607.27,785.54s-13.36-22.39,2.14-56.15l-31.77-6s-4.5-.79-3.74,3.52,6.91,15,6.91,15,1.25,2.94-2.69,5.86A121.44,121.44,0,0,1,557.8,759c-8.92,4-10,19-5,23.32A44.52,44.52,0,0,0,586.48,793C603.91,791.42,607.27,785.54,607.27,785.54Z" fill="#f4f2ed"/><path d="M311.06,774.24S296,762.52,291.8,755.58s-3.91-8.76-5.58-5a37.29,37.29,0,0,0,2.26,33.58c9.09,15.15,20.58,20.29,20.58,20.29l13.48-9.72S309.74,790.45,311.06,774.24Z" fill="#f4f2ed"/><path d="M268.9,756.29s1.65,2.61-.59,9,1.86,17.73,8.47,22.43c0,0-4.75,11.73,2,22.23H258.65l-3.43-18.59s-.05-20.11,4.67-26.92S265.44,755.49,268.9,756.29Z" fill="#f4f2ed"/><path d="M703.05,548.2l3.15-23.86s7.16-.09,14.08-8,4.3-12.9.78-13.75-9.23,7.11-9.23,7.11l-6.26,1.91s7.4-20.4-11-36.88A42.42,42.42,0,0,1,684,463.65c-4.23-6.74-10.2-21.31,1.49-36.65l4.93-6.78a27.92,27.92,0,0,0,4.9,8.29c3.13,3.37,6.1,9,18.58,12.27s32.2,9.26,39.88,20,22.46,30.23,9.92,54.84-39.21,32.6-39.21,32.6S713.34,550.93,703.05,548.2Z" fill="#161819"/><path d="M458.51,566.92s16.23-32.17,44.37-41.83c0,0,24.66,63.1,67.36,57,0,0,13.59-17.91,46.21-22.53s40.18,1.27,40.18,1.27-3.45,8.18,4.4,11.76,20,9.66,45.17,0c0,0,41.93,13.53,62.34,43.94s25.3,77.92,16.92,106.65S766.69,799.4,708.3,809.9H618.41s-19.38-22.11-16.6-51.8,16.6-44,16.6-44,39.14-8.56,53-24.66c0,0-30.28,8.69-58,12,0,0-13.86,7.57-16.38,24.37l-17.22-2.52s-10.21-1.11-5.11,7.85,8.49,11.7,5,14.94S564,756.49,557.8,759s-12.27,15.1-5,23.32,26.57,16,44.21,8.95c0,0,0,11.45,9.66,18.59H556.23S513.39,768.74,502.88,723l19.29-55.45s28.41-60.93,27.65-60.09S526,631.93,510.64,661.9C510.64,661.9,464.12,624.51,458.51,566.92Z" fill="#161819"/><path d="M456.78,505.75,425,483.5l-14.13,20,10.92,7.27s2.4-4.22,9.66-.84,20.61,12.18,20.61,12.18,12.18,8.31,15.74,5.63-5.47-7.08-11-10.35S448.49,506.16,456.78,505.75Z" fill="#161819"/><path d="M201.69,714s-9.66-17.47,0-29.65,16.8-19.32,15.12-31.08c0,0,12.25,21.84.25,37s-13.27,29.41-13.27,29.41S204.18,720,201.69,714Z" fill="#161819"/><path d="M160.1,728.47s-10.08-12.6,0-29.83,3.36-26,3.36-26,19.32,18.42,8.4,33.55S159.26,726,160.1,728.47Z" fill="#161819"/><path d="M184.88,690.24c1.68-13.44,11.58-10.78,12.51-25.34s-6.25-19.35-6.25-19.35S195,658,184.88,664.9,184.88,690.24,184.88,690.24Z" fill="#161819"/><path d="M691.71,419c-.16-2.59-18.9,11.34-20.17,27.73s4.42,20.79,17.65,25.83,22,27.1,16.38,39.07c0,0,3.78,2.52,9.45-5.67s13.24.1,8.82,6-12.6,14.75-17,10.34c0,0-5,14.49-3.78,25.84,0,0,27.1,8.82,53.56-22.06s1.89-66.16-13.86-74.35S693,439.19,691.71,419Z" fill="none" stroke="#161819" stroke-linecap="round" stroke-linejoin="round" stroke-width="5"/><path d="M673.07,460.76s-2.73,27.69-18.48,23.28c0,0-3.21,10.67,6.24,16.34l-.63,12.53s-5.67,24.57,22.06,27.09" fill="none" stroke="#161819" stroke-linecap="round" stroke-linejoin="round" stroke-width="5"/><path d="M653.47,512.28s-1.77-17.64,9.57-16.7,14.49,15.44,15.12,20.8Z" fill="#161819"/><path d="M690.52,489.18c-1.87,5.23-5.65,8.65-8.43,7.66a3.49,3.49,0,0,1-1.93-1.89l4.47-6.38a.37.37,0,0,0-.46-.54l-4.75,2.41a17.5,17.5,0,0,1,1-4.87c1.88-5.23,5.65-8.65,8.44-7.66S692.39,484,690.52,489.18Z" fill="#161819"/><path d="M671.37,537.3s-6.76,17.62-14.74,23.5c0,0-4.54,11.76,14.74,16a54.92,54.92,0,0,0,34.83-4.2s-3-17.68-3.15-24.36" fill="none" stroke="#161819" stroke-linecap="round" stroke-linejoin="round" stroke-width="5"/><path d="M706.2,572.56s35.71,7.56,64.69,47.05S801.56,793.1,708.3,809.9H618.41s-37.39-43.26,0-95.77c0,0,32.76-6.3,56.29-25.63,0,0-42,12.6-61.34,13,0,0-11.76,3-16.38,24.37" fill="none" stroke="#161819" stroke-linecap="round" stroke-linejoin="round" stroke-width="5"/><path d="M656.63,560.8s-19.74-9.24-62.17,4.2-79,115.1-91.58,158c0,0,13.45,51.67,53.35,86.95h62.18" fill="none" stroke="#161819" stroke-linecap="round" stroke-linejoin="round" stroke-width="5"/><path d="M609.41,729.39s-19.15-3.92-29.65-6-4.62,11.76,0,16.8-5,11.34-16.81,16-18.06,19.33-8.4,28.15S592,797.32,606,787" fill="none" stroke="#161819" stroke-linecap="round" stroke-linejoin="round" stroke-width="5"/><path d="M597,791.31s0,10.19,9.66,18.59" fill="none" stroke="#161819" stroke-linecap="round" stroke-linejoin="round" stroke-width="5"/><path d="M568.71,583.75s-14.16,1-31-11.19-34.87-47.47-34.87-47.47-25.15,5.46-44.92,42.85c0,0,9.52,66.92,63.35,101.72" fill="none" stroke="#161819" stroke-linecap="round" stroke-linejoin="round" stroke-width="5"/><path d="M496.49,527.48s-1.17-13.35-17.13-21.52-29.83,2.33-26.89,7.37,16.39,7.72,16.81,14.15c0,0-3.74,2.23-17.2-5.33s-17.67-15.54-30.27-11.34,9.66,42,40.25,49.94" fill="none" stroke="#161819" stroke-linecap="round" stroke-linejoin="round" stroke-width="5"/><path d="M416.45,469.37A20.31,20.31,0,0,1,425,483.5l-14.13,20a20.62,20.62,0,0,1-24.75-17.44l14.12-20.05A20.33,20.33,0,0,1,416.45,469.37Z" fill="none" stroke="#161819" stroke-linecap="round" stroke-linejoin="round" stroke-width="5"/><path d="M416.45,469.37A20.31,20.31,0,0,1,425,483.5l-14.13,20a20.62,20.62,0,0,1-24.75-17.44l14.12-20.05A20.33,20.33,0,0,1,416.45,469.37Z" fill="none" stroke="#161819" stroke-linecap="round" stroke-linejoin="round" stroke-width="5"/><polyline points="421.81 510.81 410.89 503.55 425.08 483.41 456.78 505.75" fill="none" stroke="#161819" stroke-linecap="round" stroke-linejoin="round" stroke-width="5"/><path d="M456.61,752.35l-86.95,18.91-44.43,24.86s-16.06-6.62-14.17-21.88l68.05-61.58s68.06-3.72,124.76,0" fill="none" stroke="#161819" stroke-linecap="round" stroke-linejoin="round" stroke-width="5"/><path d="M322.54,794.72l-13.48,9.72s-5.88-4-15.12-13.13-10.5-22.15-10.5-22.15-2.1-14.71,5-21.43c0,0,2.52,8.83,8,14.29a160.93,160.93,0,0,0,14.6,12.22" fill="none" stroke="#161819" stroke-linecap="round" stroke-linejoin="round" stroke-width="5"/><path d="M276.78,787.67c-6.24-4.18-10.15-16.41-8-24.81s-1.26-10.93-8,0-5.46,30.19-5.46,30.19l3.36,16.85h20.17c-8.41-15.12,0-26,0-26l8.49-1.93" fill="none" stroke="#161819" stroke-linecap="round" stroke-linejoin="round" stroke-width="5"/><path d="M167.45,811.9s-18.9-13.44-21.42-38.64,11.9-33.4,11.9-33.4,2.59,18.27,13.93,25.21c0,0-19.53-21.43,18.91-71.84,0,0-.63,32.77,14.49,43.48,0,0-1.26-11.56,11.34-17.64,0,0,2.83,25.23,8.82,41,9,23.83,15.75,43.82-10.71,51.8h-8.4c17.22-7.14,13-28.14,6.3-38.64s-5.88-23.53-5.88-23.53c-7.14,8.83-4.2,17.23-4.2,17.23-11.76-4.62-10.5-26.05-10.5-26.05-18.49,25.21-10.09,43-10.09,43-14.7-1.51-17.22-10.67-17.22-10.67-8,26.46,17.22,38.64,17.22,38.64Z" fill="#161819"/><path d="M400.26,466.05,386.13,486.1l-275.49,9.26c4.5-142.36,99.46-261.88,229.29-303Z" fill="#161819"/><path d="M691.71,419s-9.51,9.47-11.38,26.27S690.39,468,699,480.14" fill="none" stroke="#161819" stroke-linecap="round" stroke-linejoin="round" stroke-width="5"/><path d="M510.64,661.9s13-27.08,44.51-60.25" fill="none" stroke="#161819" stroke-linecap="round" stroke-linejoin="round" stroke-width="5"/><g clip-path="url(#clip-path)"><path d="M386.14,409A36.87,36.87,0,1,1,423,372.08,36.91,36.91,0,0,1,386.14,409Zm0-68.74A31.87,31.87,0,1,0,418,372.08,31.9,31.9,0,0,0,386.14,340.21Z" fill="#e0b146"/><path d="M110.64,456.94a24.52,24.52,0,1,1,24.51-24.52A24.55,24.55,0,0,1,110.64,456.94Zm0-44a19.52,19.52,0,1,0,19.51,19.51A19.54,19.54,0,0,0,110.64,412.91Z" fill="#e0b146"/><path d="M217.89,359.92a12.36,12.36,0,1,1,12.36-12.36A12.37,12.37,0,0,1,217.89,359.92Zm0-19.71a7.36,7.36,0,1,0,7.36,7.35A7.36,7.36,0,0,0,217.89,340.21Z" fill="#e0b146"/><polygon points="204.25 432.5 204.79 440.12 209.34 446.23 201.73 446.77 195.61 451.33 195.08 443.72 190.52 437.6 198.13 437.06 204.25 432.5" fill="#e0b146"/><polygon points="325.46 324.25 325.82 329.4 328.91 333.54 323.76 333.9 319.62 336.99 319.25 331.84 316.17 327.7 321.32 327.33 325.46 324.25" fill="#e0b146"/><circle cx="322.54" cy="357.33" r="3.19" fill="#e0b146"/><circle cx="219.08" cy="420.22" r="3.19" fill="#e0b146"/><circle cx="204.9" cy="323.24" r="3.19" fill="#e0b146"/><path d="M329.37,405.25c-10.29,0-17.78-1.92-19.2-6.89-3.64-12.77,37.31-29.45,65.73-37.54s72-15.5,75.64-2.73h0c3.63,12.77-37.32,29.44-65.73,37.54C368.48,400.56,345.49,405.25,329.37,405.25Zm103-49.09c-11.77,0-30.46,2.46-55.08,9.47C334,378,313.73,392.59,315,397s26.21,6.15,69.46-6.17,63.54-27,62.29-31.36C446.19,357.57,441.25,356.16,432.35,356.16Z" fill="#e0b146"/></g><line x1="278.82" y1="809.9" x2="556.23" y2="809.9" fill="none" stroke="#161819" stroke-linecap="round" stroke-linejoin="round" stroke-width="5"/></svg>