<svg id="Layer_1" data-name="Layer 1" xmlns="http://www.w3.org/2000/svg" viewBox="0 0 900 900"><title>Big Guy Illustrations Pack - Scene 10</title><path d="M230.73,245.63s-61.15,1.36-91.52,47.1-24.86,96.6-11.86,132.6,45.07,78,103.38,88.19l5.46,18.32s82.79,5.53,117.34,0c0,0,16.81-51.18,18.7-75.33l-9.59-3.78s-14.84,15.9-38.23,20.13c0,0-3.08-29.17-31.5-55,0,0,16-5.39,23.13-18.58l-8.24-3.22,16.61-10.82-16-7.67,53.37-29.92V307L372.23,300S371,299,376.48,289s13.86-13.43,13.86-13.43,31,9.16,43.29,33.53c0,0-4,5.56-14.29,1.73l-1.67,2V346.1l30.61,9.34-6.67,14.11,20.59,5.9-22.59,17-1.22,17.45s23.65.2,33.09-13.72,10.91-51.7,1.83-87.63-40-63.57-78.08-53.22c0,0-47.75-45.79-111.15-20.4v5.66s1.19,10.29-19.29,14.07A41.3,41.3,0,0,1,230.73,245.63Z" fill="#161819"/><rect x="642.95" y="504.91" width="132.95" height="53.86" fill="#161819"/><path d="M252.14,219.16s11.12-8.53,10.94-23.52c0,0-6.2,1.29-8.44-5.54s-2.49-22.07,6.82-19.24l1.62,8.81c1.08,5.89,4.23,7.36,4.23,7.36s3.2-10.74,9.77-16.52,22.54-12.84,29.54-18.38,18.69-6.48,21.2-24.75l-.89-14.5S316.36,129,292.75,125.22s-41.89-10.12-62,5.15S206,172.14,215.36,192.6,252.14,219.16,252.14,219.16Z" fill="#161819"/><polygon points="324.41 385.24 361.83 362.49 361.83 371.73 400.45 382.47 417.67 371.65 417.67 362.83 441.61 369.55 393.3 402.74 324.41 385.24" fill="#161819"/><path d="M353.53,531.84l376.14-59,28.48-119.31L326.93,112.88s9.53,22.19-2.52,42.6L318.73,174c-3.53,11.5-.35,12.92,4.56,11.5,0,0-2.68,8.38-5.77,9.11s-4.24-1.8-5.9,2.2-.24,9.71-4.66,15.47-6.84,12.64-25,11.91c0,0-.66,6.13,2.1,10.73,0,0,53.81-27.44,111.15,20.4,0,0,29.23-10.52,53,11.73s36.39,75.62,29,112.74-38.89,30.1-38.89,30.1L436.15,430,393.3,460.29l-21.07-5.2S364.77,505.61,353.53,531.84Z" fill="#e0b146"/><rect x="697.3" y="513.52" width="35.56" height="23.58" fill="#e0b146"/><circle cx="673.19" cy="531.84" r="16.38" fill="#e0b146"/><path d="M240.92,531.84V670.22s-19.28,24.27-26.46,43.18-18,63.63-18,63.63,5,14.28,22.42,9.45l56.34-87,4.28-3.12s9,71.38,17.78,88.19c0,0,20.46,3.35,27.2-1.68l4.3-68.27s4.76-2.69,5.67-15.12,15.23-167.68,15.23-167.68S336.67,537.44,240.92,531.84Z" fill="#e0b146"/><path d="M295.67,160.14s16.46-1.37,21.85-3.89,16.87-8.82,12.63-30c0,0-3.61,14.07-14.63,20.69S295.67,160.14,295.67,160.14Z" fill="#e0b146"/><path d="M309.46,397.57l15,3.89v30.26l32.35,1.68s14.83-.86,12.59,6.34a79.84,79.84,0,0,1-6.71,14.67l9.59.68,21.07,5.2L436.15,430l3.46-37.59-23.79,17.47-22.52-7.18L378,413.58l-50.15-11.23Z" fill="#e0b146"/><polygon points="361.8 306.96 400.45 320.82 418.59 312.84 417.67 371.65 400.45 382.47 361.83 371.73 361.8 306.96" fill="#e0b146"/><rect x="703.02" y="543.24" width="55.45" height="15.53" fill="#f4f2ed"/><polyline points="737.49 543.24 736.63 472.86 756.69 472.79 749.23 543.24 737.49 543.24" fill="#f4f2ed"/><polygon points="729.67 472.86 756.69 472.79 783.08 359.5 758.15 353.55 729.67 472.86" fill="#f4f2ed"/><rect x="548.43" y="558.77" width="227.47" height="30.88" fill="#f4f2ed"/><rect x="450.13" y="687.94" width="227.47" height="30.88" transform="translate(-139.51 1267.25) rotate(-90)" fill="#f4f2ed"/><rect x="646.73" y="687.94" width="227.47" height="30.88" transform="translate(57.08 1463.85) rotate(-90)" fill="#f4f2ed"/><polygon points="404.83 810.92 488.87 810.92 499.58 725.8 394.12 725.8 404.83 810.92" fill="#f4f2ed"/><polygon points="505.05 212.29 505.05 170.86 591.81 170.86 591.81 261.59 576.18 252.35 576.18 185.98 520.03 185.98 520.03 220.66 505.05 212.29" fill="#f4f2ed"/><polygon points="613.14 273.77 613.14 170.85 700.19 170.85 700.19 321.24 685.09 312.84 685.09 185.98 628.09 185.98 628.09 289.74 613.14 273.77" fill="#f4f2ed"/><path d="M390.34,275.53S374,285.66,373.48,293.88s.45,14,8.43,13.08,14.48-5.66,24.59-1.26,21.53,8,27.13,3.36C433.63,309.06,423.9,286.16,390.34,275.53Z" fill="#f4f2ed"/><path d="M292.91,417.86s15-4.11,21.72-18.95l9.78,2.55v30.26l32.35,1.68s13.2-.35,12.78,4.61a21.46,21.46,0,0,1-6.9,14.72c-4.83,4.37-18.62,18-38.23,20.13C324.41,472.86,313.35,436.34,292.91,417.86Z" fill="#f4f2ed"/><path d="M187.05,790.89l10.5-11.76s.65,6.67,9,7.42,12.38-.07,12.38-.07,9.66,12.62,14.79,15.47,16.77,5.74,16.77,5.74l-8.59,3.23-35,.13Z" fill="#f4f2ed"/><path d="M298,811.05l5-25.12s15.06,2.44,21.5-1.34c0,0,8.38,12.07,19.29,15.91a117.82,117.82,0,0,0,22,5.16l-3.37,3.69L355,810.92Z" fill="#f4f2ed"/><path d="M326.06,152.4S323,160.18,321.18,166s-7.38,17.64,1.56,21c0,0,.55,8.13-12.89,10.05l-1.6,13.25s-4.72,17.91-25.51,13.58c0,0-1.94,7.64,1.34,14.16s-.68,13.19-13.18,15.21-34.21,2.85-40.17-7.65c0,0,11.68-16.11,10.74-29.58l10.67,3.11s10.94-7.56,10.94-23.52c0,0-4.92,5.13-8.9-7.2s2-18.84,7.28-17.58-.46,10.83,2.47,14.23,4.69-.58,8.53-9.41,19.1-17.76,28.64-17.64S326.06,152.4,326.06,152.4Z" fill="#f4f2ed"/><polygon points="393.3 402.74 417.67 409.92 462.2 375.45 441.61 369.55 448.28 355.44 417.67 346.1 417.39 370.81 400.45 382.47 361.83 371.73 361.8 347.65 309.46 376.99 309.87 379.8 324.41 385.24 306.62 396.83 376.08 414.92 393.3 402.74" fill="#f4f2ed"/><rect x="548.43" y="558.77" width="30.88" height="252.28" stroke-width="5" stroke="#161819" stroke-linecap="round" stroke-linejoin="round" fill="none"/><rect x="646.73" y="460.47" width="30.88" height="227.47" transform="translate(87.96 1236.37) rotate(-90)" stroke-width="5" stroke="#161819" stroke-linecap="round" stroke-linejoin="round" fill="none"/><rect x="745.03" y="558.77" width="30.88" height="252.28" stroke-width="5" stroke="#161819" stroke-linecap="round" stroke-linejoin="round" fill="none"/><path d="M560.84,551.79a18.94,18.94,0,0,0-2.33,7h65.11A17.68,17.68,0,0,0,611.87,541s-17.79-7.88-36.81-1.16A25.61,25.61,0,0,0,560.84,551.79Zm43.56,2.26c-.31-5.52-6.3-8.52-6.3-8.52,11.18.64,12.6,8.52,12.6,8.52Z" fill="#161819"/><rect x="703.02" y="543.24" width="55.45" height="15.53" stroke-width="5" stroke="#161819" stroke-linecap="round" stroke-linejoin="round" fill="none"/><polygon points="756.37 472.86 736.63 472.86 736.63 543.24 749.23 543.24 756.37 472.86" fill="none" stroke="#161819" stroke-linecap="round" stroke-linejoin="round" stroke-width="5"/><polygon points="756.69 472.79 729.67 472.86 758.15 353.55 783.08 359.5 756.69 472.79" fill="none" stroke="#161819" stroke-linecap="round" stroke-linejoin="round" stroke-width="5"/><line x1="729.67" y1="472.86" x2="352.72" y2="531.84" fill="none" stroke="#161819" stroke-linecap="round" stroke-linejoin="round" stroke-width="5"/><line x1="758.15" y1="353.55" x2="326.93" y2="112.88" fill="none" stroke="#161819" stroke-linecap="round" stroke-linejoin="round" stroke-width="5"/><polyline points="753.12 504.91 775.9 504.91 775.9 558.77 758.47 558.77 745.02 558.77 703.02 558.77 642.95 558.77 642.95 504.91 736.63 504.91" fill="none" stroke="#161819" stroke-linecap="round" stroke-linejoin="round" stroke-width="5"/><circle cx="673.19" cy="531.84" r="16.38" fill="none" stroke="#161819" stroke-linecap="round" stroke-linejoin="round" stroke-width="5"/><rect x="697.3" y="513.52" width="11.85" height="11.85" stroke-width="5" stroke="#161819" stroke-linecap="round" stroke-linejoin="round" fill="none"/><rect x="709.16" y="513.52" width="11.85" height="11.85" stroke-width="5" stroke="#161819" stroke-linecap="round" stroke-linejoin="round" fill="none"/><rect x="721.01" y="513.52" width="11.85" height="11.85" stroke-width="5" stroke="#161819" stroke-linecap="round" stroke-linejoin="round" fill="none"/><rect x="697.3" y="525.91" width="11.85" height="11.85" stroke-width="5" stroke="#161819" stroke-linecap="round" stroke-linejoin="round" fill="none"/><rect x="709.16" y="525.91" width="11.85" height="11.85" stroke-width="5" stroke="#161819" stroke-linecap="round" stroke-linejoin="round" fill="none"/><rect x="721.01" y="525.91" width="11.85" height="11.85" stroke-width="5" stroke="#161819" stroke-linecap="round" stroke-linejoin="round" fill="none"/><polyline points="505.05 375.46 505.05 170.86 591.81 170.86 591.81 287.17 591.81 375.46 505.05 375.46" fill="none" stroke="#0a0c0f" stroke-linecap="round" stroke-linejoin="round" stroke-width="5"/><polyline points="577.16 252.73 577.16 185.51 519.7 185.51 519.7 219.16" fill="none" stroke="#0a0c0f" stroke-linecap="round" stroke-linejoin="round" stroke-width="5"/><polyline points="685.54 313.1 685.54 287.17 685.54 185.51 628.09 185.51 628.09 281.1" fill="none" stroke="#0a0c0f" stroke-linecap="round" stroke-linejoin="round" stroke-width="5"/><rect x="613.44" y="170.85" width="86.75" height="204.6" stroke-width="5" stroke="#0a0c0f" stroke-linecap="round" stroke-linejoin="round" fill="none"/><path d="M326.93,112.88s8.82,24.79,0,37-28.56,5-42.43,14.28-17.64,24.37-17.64,24.37-5-2.52-3.78-11.35-6.72-9.24-10.08-1.68,3.78,23.53,10.08,20.17c0,0-.88,16.38-10.94,23.52,0,0-42.83-6.3-41.15-50.41s44.11-49.15,54.19-47.89,31.93,7.57,45.37,2.94S326.93,112.88,326.93,112.88Z" fill="none" stroke="#161819" stroke-linecap="round" stroke-linejoin="round" stroke-width="5"/><path d="M326.93,149.85s-6.22,14.4-8,21c-3.43,12.91-.28,15.49,4.34,14.65,0,0-.53,9.6-8.72,9.6-9.37,0-6.12,14-6.12,14s-7.14,21.84-33.19,13" fill="none" stroke="#161819" stroke-linecap="round" stroke-linejoin="round" stroke-width="5"/><path d="M289.12,201.94c-.89.89,4.67,10.19,25.67,8.09,0,0,6.82-14.71-1.1-16.64C304.09,191.05,297.11,194,289.12,201.94Z" fill="#161819"/><path d="M303.74,179.13a10.32,10.32,0,0,1-2.13,3.86l-3.17-4.78a.31.31,0,0,0-.57.18l.23,6.92a4.8,4.8,0,0,1-2.76,0c-3.26-1-4.79-5.42-3.41-9.84s5.13-7.17,8.39-6.16S305.11,174.72,303.74,179.13Z" fill="#161819"/><path d="M241.47,216.05s-2.75,19.92-10.74,29.58c0,0,8.83,11.68,31.09,9.41s22.26-14.45,22.26-14.45A41.23,41.23,0,0,1,282,224.2" fill="none" stroke="#161819" stroke-linecap="round" stroke-linejoin="round" stroke-width="5"/><path d="M282.74,235.69s18.57-11.91,53.85-7.29,60.49,26.93,60.49,26.93,27.73-12.62,57.56,17.83,28.14,104.37,18.06,121.17-34.31,15.57-34.31,15.57" fill="none" stroke="#161819" stroke-linecap="round" stroke-linejoin="round" stroke-width="5"/><polyline points="439.61 392.45 436.15 430.04 393.3 460.29 393.3 402.74 416.41 409.9 462.2 375.45 441.61 369.55 393.3 402.74" fill="none" stroke="#161819" stroke-linecap="round" stroke-linejoin="round" stroke-width="5"/><path d="M324.41,472.86s24.79-5,38.23-20.13,5.88-20.17-5.88-19.33-32.35-1.68-32.35-1.68V403.16" fill="none" stroke="#161819" stroke-linecap="round" stroke-linejoin="round" stroke-width="5"/><polyline points="393.3 402.74 376.08 414.92 306.62 396.83 324.41 385.24 393.3 402.74" fill="none" stroke="#161819" stroke-linecap="round" stroke-linejoin="round" stroke-width="5"/><polyline points="359.97 348.56 306.62 378.58 324.41 385.24 361.8 362.41 361.8 306.96 400.45 320.82 400.45 382.47 361.83 371.73 361.83 362.49" fill="none" stroke="#161819" stroke-linecap="round" stroke-linejoin="round" stroke-width="5"/><polyline points="400.45 320.82 417.67 312.84 417.67 371.65 400.45 382.47" fill="none" stroke="#161819" stroke-linecap="round" stroke-linejoin="round" stroke-width="5"/><path d="M397.08,255.33s-7.56,2.92-19.32,17.82c0,0,35.29,1.46,55.87,35.91,0,0-8.82,6.3-24.57-2.1s-16.39,2.1-28,0-14.6-12.6,9.32-31.43" fill="none" stroke="#161819" stroke-linecap="round" stroke-linejoin="round" stroke-width="5"/><polyline points="417.67 362.83 441.61 369.55 448.28 355.44 417.67 346.1" fill="none" stroke="#161819" stroke-linecap="round" stroke-linejoin="round" stroke-width="5"/><line x1="393.3" y1="460.29" x2="362.64" y2="452.73" fill="none" stroke="#161819" stroke-linecap="round" stroke-linejoin="round" stroke-width="5"/><path d="M316,399.28s-5.07,10.18-23.13,18.58c0,0,26.88,26.15,31.5,60.12,0,0-14.28,30-70.57,35.54s-131.07-41-136.53-138.07,72.26-129.82,113.42-129.82" fill="none" stroke="#161819" stroke-linecap="round" stroke-linejoin="round" stroke-width="5"/><path d="M230.73,513.52s2.63,8.48,5.46,18.32c0,0,80.62,6.23,117.34,0,0,0,9.71-21.79,18.7-75.33" fill="none" stroke="#161819" stroke-linecap="round" stroke-linejoin="round" stroke-width="5"/><path d="M240.92,531.84s1,103.41,0,138.38c0,0-23.09,33.08-30,51S196.5,777,196.5,777s5.14,14.17,22.42,9.45c0,0,44.37-70,56.34-87,0,0,4.88-.63,7.48-10.08S298.3,631.35,306.62,583l8.32-48.4" fill="none" stroke="#161819" stroke-linecap="round" stroke-linejoin="round" stroke-width="5"/><path d="M279.54,696.4c.71,1.89,7.06,57.94,17.78,88.19a46.92,46.92,0,0,0,27.09,0s3.78-56.71,4.41-70c0,0,5,0,5.67-15.12S349.72,534.3,349.72,534.3" fill="none" stroke="#161819" stroke-linecap="round" stroke-linejoin="round" stroke-width="5"/><path d="M302.91,785.93l-5,25.12h52s12.68.84,18.14-5.46a51.76,51.76,0,0,1-20.58-3.36c-11.35-4.2-23.11-17.64-23.11-17.64" fill="none" stroke="#161819" stroke-linecap="round" stroke-linejoin="round" stroke-width="5"/><path d="M197.55,779.13l-10.5,11.76s7.56,7.56,14.28,13.86,21.84,6.3,21.84,6.3,17.65,2.94,27.31-3.36c0,0-8.82-.84-15.13-4.62s-16.43-16.59-16.43-16.59" fill="none" stroke="#161819" stroke-linecap="round" stroke-linejoin="round" stroke-width="5"/><polygon points="488.87 810.92 404.83 810.92 394.12 725.8 499.58 725.8 488.87 810.92" fill="none" stroke="#161819" stroke-linecap="round" stroke-linejoin="round" stroke-width="5"/><path d="M444.9,725.8s-7.25-26.28-6.62-49,1.57-51,15.44-49.47-1.89,27.1-3.15,52.3a172.59,172.59,0,0,0,4.09,46.13H444.9Z" fill="#161819"/><path d="M459.39,705.19c1.69-11.34.31-28.35,9.13-30.56s7.88,31.14-4.56,51.17h-11.5A64.08,64.08,0,0,0,459.39,705.19Z" fill="#161819"/><path d="M467.26,725.8s5.36-10.53,8.83-19,10.08-7.56,8.5,2.52a72.27,72.27,0,0,1-4.41,16.51Z" fill="#161819"/><path d="M484.83,725.8s4.54-20,14.75-36.36S518,680,515.47,686.92,496.25,714,494,725.8Z" fill="#161819"/><path d="M484.83,689.12c-6.39.62-4.49-14.8,0-31.19s5.43-23.63,13.31-20.47,0,21.1-3.15,32.45S491.37,688.49,484.83,689.12Z" fill="#161819"/><path d="M518,674.53c-6.61-.63-9.14-8.72-3.47-21s13.55-8.19,13.24-2.2S526.81,675.37,518,674.53Z" fill="#161819"/><path d="M515.93,703.62c-1.7-5.47,4.28-10.08,11.83-9.45S540,702.36,536,705.51,518.28,711.18,515.93,703.62Z" fill="#161819"/><path d="M527.76,674.56c-3.57,3.19-4.42,9.52,3.46,8s12.29-1.73,12.6-8S533.13,669.75,527.76,674.56Z" fill="#161819"/><path d="M531.22,652c.27,7.55,2.71,10.34,6.24,7.69s5.75-6.94,6.37-14.09S530.59,634.3,531.22,652Z" fill="#161819"/><path d="M506.65,639.43c.19,4.2,3.15,7.16,10.71,2.12s9.56-12,9.19-19.53-6.65-6.62-10.91,0S506.33,632.59,506.65,639.43Z" fill="#161819"/><path d="M531.2,615.72c-2.09,2.82-3.21,8.19,3.29,8.19s10.29-4.1,9.34-8.19S535.85,609.41,531.2,615.72Z" fill="#161819"/><path d="M519.57,611.77c.81,5.65,7.72-2,10-8.66s3.33-12.28-3-11.34S518.78,606.2,519.57,611.77Z" fill="#161819"/><path d="M472,577.59c5.91-2.53,8.95,4.73,8.73,17s-2.51,28.35-4.67,40.64-3.43,29.93-8.79,31.19-3.31-11.49-3.86-27S461,582.32,472,577.59Z" fill="#161819"/><path d="M486.8,630.45c5.4,2.1,8.24-5,12.78-18.68s7.43-26.93,0-28.5-10.89,11.89-12.78,23.59S481.76,628.48,486.8,630.45Z" fill="#161819"/><path d="M511.38,594.29c-7.07-3.28-5.05-7.93-1.9-17.2s6.62-15.56,11.66-12.41S520.21,598.39,511.38,594.29Z" fill="#161819"/><path d="M484.83,576c6.31-1.13,11.42-6.15,12.05-17.25s-1.26-16.8-7.56-15.53-2.93,10.41-5.24,17.66S480.56,576.78,484.83,576Z" fill="#161819"/><path d="M468.84,576.07c3.78,3,5-7.3,3-15.17s-5.67-10.09-8.9-5.36S462.54,571.07,468.84,576.07Z" fill="#161819"/><path d="M476.05,551c4.31,1.11,6.88-4.6,8-11.21s2.16-12.29-4-12.29S467,548.69,476.05,551Z" fill="#161819"/><path d="M448.81,617.84c4.95,1.35,7.11-5.78,6.48-15.14s-2.62-26.05.11-40.23,12.49-35.6,4-38.44-13.86,22.37-16.07,42.85S440.45,615.56,448.81,617.84Z" fill="#161819"/><path d="M444.9,725.8S438,715,435.44,698s-1.89-23.78-9.45-23.39-2.2,36.25,6,51.24Z" fill="#161819"/><path d="M416.85,725.8s-7.87-17.64-4.09-23.22S422.84,715.85,432,725.8Z" fill="#161819"/><path d="M409.29,725.8s-.31-12.42-8.5-29.43-13.87-19.53-20.17-17,2.21,13.23,11,26.15,12,20.29,12,20.29Z" fill="#161819"/><path d="M411.73,691c4.5.26,4.18-11.73,2.29-28.08s-7.88-29.58-15.44-27.69-.63,19.53,1.89,29.93S406.29,690.7,411.73,691Z" fill="#161819"/><path d="M432,661.71c4.71-1.91,2.67-15.48,1.65-30.9S433.87,576,420,577.09s-2.84,38.26,0,53.72S424.91,664.59,432,661.71Z" fill="#161819"/><path d="M395.15,583.14c3.58-3.86,10.68,4.85,14.14,18.4s7.88,30.09-2.52,28.91S388.25,590.57,395.15,583.14Z" fill="#161819"/><path d="M391,639.43c-3.3-8.66-12.69-23-18.79-19.89s.89,16.34,6.21,22S396.69,654.32,391,639.43Z" fill="#161819"/><path d="M378.44,676.56c8.58-.06,8.48-11.69,5-20.52s-8-11.37-13.6-7.73-.67,13.26,2.37,18.22S373.12,676.59,378.44,676.56Z" fill="#161819"/><path d="M382.51,702.58c-3.36-5.45-12.28-10.93-20.79-4.32s-.73,11.19,8.14,10.32S386.92,709.74,382.51,702.58Z" fill="#161819"/><path d="M365.82,682.76c7.39,1.67,8.19-6.87,0-10.33s-15.17-1.79-13.1,2.1S358.57,681.11,365.82,682.76Z" fill="#161819"/><path d="M363.61,662c-5,.28-4.87-5.68-11.26-13.7s-3.55-12.79,2.75-13.24S369.6,661.68,363.61,662Z" fill="#161819"/><path d="M360.14,623.91c6.79,1.69,8.2-3.72,4.42-7.22s-9.5-4.75-11.84-1.29S353.84,622.33,360.14,623.91Z" fill="#161819"/><path d="M372.23,613.35c5.15,2.14,4.3-4.45,3-10.65s-.88-12.08-9.58-11S367.3,611.3,372.23,613.35Z" fill="#161819"/><path d="M376.23,563.86c2.26-5.58,5,5.32,9.43,12.21s6,16.14,0,18.6S372.46,573.12,376.23,563.86Z" fill="#161819"/><path d="M424.06,570.91a4,4,0,0,0,7.92,1.33c1.57-5,4.72-14.08,4.41-19.17S426.54,544.38,424.06,570.91Z" fill="#161819"/><path d="M409.29,576.6c3.76,2.34,8-5.37,6-12.74s-1.63-21.55-7.61-22.81S393.54,566.78,409.29,576.6Z" fill="#161819"/><path d="M419.06,549.79c3.19,2.83,7.25-1.2,6.62-6.55s-4.28-17.32-9.86-15.74S408.66,540.57,419.06,549.79Z" fill="#161819"/><path d="M435,537.1c-.84,4.95,2.65,6.07,6.92,3.9s4.08-16.32-3.46-18.86S435.73,532.52,435,537.1Z" fill="#161819"/><path d="M327.42,118.58s3.43,18.88-9.9,27.7c-11.13,7.36-24,9.63-38,21.76" fill="none" stroke="#161819" stroke-linecap="round" stroke-linejoin="round" stroke-width="5"/><polygon points="505.05 212.29 505.05 375.46 591.81 375.46 591.81 259.07 505.05 212.29" fill="#161819"/><polygon points="613.44 273.16 613.44 375.45 700.19 375.45 700.19 321.2 613.44 273.16" fill="#161819"/></svg>