<svg xmlns="http://www.w3.org/2000/svg" id="Layer_1" data-name="Layer 1" viewBox="104.8 254.22 690.33 558.64"><title>Big Guy Illustrations Pack - Scene 9</title><path d="M372.27,431.08S381.62,411,415,402s1.3,19.79,1.3,19.79-8.56,7.2-4.77,10.92,8.49,1.29,11-1.58a23.71,23.71,0,0,0,4-7.49l10.18,4.29s4.7,35-25.85,41.59h0s-8.29-15-38.64-38.39" fill="#f4f2ed"/><path d="M437,476.71s10.35-8.92,11.59-20.16c0,0-10.5-2.37-13.66-8.9,0,0,4.82-13.68,1.88-19.77s-16.19-8.08-15.66-25.78,17.76-31,40.65-25.09,32.76,11.38,40.64,11.07l-2.09,3.28-5.83,4.52,4.75,16.68-6.17,13.59,1.42,15s-5.42,9.36-14,12.65c0,0-.11,10.46,10.21,21,0,0-27.11,34.66-53.76,2" fill="#f4f2ed"/><path d="M517.73,461.66s-23-6.78-24.68-35.51h0l6.17-4.41s4.25,7,9.54,5.62a7.42,7.42,0,0,0,4.91-10c-1.42-2.82-8.65-9.45-8.65-9.45l-3.69-4.31-6.86-7.7s8.67-11.16,18.37-4.52,23.48,16.2,30.41,36.13-18.69,10.82-25.52,34.17" fill="#f4f2ed"/><path d="M397.27,802l9.19-19.55s11.46,4.49,22.3,0h0l10.94,22.11-6.09,5.84H401.87Z" fill="#f4f2ed"/><path d="M401.89,781S372.61,715.42,374,668s27.86-50.36,27.86-50.36,17.58-5.53,30.22,34.59,9.4,87,9.4,87l-4.71,37.53S424.58,791.46,401.89,781Z" fill="#e0b146"/><path d="M442.36,759.39l13.12-44.88,2.46,2.38s7,60.54,21.48,75.18,29,12.16,29,12.16,17.13.65,19.16-15.06,8.84-94.75,8.16-111.55l-98.94,7.57,2.91,65.94Z" fill="#e0b146"/><path d="M366,609.31,361.56,591l34.92-41.64v20.71S383.93,607,366,609.31" fill="#e0b146"/><path d="M574.12,593.6S549,581.14,537.21,547h0l2.44-2a194.47,194.47,0,0,0,28.45,28.23c17,13.66,38.21,24.86,38.21,24.86l-4.46,1.75-27.73-6.23" fill="#e0b146"/><path d="M488.86,382.87s20.9-2.21,23.51-20.64L515,343.8s6.7,3.74,9,14.14-4.14,25-17.32,29.37a22.26,22.26,0,0,1-22-4.41l4.21,0" fill="#e0b146"/><polygon points="470.28 420.33 475.72 425.39 497.05 398.77 488.86 392.51 470.28 416.52 470.28 420.33" fill="#e0b146"/><polygon points="421.13 418.44 426.58 423.59 447.01 396.89 441.57 393.63 421.13 418.44" fill="#e0b146"/><path d="M255.92,405.14a16.2,16.2,0,0,1-2.92,2.34,7,7,0,0,1-14.06,0,16.55,16.55,0,0,1-2.92-2.34c-3.33-3.33-4.73-7.34-3.12-8.95s5.62-.21,8.95,3.13a16.36,16.36,0,0,1,1.32,1.47,7,7,0,0,1,5.61,0,16.23,16.23,0,0,1,1.31-1.47c3.34-3.34,7.34-4.74,9-3.13S259.26,401.81,255.92,405.14Z" fill="#e0b146"/><path d="M376,285.08a16.11,16.11,0,0,1-2.92,2.34,7,7,0,0,1-14.06,0,16.11,16.11,0,0,1-2.92-2.34c-3.33-3.33-4.73-7.34-3.12-8.94s5.62-.21,9,3.12a17.51,17.51,0,0,1,1.31,1.47,7,7,0,0,1,5.62,0,17.51,17.51,0,0,1,1.31-1.47c3.33-3.33,7.34-4.74,9-3.12S379.31,281.75,376,285.08Z" fill="#e0b146"/><path d="M625.66,391.6a16.55,16.55,0,0,1-2.92,2.34,7,7,0,0,1-14.06,0,16.55,16.55,0,0,1-2.92-2.34c-3.33-3.33-4.73-7.34-3.12-9s5.62-.21,9,3.13a14.84,14.84,0,0,1,1.31,1.47,7,7,0,0,1,5.62,0,14.84,14.84,0,0,1,1.31-1.47c3.33-3.34,7.34-4.74,8.95-3.13S629,388.27,625.66,391.6Z" fill="#e0b146"/><path d="M765.57,566.1a16.55,16.55,0,0,1-2.92,2.34,7,7,0,0,1-14.06,0,16.2,16.2,0,0,1-2.92-2.34c-3.34-3.33-4.73-7.34-3.12-9s5.62-.21,9,3.13a14.84,14.84,0,0,1,1.31,1.47,7,7,0,0,1,5.62,0,14.84,14.84,0,0,1,1.31-1.47c3.33-3.34,7.34-4.74,9-3.13S768.9,562.77,765.57,566.1Z" fill="#e0b146"/><path d="M716.66,266.34a17,17,0,0,1-2.92,2.34,7,7,0,0,1-14.07,0,17,17,0,0,1-2.92-2.34c-3.33-3.33-4.72-7.34-3.12-8.95s5.62-.21,9,3.12A17.81,17.81,0,0,1,703.9,262a7,7,0,0,1,5.61,0c.4-.5.84-1,1.31-1.48,3.34-3.33,7.34-4.73,9-3.12S720,263,716.66,266.34Z" fill="#e0b146"/><path d="M451.39,420.1a17.43,17.43,0,0,1-2.85,3.27A14.36,14.36,0,0,1,451.39,420.1Z" fill="none" stroke="#161819" stroke-linecap="round" stroke-linejoin="round" stroke-width="5"/><path d="M451.47,400.49a14,14,0,0,1-3-3.45A18,18,0,0,1,451.47,400.49Z" fill="none" stroke="#161819" stroke-linecap="round" stroke-linejoin="round" stroke-width="5"/><path d="M502.39,410.24a17.65,17.65,0,0,1-29.67,12.91,14.41,14.41,0,0,0-24.18.22,17.65,17.65,0,1,1-.07-26.33,14,14,0,0,0,3,3.45,14.38,14.38,0,0,0,18.71-.2,14.67,14.67,0,0,0,2.63-3,17.64,17.64,0,0,1,29.58,13Z" fill="none" stroke="#161819" stroke-linecap="round" stroke-linejoin="round" stroke-width="5"/><path d="M472.72,423.15a17.71,17.71,0,0,1-2.44-2.82A14.3,14.3,0,0,1,472.72,423.15Z" fill="none" stroke="#161819" stroke-linecap="round" stroke-linejoin="round" stroke-width="5"/><path d="M472.81,397.25a14.67,14.67,0,0,1-2.63,3A17.3,17.3,0,0,1,472.81,397.25Z" fill="none" stroke="#161819" stroke-linecap="round" stroke-linejoin="round" stroke-width="5"/><path d="M451.47,400.49a14,14,0,0,1-3-3.45A18,18,0,0,1,451.47,400.49Z" fill="none" stroke="#161819" stroke-linecap="round" stroke-linejoin="round" stroke-width="5"/><path d="M472.81,397.25a14.67,14.67,0,0,1-2.63,3A17.3,17.3,0,0,1,472.81,397.25Z" fill="none" stroke="#161819" stroke-linecap="round" stroke-linejoin="round" stroke-width="5"/><path d="M451.39,420.1a17.43,17.43,0,0,1-2.85,3.27A14.36,14.36,0,0,1,451.39,420.1Z" fill="none" stroke="#161819" stroke-linecap="round" stroke-linejoin="round" stroke-width="5"/><path d="M472.72,423.15a17.71,17.71,0,0,1-2.44-2.82A14.3,14.3,0,0,1,472.72,423.15Z" fill="none" stroke="#161819" stroke-linecap="round" stroke-linejoin="round" stroke-width="5"/><path d="M447,438.59s1.77-14.56,13.74-15,14.54,10.28,15,15Z" fill="#161819"/><path d="M517.73,462.54S492,452.05,493.06,425.8" fill="none" stroke="#161819" stroke-linecap="round" stroke-linejoin="round" stroke-width="5"/><path d="M499.22,420.33s5,11.91,11.89,5.47c7.88-7.36-1.69-16.09-8.72-18.82" fill="none" stroke="#161819" stroke-linecap="round" stroke-linejoin="round" stroke-width="5"/><path d="M494.47,395.52s8.77-10.18,20.74-2.93,26.15,24.52,28,33.21" fill="none" stroke="#161819" stroke-linecap="round" stroke-linejoin="round" stroke-width="5"/><path d="M423.35,398.77s-.28-14.37,18.22-20.35,29.53,2.2,46.86,7.87,28.35-2.29,32.45-10,6.3-29.41-10.71-34.77c0,0-11.66,11-27.73,9.46s-30.13-8.2-55.86,2.52-18.81,41.63-16.6,47" fill="none" stroke="#161819" stroke-linecap="round" stroke-linejoin="round" stroke-width="5"/><path d="M371.86,431.08s3.78-10.76,22.68-20.84,26.56-8.14,26.56-8.14" fill="none" stroke="#161819" stroke-linecap="round" stroke-linejoin="round" stroke-width="5"/><path d="M419.11,416.52a68.18,68.18,0,0,1-6.93,11.36c-3.78,4.73,2.4,9.77,8.92,5s4.13-9.33,4.13-9.33" fill="none" stroke="#161819" stroke-linecap="round" stroke-linejoin="round" stroke-width="5"/><path d="M413.25,469.47s26-5,23.51-41.59" fill="none" stroke="#161819" stroke-linecap="round" stroke-linejoin="round" stroke-width="5"/><path d="M434.88,448.68a26.92,26.92,0,0,0,13.66,7.87S446,469.15,437,476.71c0,0,18.87,28,53.76-1.57A28.43,28.43,0,0,1,480.5,455" fill="none" stroke="#161819" stroke-linecap="round" stroke-linejoin="round" stroke-width="5"/><path d="M458.81,458.13a38.8,38.8,0,0,0,35.66-17" fill="none" stroke="#161819" stroke-linecap="round" stroke-linejoin="round" stroke-width="5"/><path d="M361.56,591.08c54.15-41.41,51.67-117.62,51.67-117.62C396,442,361.56,425.67,361.56,425.67s-46.62,20.48-74.35,70.47S266.63,602,283,613.35,325.86,618.39,361.56,591.08Z" fill="none" stroke="#161819" stroke-linecap="round" stroke-linejoin="round" stroke-width="5"/><path d="M401.89,781c-1.42-.52-31.92-72.26-26.46-118.05s25.62-47.24,34-44.2,30.22,31.18,32.12,83.69-4.78,74.36-4.78,74.36S426.26,789.78,401.89,781Z" fill="none" stroke="#161819" stroke-linecap="round" stroke-linejoin="round" stroke-width="5"/><path d="M436.79,776.76s15.94-48.47,20.13-68.48c0,0,7.14,72.68,26.05,87.38s31.92,8,38.64,2.1S531.28,769.61,533,728,536.17,681,536.17,681" fill="none" stroke="#161819" stroke-linecap="round" stroke-linejoin="round" stroke-width="5"/><polyline points="406.46 782.41 397.27 801.96 401.87 810.36 434.88 810.36 439.7 804.52 429.62 782.41" fill="none" stroke="#161819" stroke-linecap="round" stroke-linejoin="round" stroke-width="5"/><path d="M361.56,591.08s5.6,40.35,15.19,63" fill="none" stroke="#161819" stroke-linecap="round" stroke-linejoin="round" stroke-width="5"/><path d="M401.88,535.21c-.83,2.14-9.93,52.06-36.88,76" fill="none" stroke="#161819" stroke-linecap="round" stroke-linejoin="round" stroke-width="5"/><path d="M574.12,593.6S548.5,573,531.28,535.21c0,0,43.22,54,80.21,64.62" fill="none" stroke="#161819" stroke-linecap="round" stroke-linejoin="round" stroke-width="5"/><path d="M490.71,475.14s9.1-2.1,23.36,0V472.2s.82-9,13.43-28,20.58-20.58,20.58-20.58,62.59,17.94,103.76,76.75,32.76,81.08,18.48,89.06-56.29,16.8-96.2,4.2c0,0-18.06,65.11-33.6,85.7,0,0-29.86,14.28-98.95,7.56" fill="none" stroke="#161819" stroke-linecap="round" stroke-linejoin="round" stroke-width="5"/><path d="M437,476.71a85.38,85.38,0,0,0-23.7,0" fill="none" stroke="#161819" stroke-linecap="round" stroke-linejoin="round" stroke-width="5"/><path d="M461.36,377s41,16.61,51.9-6c8.44-17.54-3.09-29.47-3.09-29.47" fill="none" stroke="#161819" stroke-linecap="round" stroke-linejoin="round" stroke-width="5"/><path d="M166.17,812c0,.67.06,1,.06,1,0-.34.08-.69.12-1Z" fill="none"/><path d="M759.69,812h-.91c-.08.37-.16.71-.24,1A6.56,6.56,0,0,0,759.69,812Z" fill="none"/><path d="M285,812l.51,1s-.12-.36-.33-1Z" fill="none"/><path d="M124.64,790.33c-3.59,4.31,1.42,17.83,2.94,21.66h14l-4.36-6.54C132.2,797.89,128.84,785.29,124.64,790.33Z" fill="#161819"/><path d="M123.37,780.25c5.71.33,8-18.48,0-37s-9.65-21.84-16-18.06.42,20.16,5.88,33.18S116.22,779.83,123.37,780.25Z" fill="#161819"/><path d="M153.23,807.41c-1.9-6.47-4.94-16.93-6.33-22.35-2.1-8.21-.84-22.45-8.82-23.29s-7.14,11.34-2.52,27.4c3.66,12.72,8.1,20.23,9.17,22.82h9.73A31.62,31.62,0,0,1,153.23,807.41Z" fill="#161819"/><path d="M166.17,812c-.24-4.27-1-21.63.06-45.6,1.26-27.73,6.72-45.79-4.2-52.51S150.69,734,150.27,754.2c-.36,16.87.47,41.07,3,53.21.59,2,1.06,3.6,1.35,4.58Z" fill="#161819"/><path d="M154.58,812c-.29-1-.76-2.59-1.35-4.58a31.62,31.62,0,0,0,1.23,4.58Z" fill="#161819"/><path d="M186,767.65c-7.82-.83-17.65,27.77-19.62,44.34h6c1.89-3.08,7.77-12.7,13.65-22.82C193.11,776.89,194,768.49,186,767.65Z" fill="#161819"/><path d="M194.37,789.17c-8.47-.64-14,18.18-15.17,22.82h10C192,807.51,202.81,789.82,194.37,789.17Z" fill="#161819"/><path d="M221.26,758.82c-.42-16.8-2.1-32.34-12.6-33.18s-3.78,21-3.78,44.11a396.79,396.79,0,0,1-2.4,42.24h21.07C225.2,801.84,221.66,775.05,221.26,758.82Z" fill="#161819"/><path d="M220.84,721c7-6.66,1.26-41.59,0-52.51s-1.76-22.2-10.08-21c-11.77,1.68-8.41,36.13-4.62,56S213.81,727.68,220.84,721Z" fill="#161819"/><path d="M211.18,642c10.92-6.3,3.78-19.74,0-35.7s-2.78-23-8.83-24.79c-9.66-2.94-9.66,9.24-8.4,20.93S200.25,648.34,211.18,642Z" fill="#161819"/><path d="M159.45,708.42c5.36,1.37,8.88-4.21,12.24-31.93s8.82-69.73,0-69.31S159.51,618.1,157,638.26,144.69,704.63,159.45,708.42Z" fill="#161819"/><path d="M172.53,767.63c2.91,4.39,8-4.57,13.86-22.23s19.35-42.63,11.15-54.09-18,15.8-21.07,34.31S170,763.83,172.53,767.63Z" fill="#161819"/><path d="M143.48,749.58c8.76-2.1,2.16-38.64,0-54.61s-.78-32.34-10.65-31.5-8.61,16.8-2.73,49.35S138.64,750.74,143.48,749.58Z" fill="#161819"/><path d="M213.44,592.05c0,1.27.81,21.43,10.82,25.21s6.66-16.8,8.76-30.25,6.72-33.6-5-37S213.06,568.08,213.44,592.05Z" fill="#161819"/><path d="M269.12,807.31c-2.6-3.49-5.62-8.08-7.11-12.36-2.94-8.4-6.31-15.12-11.77-8.27-4.71,5.9,3.4,21.22,5.71,25.31h14.57C270.23,811,269.75,809.39,269.12,807.31Z" fill="#161819"/><path d="M285,812c-1.94-4-8.85-18.61-9.57-28.14-.84-11.1-1.29-24.18-9.66-24.18-6.72,0-8.82,8.82-4.51,22.26,2.79,8.67,6,19.08,7.84,25.38,1.52,2,2.89,3.69,3.75,4.68Z" fill="#161819"/><path d="M272.87,812c-.86-1-2.23-2.65-3.75-4.68.63,2.08,1.11,3.7,1.4,4.68Z" fill="#161819"/><path d="M252.34,776.47c9.67-.84,2.52-17.22,0-31.07s-7.2-30.19-13.86-24.8C229.66,727.74,242.68,777.31,252.34,776.47Z" fill="#161819"/><path d="M294.1,810.48c-6.79-16.91-5.87-42.51-2.27-60.75,3.78-19.18,9.24-33.75,2.94-36.91s-13.44-2.72-15.54,36.91c-1.85,34.85,4.43,57.34,6,62.26h7.86C293.35,811.6,293.7,811.1,294.1,810.48Z" fill="#161819"/><path d="M306.11,759.67c-8.82,2.52-4.2,15.94-5.46,30.65a44.29,44.29,0,0,1-6.55,20.16c.2.51.41,1,.63,1.51h7.13c2.19-2.22,6.89-8.63,9.72-24.62C315.36,766,314.94,757.14,306.11,759.67Z" fill="#161819"/><path d="M294.73,812c-.22-.49-.43-1-.63-1.51-.4.62-.75,1.12-1,1.51Z" fill="#161819"/><path d="M313.84,794.53c-4.32,9.82-7.23,15.34-8.4,17.46h12c1.41-3.43,5.87-14.61,5.87-19.56C323.34,786.55,319.56,781.51,313.84,794.53Z" fill="#161819"/><path d="M354,769.32c-1.68-6.32-7.14-8-18.06,10.93-9.18,15.89-11.83,28.21-12.44,31.74h10.93c.42-2,1.83-7.22,6.47-16.62C347.12,782.77,355.68,775.63,354,769.32Z" fill="#161819"/><path d="M314.1,663.44c-8.41-.39-8.78,20.66-11.06,62.18-.94,17.29-4.49,28.16,1.81,28.16s11.35-14.13,13.45-42.14S322.5,663.83,314.1,663.44Z" fill="#161819"/><path d="M320.18,776.48c5.06,3.06,10.3-3.51,15.76-26.75s9.24-27.88,0-30.19-8.4,9.91-12.6,25.86S315.33,773.55,320.18,776.48Z" fill="#161819"/><path d="M268.55,753.78c5.22.45,8.58-8.83,5.22-34.24s-2.17-57-14.74-56.11-4,33-1.77,48.21S258.08,752.89,268.55,753.78Z" fill="#161819"/><path d="M231.76,685.68c5.12,13,3.42,30.85,14.64,29.88s-.42-37.81-7.32-45.79S226.3,671.77,231.76,685.68Z" fill="#161819"/><path d="M252.33,642.81c-2.09-9.59-2.93-20.08-9.23-17.56s-6,26.77,3.3,38.16C252.33,670.68,254.42,652.4,252.33,642.81Z" fill="#161819"/><path d="M263.73,659.69c5.1,3.3,6.22-3.36,8.55-10.51s3-16.8-4.28-13S257.88,655.91,263.73,659.69Z" fill="#161819"/><path d="M263.73,633.64c3.82-4.62,0-8-2.45-13.25s-10.29-11.88-10.2-6.51C251.49,637.81,259.91,638.26,263.73,633.64Z" fill="#161819"/><path d="M285.53,706.58c6.16-4.1,8.82-10.79,8.4-23s-3.66-27.44.06-40.81-2.16-18.83-8.46-9.59-2.94,28.57-2.52,44.11S276.29,712.73,285.53,706.58Z" fill="#161819"/><path d="M309.26,661.58c3.2-1.37,6.73-10,2.74-18.77s-11.31-5-10.81,1.33S301.91,664.73,309.26,661.58Z" fill="#161819"/><path d="M320.18,631.47c2.95-4.41,3.16-16.64,3.16-16.64l-10.67,3.37s-3.09,6.55-2,12.43S317.22,635.88,320.18,631.47Z" fill="#161819"/><path d="M325.44,660.56c8.61,1.29,9.87-11.59,10.08-21.25s-4-14.75-7.35-12.69c-3.57,2.22-2.94,3-4.83,10S316.83,659.27,325.44,660.56Z" fill="#161819"/><path d="M326.28,715.59c3,1.54,8-3.81,12.5-16.63s7.71-28.59,2.12-30.78-10,7.47-12.94,21.33S320.61,712.69,326.28,715.59Z" fill="#161819"/><path d="M358,670.82c3.36-6.72,6.31-17.64,2.52-21s-6.09,2.7-10.08,10.8-4.51,11.72-1.89,15.84C351.48,681.11,354.63,677.54,358,670.82Z" fill="#161819"/><path d="M363.24,695.81c6.73-.63,9-19.32,4.63-19.95s-5.47,5.25-7.36,10.92S359.06,696.21,363.24,695.81Z" fill="#161819"/><path d="M362.29,720.6c3.06-5.25,6.6-17.75,0-17.07s-6.61,4.89-10.18,11.19S345,725.64,348.75,728,359.23,725.85,362.29,720.6Z" fill="#161819"/><path d="M354.22,761.35c2.74,1.23,8.53,1.89,10.57-7.57s5.39-20.79-1.34-21.84-10.92,5.91-12.39,13.46S350,759.45,354.22,761.35Z" fill="#161819"/><path d="M382.78,759.67c.21-2.95-1.68-5.89-9.66-3.58s-8.91,6.76-7.09,9.88c.8,1.37,5.2,1.47,8.74-1S382.57,762.61,382.78,759.67Z" fill="#161819"/><path d="M375.64,790.54c2.1-3.36-.63-8.61-8.2-9.87s-11.22,5.23-10.86,8.33C357.48,796.71,373.54,793.9,375.64,790.54Z" fill="#161819"/><path d="M371.86,734.67c-1.05,4.79-1.89,12,2.16,12.27s7.71-10,11.07-14.16,6.3-12-2.3-12.18S373.33,728,371.86,734.67Z" fill="#161819"/><path d="M370.13,707.73a10.07,10.07,0,0,0,12.66-2.05c2.12-2.73,1-8.61-6.47-7.38S367.61,706.18,370.13,707.73Z" fill="#161819"/><path d="M493.68,799c-3.9,3,0,10.25,1.65,13h5.81C497.94,806.74,498.19,795.62,493.68,799Z" fill="#161819"/><path d="M493.89,795.79c3.78-.63,1.48-17-1.89-24.15s-6.3-5.25-6.72-2.1-.37,5.33,1.05,10.29C488.68,788.07,490.11,796.42,493.89,795.79Z" fill="#161819"/><path d="M508.6,807.68c-1.25-5.38-3.05-13.41-3.58-17.14-.84-5.88-6.93-8.19-6.51,2.94A53.75,53.75,0,0,0,502.66,812h6.09C508.71,811.07,508.65,809.57,508.6,807.68Z" fill="#161819"/><path d="M505,773.53c-1-6.51-2.52-22.06-2.31-30.46s-3.36-11.13-7.77-2.31.59,34.68,5.67,39.28C505,784,506.07,780,505,773.53Z" fill="#161819"/><path d="M516.78,768.49c-1.26-2.52-4.62-3.36-6.93,8.61-1.63,8.44-1.48,22.82-1.25,30.58.42,1.84.78,3.37,1,4.31h5.08c0-3.52.32-15.37,2.09-24.39C518.88,776.89,518,771,516.78,768.49Z" fill="#161819"/><path d="M509.61,812c-.23-.94-.59-2.47-1-4.31,0,1.89.11,3.39.15,4.31Z" fill="#161819"/><path d="M520.77,791.8c7.57.63,8.54-13.75,11.56-22.89s5.46-16.6,1.68-18.28-9.88,3.15-12.4,12.82S518.13,791.58,520.77,791.8Z" fill="#161819"/><path d="M520.77,795.83c-4,2.3-5.46,11.89-5.91,16.16h7.64c0-1,.5-3.11,2.27-7C527.92,797.93,526,792.84,520.77,795.83Z" fill="#161819"/><path d="M531.7,805.71c-3.18-1.88-5.82,3.86-6.77,6.28h6.61C532.78,810.41,534.55,807.39,531.7,805.71Z" fill="#161819"/><path d="M513.26,758.48c5.93-1,4.15-11.84,5.94-24.71s4-23.67,0-24.64c-5.78-1.39-8.3,9-9.35,18.61S507.33,759.45,513.26,758.48Z" fill="#161819"/><path d="M533.23,787.6c-3.08,8.4-4.68,11.71-1.74,14.49,4,3.78,17.43-26.46,12.39-28.77S536.32,779.2,533.23,787.6Z" fill="#161819"/><path d="M545,762.82c-.56-2.1-2-4.62-6.36-.63s-3.67,8.06,1.47,6.72C544.93,767.65,545.56,764.92,545,762.82Z" fill="#161819"/><path d="M576.85,747.9c.84-28.14.21-52.09-2.31-57.76s-18.27-10.92-26.46,7.77.63,66.8,6.09,85.07c4.3,14.4,6.78,24.75,8,29h13.25C582.85,798,576.06,774.68,576.85,747.9Z" fill="#161819"/><path d="M598.7,717.24c-9,1-11.76,8.82-12.6,28.16s-4,41.36-4.2,49.55c-.16,6-2.46,13.48-3.67,17H598.1c1.2-10.45,6.6-57.41,7.53-69.34C606.68,729.21,607.73,716.19,598.7,717.24Z" fill="#161819"/><path d="M540.45,749.47c4.06-2.2,2.87-6.61,0-9.55s-3.71,1.4-4.28,6.93C535.93,749.15,536.39,751.66,540.45,749.47Z" fill="#161819"/><path d="M587.15,662.63c-5,10.5-9.88,43.69,0,45.37,4.32.73,8.61-6.94,13.23-18.07s9-20.58,4-28.35S592.19,652.13,587.15,662.63Z" fill="#161819"/><path d="M563.41,681.65c9.66-.12,12.81-3.69,13-11S573.91,650,567,649.81s-11.55,7.57-14.07,23.11C552,678.55,553.75,681.76,563.41,681.65Z" fill="#161819"/><path d="M592.82,653.18c3.15-2.74-.21-6.73-3.78-16.39s-3.78-13.65-11.56-13.23-6.09,16.59,5,28.35C585.59,655.15,589.67,655.91,592.82,653.18Z" fill="#161819"/><path d="M614.24,784.45c-6.3-4-9.87,3.57-7.93,10.5,1.44,5.17,6.55,13.26,9.05,17h12.08l-3.33-7.48C620.33,796,620.54,788.44,614.24,784.45Z" fill="#161819"/><path d="M640.71,790.54c-2.1-7.56-8.4-24.57-13.66-19.48s.63,19.06,2.73,27.64c1.41,5.73,3,10.65,3.89,13.29h8.75C642.45,807.42,642.34,796.43,640.71,790.54Z" fill="#161819"/><path d="M653.1,779c-5.67-1.47-8.19,6.51-8.19,16v17H651c.49-1.85,1.23-5,2.07-9.57C654.57,794.34,658.77,780.46,653.1,779Z" fill="#161819"/><path d="M619.7,772.92c2.92,1.3,6.51-2.39,4.2-7.3s-4-10.18-7.06-16.15-6-6.42-9.11-1.15S609.41,768.32,619.7,772.92Z" fill="#161819"/><path d="M613.4,741.81c5.88-1,4.41-6.93,3.44-12.39s-7.64-4.2-8.27.84S608.37,742.71,613.4,741.81Z" fill="#161819"/><path d="M635.72,735.51c-8.14,1.68-3.41,10.71-2,20.79s1.49,14.12,4.09,16.89C648.06,784.18,643.86,733.83,635.72,735.51Z" fill="#161819"/><path d="M653.31,776.05c3,2.07,8-3.32,9-11.43s2.52-29.74,2.31-35.41-4.95-6.51-8.67.84S649.32,773.32,653.31,776.05Z" fill="#161819"/><path d="M672.63,764.62c-2.52-2.81-6.51-1-10.08,11-3.14,10.54-2.22,31.51-1.95,36.36h7.67a99.3,99.3,0,0,1,1.63-11.37C671.58,791.8,675.15,767.44,672.63,764.62Z" fill="#161819"/><path d="M677.25,792.1c-4.37,6.37-5,16.64-5,19.89H686.9c-.06-3.41-.3-14.35-.82-17.88C685.45,789.91,682.5,784.45,677.25,792.1Z" fill="#161819"/><path d="M693.85,789.7c-3.15-1.05-5.25.42-4.83,9,.31,6.45.15,11.28.05,13.29h5c.08-2.06.32-6.89.8-11.35C695.53,794.77,697,790.75,693.85,789.7Z" fill="#161819"/><path d="M700.15,781.51c3.57-5.46,4.29-24.74,0-24.16-9.24,1.26-12.6,20.59-11.19,26S696.58,787,700.15,781.51Z" fill="#161819"/><path d="M679.56,776.49c3.28,2.7,7.68-2.08,9.09-11.87s4.78-28.69-2.57-27.64-8.41,14.91-9,24.16S677,774.42,679.56,776.49Z" fill="#161819"/><path d="M631.07,732.36c2.8,1,6.49.63,2.61-4s-3.48-19.32-5.79-24.16-7.77-4-8.4,9.67S628.66,731.53,631.07,732.36Z" fill="#161819"/><path d="M613.05,707c4.56,1.67,7.36-2.32,4.7-6.73s-3.33-10.26-9.4-8.91S603.87,703.58,613.05,707Z" fill="#161819"/><path d="M698.68,797.47c-1.84,5.34-1.55,12-1.36,14.52h6.08c.53-1.83,1.64-5.86,2.42-9.9C706.87,796.63,701,790.75,698.68,797.47Z" fill="#161819"/><path d="M721.78,780.88c-.21-17-1-43.69-9.45-43.94s-5.46,5.71-4.83,37.82c.45,23.13.25,33.33.11,37.23h14.55C722.35,807,721.94,793.88,721.78,780.88Z" fill="#161819"/><path d="M727.24,798.7c-2.26,3.76,1.22,10,3.36,13.29h11.26c-1-1.88-2.67-4.87-4.54-8.25C734.17,798,730.39,793.48,727.24,798.7Z" fill="#161819"/><path d="M751.82,809.37c-4-12.66-12.05-29.44-17.07-30.56-5.51-1.22-8.14,3.75-2.68,12.15,4.21,6.47,10.29,16.68,12.85,21h6.73C751.69,811.45,751.75,810.56,751.82,809.37Z" fill="#161819"/><path d="M758.78,812c2.33-10.67,3.1-42.81,2.49-53.07-.63-10.62-3.35-17.08-7.35-17-6.51.07-3.78,15-2.31,33.63a266.52,266.52,0,0,1,.21,33.85c.28.9.53,1.77.77,2.62Z" fill="#161819"/><path d="M752.59,812c-.24-.85-.49-1.72-.77-2.62-.07,1.19-.13,2.08-.17,2.62Z" fill="#161819"/><path d="M772.61,776.49c-3.78-.39-5,.82-6.72,17-1.2,11.59-4.46,16.6-6.2,18.51h7.78c1.83-2.62,6.53-9.91,7.87-17.53C777,785,777.69,777,772.61,776.49Z" fill="#161819"/><path d="M783.74,800.64c.84-4.82-4.83-5.69-7.17.57A49.7,49.7,0,0,1,770.64,812h9.89A87,87,0,0,0,783.74,800.64Z" fill="#161819"/><path d="M782.69,788.24c4.41.83,8.4-11.94,10.72-24.77s2.73-16.83-1.48-16.83-6.9,5-11.13,29.8C779.77,782.47,778.28,787.41,782.69,788.24Z" fill="#161819"/><path d="M778.49,739.71c3.36-21.21,5.82-35.08-1.92-36.55s-6.69,9.67-8.16,25-4.44,37.3-.85,42C770.37,773.78,775.13,760.93,778.49,739.71Z" fill="#161819"/><path d="M728.08,722.07c-8.82,1.68.63,18.27,3.78,26.88s4.29,32,13.66,32.35c4.25.17.63-22.69-2.52-35.5S736.9,720.39,728.08,722.07Z" fill="#161819"/><path d="M754.55,732.8c10.29-1.66,6.3-32.16,4-48.75s-7.14-25.18-11.09-25.41c-7.09-.42-3.19,17-1.51,38.22S744.26,734.46,754.55,732.8Z" fill="#161819"/><path d="M714.35,730.89c9.37-4.2,6-34.45,4.49-48.1s-6.32-19.15-12.35-16.59c-10.88,4.62-4.87,32.34-3.39,44.53S705,735.09,714.35,730.89Z" fill="#161819"/><path d="M680.61,698.66c-4.83-1.38-7.35,1.77-10.08,15.22s-4.55,28.16,3,30.78c3.77,1.31,3.53-4,7.1-19.91S685.45,700,680.61,698.66Z" fill="#161819"/><path d="M670.32,699.22c3.49,1.17,3.78-6.14,1.89-15s-4-8.61-7.54-7.14S662.34,696.54,670.32,699.22Z" fill="#161819"/><path d="M639,695.77c-3.57,6.55-3.57,25.05,1.68,36,1.89,3.93,7.14,3.77,8.82-1.27s-1-17.55-1.89-28.94S642.6,689.22,639,695.77Z" fill="#161819"/><path d="M637.46,686.78c2.66,1,6.19-8,2-14.49s-8.83-3.36-9.88,0S630.43,684.05,637.46,686.78Z" fill="#161819"/><path d="M652.89,683.84c2.31-4.41,1.68-9.66-4-9.66s-6.3,10.92-4,14.91C646.63,692.07,650.58,688.25,652.89,683.84Z" fill="#161819"/><path d="M690.66,677.68c6.89,1.82,8.23-1,7.18-9.18s-6.51-27.93-11.55-37-9-11-12.92-9.45c-6,2.31-4.1,13.44,2.6,23.94S683.76,675.86,690.66,677.68Z" fill="#161819"/><path d="M709.18,661.79c2.6,2,5,.19,10.08-6.94s9-15.12,13.44-24.36,2.94-17.22-3.15-20-11.5,0-15.2,9.66S702.67,656.75,709.18,661.79Z" fill="#161819"/><path d="M709.18,611.8c5.64-.38,5-10.08,4.41-19.33s-3.15-15.33-8.82-14.7-9,5-6.61,14.7S702.88,612.22,709.18,611.8Z" fill="#161819"/><path d="M248,537.86c.94-8-.95-14.7-12.34-14.38s-2.9,18.84,0,24.57C241,558.54,247.09,545.85,248,537.86Z" fill="#161819"/><path d="M211.18,554.35c5.32-1.12,6.61-7.87,7.87-18.59s-.34-21.74-13.87-22.68-14.17,9.14-11.81,20.64S202.26,556.24,211.18,554.35Z" fill="#161819"/><path d="M423.35,398.77s2.42-18.41,18.22-20.35,14.39-3.27,25.35,0,31.39,8,38.46,1.05,18.12-19.85,4.79-37.92c0,0-7.47,15.17-42.75,7.17S412.89,363.05,411,367.79s-7.25,16.87-1,32.7l3.27,2.24,7.85-.63Z" fill="#161819"/><path d="M361.56,425.67s-41.89,18-68.83,61.27S266,561.92,272,594.36s40.71,22.94,40.71,22.94,31.44-10.19,56.49-32.58,35-55.77,35-55.77,10.79-29.45,9.11-55.49C413.23,473.46,400.63,443,361.56,425.67Z" fill="#161819"/><path d="M416.88,476.32l20.07.39a27.07,27.07,0,0,0,21.86,12c14.92.32,21.71-6.18,21.71-6.18L493,474.75l21,.39s2.2-16.9,13.43-31,20.58-20.58,20.58-20.58,29.78,6.15,74.75,44,57.73,88.56,57.73,88.56,7,23.62-10.24,33.28S609,599.83,609,599.83s-37-14-69.34-54.84l-2.44,2S553.12,576,574.12,593.6c0,0-18.87,69.12-33.38,85.39,0,0-27.66,14.25-99.17,7.87,0,0-9.14-56.76-34.49-69.13,0,0-23.12-5.66-30.33,34.46,0,0-11.72-29.28-10.72-42.88,0,0,25.46-22.67,30.45-59.94s16.76-72.66,16.76-72.66Z" fill="#161819"/><path d="M426.58,423.59,447,396.89s6.34,9,13.69,7,9.56-4.65,12.11-6.6,8.76-6.88,16.05-3.62h1.85l-19.22,25.11s-11.1-3.74-16.77-1.4-6.71,11.35-18,10.54S426.58,423.59,426.58,423.59Z" fill="#161819"/><path d="M441.57,393.63l-19,24.81s-7.6-6.88.76-19.67S441.57,393.63,441.57,393.63Z" fill="#161819"/><path d="M475.72,423.59l20.42-26.7s13.23,10.85,3.08,23.44-20.79,6.38-20.79,6.38Z" fill="#161819"/><path d="M255.92,405.14a16.2,16.2,0,0,1-2.92,2.34,7,7,0,0,1-14.06,0,16.55,16.55,0,0,1-2.92-2.34c-3.33-3.33-4.73-7.34-3.12-8.95s5.62-.21,8.95,3.13a16.36,16.36,0,0,1,1.32,1.47,7,7,0,0,1,5.61,0,16.23,16.23,0,0,1,1.31-1.47c3.34-3.34,7.34-4.74,9-3.13S259.26,401.81,255.92,405.14Z" fill="none" stroke="#161819" stroke-linecap="round" stroke-linejoin="round" stroke-width="5"/><path d="M716.66,266.34a17,17,0,0,1-2.92,2.34,7,7,0,0,1-14.07,0,17,17,0,0,1-2.92-2.34c-3.33-3.33-4.72-7.34-3.12-8.95s5.62-.21,9,3.12A17.81,17.81,0,0,1,703.9,262a7,7,0,0,1,5.61,0c.4-.5.84-1,1.31-1.48,3.34-3.33,7.34-4.73,9-3.12S720,263,716.66,266.34Z" fill="none" stroke="#161819" stroke-linecap="round" stroke-linejoin="round" stroke-width="5"/><path d="M376,285.08a16.11,16.11,0,0,1-2.92,2.34,7,7,0,0,1-14.06,0,16.11,16.11,0,0,1-2.92-2.34c-3.33-3.33-4.73-7.34-3.12-8.94s5.62-.21,9,3.12a17.51,17.51,0,0,1,1.31,1.47,7,7,0,0,1,5.62,0,17.51,17.51,0,0,1,1.31-1.47c3.33-3.33,7.34-4.74,9-3.12S379.31,281.75,376,285.08Z" fill="none" stroke="#161819" stroke-linecap="round" stroke-linejoin="round" stroke-width="5"/><path d="M625.66,391.6a16.55,16.55,0,0,1-2.92,2.34,7,7,0,0,1-14.06,0,16.55,16.55,0,0,1-2.92-2.34c-3.33-3.33-4.73-7.34-3.12-9s5.62-.21,9,3.13a14.84,14.84,0,0,1,1.31,1.47,7,7,0,0,1,5.62,0,14.84,14.84,0,0,1,1.31-1.47c3.33-3.34,7.34-4.74,8.95-3.13S629,388.27,625.66,391.6Z" fill="none" stroke="#161819" stroke-linecap="round" stroke-linejoin="round" stroke-width="5"/><path d="M765.57,566.1a16.55,16.55,0,0,1-2.92,2.34,7,7,0,0,1-14.06,0,16.2,16.2,0,0,1-2.92-2.34c-3.34-3.33-4.73-7.34-3.12-9s5.62-.21,9,3.13a14.84,14.84,0,0,1,1.31,1.47,7,7,0,0,1,5.62,0,14.84,14.84,0,0,1,1.31-1.47c3.33-3.34,7.34-4.74,9-3.13S768.9,562.77,765.57,566.1Z" fill="none" stroke="#161819" stroke-linecap="round" stroke-linejoin="round" stroke-width="5"/></svg>