<svg id="Layer_1" data-name="Layer 1" xmlns="http://www.w3.org/2000/svg" xmlns:xlink="http://www.w3.org/1999/xlink" viewBox="0 0 900 900"><defs><clipPath id="clip-path"><path d="M377.91,585.88l-14.13,20-275.5,9.26c4.5-142.36,100-285.64,229.29-303Z" fill="none"/></clipPath></defs><title>Big Guy Illustrations Pack - Scene 8</title><path d="M652.69,580l26.9-13.16s9,14.58,24.14,18.28a64.31,64.31,0,0,0,28.09.43s10.42-3.88,17.94-9.76S770.61,569,770.61,569,764.2,559.25,760,532.3s-25.57-32.81-42.32-31.19c0,0-.34-1.71,1.08-5.43s-7.28-9.8-12.06-3.14-8,10.92-6.08,15c0,0-21.64,3.77-25,31.66l-2.11,1.71-29-2.46S625.91,561.43,652.69,580Z" fill="#f4f2ed"/><path d="M694.55,598.22s2.25-11,13.59-11.9a52.45,52.45,0,0,0,20.27,0c10.92-2.21,21.35-10.51,21.35-10.51s14.44-6.32,18.23-2.94,3.46,7.88,1.77,12.18S754.22,611,737.16,618.8a79,79,0,0,1-33.43,7S699.23,608.87,694.55,598.22Z" fill="#f4f2ed"/><path d="M572.7,614.71s11.47-10.15,21.81-11.59,32.25-4,29.42-10.5-22.7-27.34-59.63-14.28c0,0,4.58,19,4.58,26.88S569.39,617.35,572.7,614.71Z" fill="#f4f2ed"/><rect x="245.1" y="313.54" width="13.76" height="497.56" fill="#f4f2ed"/><path d="M694.55,665.08H773s50.41-25,58.81-46c0,0-17.59-31.09-60.88-39.07,0,0-85.69,23.67-91.38-13.16L652.69,580l2.31,18.2Z" fill="#f4f2ed"/><path d="M550.76,542s4.69-55.2,35.77-80.83c0,0,39.63,22.43,57.2,74.86v3.72s-9.51,12.43-3.19,23.61A52.73,52.73,0,0,0,655,580v15.61l37.39-1.33s14.28,25.63,11.34,46.63c0,0-22.27,24.15-74.36,24.15H527.29s8.59-6.61,11.21-15c0,0,22.61,3.84,41.41.06,0,0,5.11-15,1.87-39.85l3.84-4s35.81-4.9,38.31-13.73-24.36-18.21-32.77-18.18c0,0-11.32-.21-16.82,1.37,0,0-3.59-15.34-19.85-30.56Z" fill="#161819"/><path d="M669,540.84l6.34.11s1.9-26.63,24.58-33.4c0,0,1.68-18.22,14.49-17.61s1.89,11.31,1.89,11.31,19.55-2.66,27.3,4.32,14.27,14.88,16.7,28.65.46,35.17,16.88,38,22.3-3.9,22.3-3.9-20.82-9.45-15.29-36.89,12.07-28.59-9.43-49.21S707,464,690.7,484.24,665.42,508,669,540.84Z" fill="#161819"/><path d="M187.09,313.54h58V587s-49.53,10.21-69.24,30-22.59,39.89-27.13,48.09H98.55Z" fill="#161819"/><path d="M258.86,583.2s41.44-9.63,67.35-28.15,42-31.88,42-31.88L316.52,313.54H258.86Z" fill="#161819"/><path d="M62.27,811.09H245.1V775.6s-65.74,1.9-102.18-10.83-40-14.62-40-14.62l.54-5.67s-17.15.53-23.06-5.6Z" fill="#161819"/><path d="M258.86,811.1H440.7l-16.48-66.62h-7.93l-1.47,14.95s1.5,9.43-19.93,12.26-102.84,4.08-102.84,4.08l-33.19,0Z" fill="#161819"/><path d="M538.5,650.11l31.84-9.18s7.86-65.52-20.53-92.62h0l-3.17,34.89-3.44,42.71S542.15,643.75,538.5,650.11Z" fill="#161819"/><path d="M253.82,775.77,384,772.71h0c2.89-24.5,7.6-50.29,28.08-71.25s61.74-31.52,84.62-38.57,27.22-20.28,30.18-56.44-2.12-67.6,9-107.32,34.48-46.45,34.48-46.45h0c-8.69-4.53-33.15-8.91-33.15-8.91-5.23-.56-43.08-1.54-76.69,11.49s-63.85,42.84-81.78,58.8-44.33,42.6-82.74,56.48c-29.47,10.65-46,15.12-46,15.12l-41,12.56s-35.89,10.08-48.08,38.47S149,670,135.48,684.68s-30.58,31.86-32.57,65.47h0s22.89,18.19,65.67,20.8,85.24,4.82,85.24,4.82" fill="#161819"/><path d="M703.73,630.39s4.62,3,30.66-2.48,39-8,56.91-7.14,11.29-19-28.9-22.55c0,0-6.68,12.78-21,18.77s-22.17,10.5-37.71,8.82Z" fill="#161819"/><polygon points="187.09 313.54 316.52 313.54 287.67 199.11 215.94 199.11 187.09 313.54" fill="#e0b146"/><path d="M414.82,759.43s-1.63-26.58,19.71-48.8,23.34-20.11,55.22-31.88,47.76-15.19,50.6-33.91,9-93.24,9.46-96.53,7.32-67,36.72-87.18l-16.19-8.45s-28.26,15.55-33.58,41.85-5.94,41.25-8.55,79.75,1.18,59.93-12.68,75.89-34.39,14.82-71.39,30.3-53.88,41.7-60.13,92.24C384,772.71,411.1,773.39,414.82,759.43Z" fill="#e0b146"/><path d="M358.85,773.57s-9.11-42.75,15.18-68.79,41.21-32.94,51.84-37.35,40.41-12.32,51.28-29.78,20.08-19.21,17.47-72.66-1.51-93.24,50.66-119.34c0,0-13.37-2.18-23.45-1.88,0,0-26.08,10.72-36.56,42s-6.42,69.47-8.45,90.06-3.26,49.17-29.21,64.73-63.71,30.84-85.69,59.72-16.1,48.84-16.1,73.31C345.82,773.57,353.82,775.15,358.85,773.57Z" fill="#e0b146"/><path d="M447.61,461.31l19.23-8.05s-12.8,14.6-15.45,27.62-5.71,25.24-9.64,64.71-13.3,63.75-35.86,80.32-58.28,38-71.8,62-28.6,42.32-18.52,85.69l-2,1.78-11.93.25s-8.49-39.32,1.05-67.25,20.13-40,52.64-61.9,51.86-34.93,60.25-66.43,16.89-86.54,16.89-86.54S435.56,469.46,447.61,461.31Z" fill="#e0b146"/><path d="M372.7,519.33l38.4-33.58s-5.09,23.71-7.79,33.58-11,47-33.19,76.3-34.18,26.17-65.57,56.53-46.26,64-34,123.44l-16.73.17s-8.21-23.1-8.72-42.42,6-48.53,26.7-72.32,59.88-57.27,67.58-70.19S368.91,560.29,372.7,519.33Z" fill="#e0b146"/><path d="M331.84,551s-1.82,24.62-35.53,51.92-62.19,47.22-78.59,89-6.36,81.62-6.36,81.62a28.61,28.61,0,0,1-18.86-.86S180,735,197.8,689.64s53.89-72.2,53.89-72.2,28.24-16.44,36-44.57c0,0,12.54-2.74,21.06-7.88S331.84,551,331.84,551Z" fill="#e0b146"/><path d="M245.1,587s-9.09,14.59-22.24,21.64-33.48,39.74-44.32,58.26-22.31,70.51-12.79,103.54c0,0-22.06-.71-25.18-6.52,0,0-8.17-40,6.33-73.54s36.66-64.5,36.66-64.5l23.16-25.68S220.57,593.76,245.1,587Z" fill="#e0b146"/><path d="M135.48,684.68S119.15,716,122.21,757.44h-3.44l-15.86-7.29S101.15,715.83,135.48,684.68Z" fill="#e0b146"/><path d="M549.81,548.31s10,5.55,16.42,30l8.11-2.47S568,554,550.76,542Z" fill="#e0b146"/><path d="M545.28,648.82s19.19,6.39,34.63,1.35c0,0,7.66-20.41,0-41.5L570.34,617v23.94A62.45,62.45,0,0,1,545.28,648.82Z" fill="#e0b146"/><path d="M648.21,664s38.9-6.7,55.52-23c0,0,3.06,11.76-9.18,24.15Z" fill="#e0b146"/><path d="M791.3,508.18A64.28,64.28,0,0,0,785,527.67c-1.69,11.19-1.92,27.87,6.29,34.24l8.21,6.37s-6-14-4.68-26.32S799.9,514.91,791.3,508.18Z" fill="#e0b146"/><path d="M770.6,663.3s40.67-14.81,61.25-44.21c0,0,5,4.62,5.88,15.12,0,0-8.4,18.06-42.43,30.87Z" fill="#e0b146"/><path d="M416.29,744.48H791.78s21.45,1.23,27-25.53-6.8-43.26-6.8-43.26-4.89-10.61-25.9-10.61S641.14,664,641.14,664l-116,.79s-10.51,5.45-39.89,15.56S432.36,707.3,421.43,730Z" fill="#e0b146"/><polygon points="670.96 811.1 690.71 811.1 688.18 744.49 673.48 744.49 670.96 811.1" fill="#161819"/><path d="M148.73,665.08s-2.42,12.73-13.25,19.6-24.88,25.77-32,59.8c0,0-23.14,2.65-29.16-12s-15-32.51,5.08-61c0,0,6.33-7,22.65-6.41S148.73,665.08,148.73,665.08Z" fill="#e0b146"/><path d="M525.16,665.08H788.74c21.92,0,31.56,17.78,31.56,39.7,0,11-2.41,20.89-7.56,28.07s-13,11.63-24,11.63H416.29" fill="none" stroke="#161819" stroke-linecap="round" stroke-linejoin="round" stroke-width="5"/><path d="M103.45,744.48h-4.9c-21.92,0-31.56-17.77-31.56-39.7,0-11,2.41-20.89,7.56-28.07s13-11.63,24-11.63h50.18" fill="none" stroke="#161819" stroke-linecap="round" stroke-linejoin="round" stroke-width="5"/><path d="M770.61,569C742.25,572.18,746,588.21,716.33,587s-43.48-20.16-41-46A39.53,39.53,0,0,1,700,507.55c0-7.56,5.67-18.27,14.49-17.61s1.89,11.31,1.89,11.31c47.89-5.67,42.85,39.7,49.15,59.86s34.66,8.2,34.66,8.2-8.2-11.35-4.42-35.92-12.89-61.75-58.11-64.9S660.17,509.84,669,540.84" fill="none" stroke="#161819" stroke-linecap="round" stroke-linejoin="round" stroke-width="5"/><path d="M679.59,566.86,652.69,580c-24-18.91-8.19-41.56-8.19-41.56C657.73,541,675.37,541,675.37,541" fill="none" stroke="#161819" stroke-linecap="round" stroke-linejoin="round" stroke-width="5"/><path d="M743.63,557.33s-11.34,1.26-12.18,7.57c0,0-4.62,1.29-6.3-5.66" fill="none" stroke="#161819" stroke-linecap="round" stroke-linejoin="round" stroke-width="5"/><path d="M703.73,548.51s18.06-2.84,21.42,12.65-10.71,17.18-10.71,17.18Z" fill="#161819"/><path d="M626.43,594.3s43.69,1.68,66,0c0,0,13,20.58,11.34,46.63,0,0-13,18.06-70.16,24.15" fill="none" stroke="#161819" stroke-linecap="round" stroke-linejoin="round" stroke-width="5"/><path d="M703.73,625.81s28.56,2.52,49.57-17.65,18.33-31.42,15.12-34.86-6.59-3.63-12.31-.74" fill="none" stroke="#161819" stroke-linecap="round" stroke-linejoin="round" stroke-width="5"/><path d="M694.55,598.22s1.74-9.73,9.58-12.53" fill="none" stroke="#161819" stroke-linecap="round" stroke-linejoin="round" stroke-width="5"/><path d="M795.3,665.08s26.05-9.45,42.43-30.87c0,0-1.26-9.24-3.78-15.12,0,0-25.05-31.51-63.35-39.07" fill="none" stroke="#161819" stroke-linecap="round" stroke-linejoin="round" stroke-width="5"/><path d="M834,619.09s-34,36.12-68.89,46" fill="none" stroke="#161819" stroke-linecap="round" stroke-linejoin="round" stroke-width="5"/><path d="M586.53,461.13C544,495,547.14,593.25,542.42,633.89c-2,17.26-7.59,25.49-17.26,31.19-13.1,7.73-33.71,10.83-63.08,25.53-32,16-42.43,38.94-45.79,53.87a53.78,53.78,0,0,0-1.47,14.95s0,15.29-55.77,15.55-78.45,1.64-147.44,0-108.7-24.83-108.7-24.83.06-2.11.54-5.67c1.36-10.13,6.06-32,22.14-50.31,15.51-17.68,17.39-16.92,23.14-29.09,2.31-4.89,5.24-11.88,10-23,16.38-38.76,49.14-44.43,111.53-62.07s94.51-55.45,144.92-97.67,126.45-50.62,171.4-21.22,58,77.33,58,77.33" fill="none" stroke="#161819" stroke-linecap="round" stroke-linejoin="round" stroke-width="5"/><path d="M570.34,617c6.52-6.73,14.09-10.93,24.17-13.87,0,0,37.8-3.36,27.72-14.28s-30.94-20.16-56-10.5" fill="none" stroke="#161819" stroke-linecap="round" stroke-linejoin="round" stroke-width="5"/><path d="M652.69,580a42.85,42.85,0,0,1,2.31,12.6" fill="none" stroke="#161819" stroke-linecap="round" stroke-linejoin="round" stroke-width="5"/><polygon points="690.71 811.1 670.96 811.1 673.48 744.48 688.18 744.48 690.71 811.1" fill="none" stroke="#161819" stroke-linecap="round" stroke-linejoin="round" stroke-width="5"/><path d="M570.34,452.68s-29.81,12-37.37,57.4-1.89,109-12.29,132-23.63,18.28-69,35.29-65.51,52.52-67.72,96.2" fill="none" stroke="#161819" stroke-linecap="round" stroke-linejoin="round" stroke-width="5"/><path d="M545.28,445.65s-35,12.44-47.29,54,8.51,94.62-15.12,130-34,22.16-79.39,49.57-49.15,64.8-44.43,95.73" fill="none" stroke="#161819" stroke-linecap="round" stroke-linejoin="round" stroke-width="5"/><path d="M524.46,443.77S491.38,454.31,481.93,495s5.23,99.35-22.69,134.74-126.65,41.6-113.42,143.88" fill="none" stroke="#161819" stroke-linecap="round" stroke-linejoin="round" stroke-width="5"/><path d="M477.15,450s-26.41-1.15-33.5,77.65S421.15,619.09,384,642.08s-83.51,70.79-68.39,131.49" fill="none" stroke="#161819" stroke-linecap="round" stroke-linejoin="round" stroke-width="5"/><path d="M447.61,461.31s-12,7.18-17.67,41.2-9.45,82.83-28.35,106.16-35,27.11-70.89,56.41-37.81,83.71-27.41,108.49" fill="none" stroke="#161819" stroke-linecap="round" stroke-linejoin="round" stroke-width="5"/><path d="M411.1,485.75a564.81,564.81,0,0,1-16.21,62.56c-11.26,35.49-28.28,56.39-62.3,81.38s-79.4,58.61-62.38,143.88" fill="none" stroke="#161819" stroke-linecap="round" stroke-linejoin="round" stroke-width="5"/><path d="M372.7,519.33s-.41,38.58-41.06,79.88S222,688.3,253.19,773.57" fill="none" stroke="#161819" stroke-linecap="round" stroke-linejoin="round" stroke-width="5"/><path d="M332.44,551s-2.69,26.78-43.33,57.67S195.54,683.56,211.61,775" fill="none" stroke="#161819" stroke-linecap="round" stroke-linejoin="round" stroke-width="5"/><path d="M287.67,574.28s-.45,14.45-35.42,42.71-77.51,83.6-59.55,156.58" fill="none" stroke="#161819" stroke-linecap="round" stroke-linejoin="round" stroke-width="5"/><path d="M245.1,587s-5.14,7.4-25.93,24.78-69.83,76.91-53.35,158.67" fill="none" stroke="#161819" stroke-linecap="round" stroke-linejoin="round" stroke-width="5"/><path d="M209,598.22a191.13,191.13,0,0,0-39,48.23c-17,30-23.63,40.37-29.3,64s0,54.32,0,54.32" fill="none" stroke="#161819" stroke-linecap="round" stroke-linejoin="round" stroke-width="5"/><path d="M122.35,758.82s-5-41.85,14.83-77.32" fill="none" stroke="#161819" stroke-linecap="round" stroke-linejoin="round" stroke-width="5"/><polygon points="316.52 313.54 187.09 313.54 215.94 199.11 287.67 199.11 316.52 313.54" fill="none" stroke="#161819" stroke-linecap="round" stroke-linejoin="round" stroke-width="5"/><line x1="310.51" y1="289.7" x2="368.25" y2="523.17" fill="none" stroke="#161819" stroke-linecap="round" stroke-linejoin="round" stroke-width="5"/><polyline points="424.22 744.48 440.7 811.1 62.27 811.1 80.4 738.88" fill="none" stroke="#161819" stroke-linecap="round" stroke-linejoin="round" stroke-width="5"/><line x1="197.8" y1="271.04" x2="98.91" y2="665.08" fill="none" stroke="#161819" stroke-linecap="round" stroke-linejoin="round" stroke-width="5"/><polyline points="258.86 775.73 258.86 811.1 245.1 811.1 245.1 775.6" fill="none" stroke="#161819" stroke-linecap="round" stroke-linejoin="round" stroke-width="5"/><polyline points="245.1 587.03 245.1 314.36 258.86 314.36 258.86 583.2" fill="none" stroke="#161819" stroke-linecap="round" stroke-linejoin="round" stroke-width="5"/><path d="M737.16,530s-4.87,3-2.77,8.43,9.24,2.91,9.24,2.91" fill="none" stroke="#161819" stroke-linecap="round" stroke-linejoin="round" stroke-width="5"/><path d="M749.1,565s-4.2,4.81,0,9.29" fill="none" stroke="#161819" stroke-linecap="round" stroke-linejoin="round" stroke-width="5"/><path d="M703.73,640.93a41.56,41.56,0,0,1-9.18,24.15" fill="none" stroke="#161819" stroke-linecap="round" stroke-linejoin="round" stroke-width="5"/><path d="M789,499.13s3.76,13.68-4.22,30.9,6.3,37,15.34,39.28" fill="none" stroke="#161819" stroke-linecap="round" stroke-linejoin="round" stroke-width="5"/><path d="M581.78,610.32s3.91,26.83-1.87,39.85c0,0-9.2,4.51-41.41-.06a178,178,0,0,0,30.38-8s9.32-69.61-19.07-93.77" fill="none" stroke="#161819" stroke-linecap="round" stroke-linejoin="round" stroke-width="5"/><path d="M574.34,575.81A76.83,76.83,0,0,0,550.76,542" fill="none" stroke="#161819" stroke-linecap="round" stroke-linejoin="round" stroke-width="5"/><g clip-path="url(#clip-path)"><path d="M148.36,636.31a24.52,24.52,0,1,1,24.51-24.52A24.55,24.55,0,0,1,148.36,636.31Zm0-44a19.52,19.52,0,1,0,19.51,19.51A19.54,19.54,0,0,0,148.36,592.28Z" fill="#e0b146"/><path d="M216.54,473.75a12.36,12.36,0,1,1,12.35-12.35A12.36,12.36,0,0,1,216.54,473.75Zm0-19.71a7.36,7.36,0,1,0,7.35,7.36A7.36,7.36,0,0,0,216.54,454Z" fill="#e0b146"/><polygon points="175.89 561.34 176.43 568.95 180.99 575.07 173.38 575.6 167.26 580.16 166.72 572.55 162.16 566.43 169.78 565.89 175.89 561.34" fill="#e0b146"/><polygon points="303.11 444.08 303.47 449.23 306.56 453.37 301.4 453.74 297.26 456.82 296.9 451.67 293.81 447.53 298.96 447.17 303.11 444.08" fill="#e0b146"/><circle cx="300.18" cy="477.16" r="3.19" fill="#e0b146"/><circle cx="217.72" cy="534.05" r="3.19" fill="#e0b146"/><circle cx="203.55" cy="437.08" r="3.19" fill="#e0b146"/></g></svg>