<svg xmlns="http://www.w3.org/2000/svg" xmlns:xlink="http://www.w3.org/1999/xlink" viewBox="0 0 100 100"><defs><linearGradient id="linear-gradient" x1="36.04" y1="81.87" x2="52.85" y2="62.43" gradientUnits="userSpaceOnUse"><stop offset="0.45" stop-color="#0c2534"/><stop offset="1" stop-color="#1d5a80"/></linearGradient><linearGradient id="linear-gradient-2" x1="359.29" y1="6.26" x2="309.26" y2="99.55" gradientTransform="matrix(-1, 0, 0, 1, 386.51, 0)" gradientUnits="userSpaceOnUse"><stop offset="0.13" stop-color="#fff"/><stop offset="1" stop-color="#145b94"/></linearGradient></defs><title>Computer Accessories Isometric Pack - Scene 1</title><g style="isolation:isolate"><g id="Layer_1" data-name="Layer 1"><polygon points="31.99 74 31.99 73.17 60.23 74.87 60.23 76.61 47.23 83.28 31.99 74" fill="#0c2534"/><path d="M28.68,18.18l11.56,6.57,4.91,32.46H39.64L27.07,50.07V19.82S27,18.06,28.68,18.18Z" fill="#f0f0f0" opacity="0.11" style="mix-blend-mode:screen"/><polygon points="31.99 73.17 44.8 65.67 60.23 74.87 47.23 82.45 31.99 73.17" fill="#1d5a80"/><path d="M46.79,60.48v9.93l4.63,2.64V63.14Zm4.05,7.46a1,1,0,0,1-.54.86s-.06,0-.1,0a1.38,1.38,0,0,1-1.26-.28,3.51,3.51,0,0,1-1.51-3,1.27,1.27,0,0,1,.32-.72l.39-.22a1.43,1.43,0,0,1,1.21.32A3.54,3.54,0,0,1,50.84,67.94Z" fill="url(#linear-gradient)"/><polygon points="52.65 72.33 51.42 73.05 51.42 63.14 52.65 63.94 52.65 72.09 52.65 72.33" fill="#0c2534"/><path d="M27.07,19.82V50.07L71.32,75.22l1.61-1.09V43.34L28.68,18.18C27,18.06,27.07,19.82,27.07,19.82Z" fill="#1d5a80"/><polygon points="70.65 44.91 70.65 73.96 27.62 49.35 27.62 20.15 70.65 44.91" fill="url(#linear-gradient-2)"/><path d="M72.93,74.13l-1.61,1.09V45s-.09-1.77,1.61-1.64Z" fill="#0c2534"/><polygon points="39.56 27.02 45.15 59.37 36.87 54.63 31.96 22.65 39.56 27.02" fill="#f0f0f0"/><path d="M50.73,68.35a.83.83,0,0,1-.43.45s-.06,0-.1,0a1.38,1.38,0,0,1-1.26-.28,3.51,3.51,0,0,1-1.51-3,1.27,1.27,0,0,1,.32-.72l.39-.22a.93.93,0,0,1,.25,0,1.27,1.27,0,0,0-.25.6A3.27,3.27,0,0,0,49.65,68,1.64,1.64,0,0,0,50.73,68.35Z" fill="#0c2534"/></g></g></svg>