<svg xmlns="http://www.w3.org/2000/svg" xmlns:xlink="http://www.w3.org/1999/xlink" viewBox="0 0 100 100"><defs><linearGradient id="linear-gradient" x1="68.23" y1="9.84" x2="18.6" y2="120.75" gradientUnits="userSpaceOnUse"><stop offset="0.13" stop-color="#fff"/><stop offset="1" stop-color="#145b94"/></linearGradient><linearGradient id="linear-gradient-2" x1="27.16" y1="67.16" x2="28.57" y2="64.62" gradientUnits="userSpaceOnUse"><stop offset="0.45" stop-color="#0c2534"/><stop offset="1" stop-color="#1d5a80"/></linearGradient></defs><title>Computer Accessories Isometric Pack - Scene 2</title><g style="isolation:isolate"><g id="Layer_1" data-name="Layer 1"><polygon points="18.39 53.36 18.39 51.17 85.48 42.35 85.48 44.54 44.21 67.97 18.39 53.36" fill="#0c2534"/><polygon points="18.39 51.17 59.66 27.32 85.48 42.35 44.21 65.77 18.39 51.17" fill="#1d5a80"/><polygon points="21.14 51.33 59.64 29.22 82.2 42.35 43.7 64.09 21.14 51.33" fill="url(#linear-gradient)"/><polygon points="20.14 52.81 20.14 53.7 22.52 55.04 22.52 54.15 20.14 52.81" fill="#1d5a80"/><polygon points="23.5 54.68 23.5 55.57 25.88 56.91 25.88 56.02 23.5 54.68" fill="#1d5a80"/><polygon points="21.61 51.59 59.59 29.79 81.73 42.61 82.2 42.35 59.64 29.22 21.14 51.33 21.61 51.59" fill="#0c2534"/><path d="M39.94,56.32a6.26,6.26,0,0,1,5.63.17c1.64.94,1.79,2.39.33,3.24a6.24,6.24,0,0,1-5.62-.16c-1.64-.94-1.79-2.4-.34-3.25M39.36,56c-1.75,1-1.57,2.76.4,3.88a7.45,7.45,0,0,0,6.73.2c1.75-1,1.57-2.76-.4-3.89A7.48,7.48,0,0,0,39.36,56Z" fill="#fff"/><path d="M41,56.94a4,4,0,0,1,3.59.1c1.06.6,1.15,1.54.22,2.08a4,4,0,0,1-3.6-.11c-1-.6-1.15-1.53-.21-2.07m-.38-.22c-1.12.65-1,1.77.26,2.49a4.74,4.74,0,0,0,4.3.12c1.12-.65,1-1.76-.25-2.48a4.79,4.79,0,0,0-4.31-.13Z" fill="#fff"/><polygon points="50.95 34.75 59.72 55.04 65.1 52.01 56.33 31.66 50.95 34.75" fill="#fff"/><path d="M40.29,70.88a2,2,0,0,1-.85,1.61.74.74,0,0,1-.69.15.07.07,0,0,1-.06,0l-.15-.07L16.23,59.62l-1.67-2.35a.2.2,0,0,1,.19-.32l2.86.39,22.31,13,.21.12A.7.7,0,0,1,40.29,70.88Z" fill="#1d5a80"/><path d="M15.34,57l0,0a1.1,1.1,0,0,0-.42.68l-.33-.46a.2.2,0,0,1,.19-.32Z" fill="#0c2534"/><path d="M40.29,70.88a2,2,0,0,1-.85,1.61.74.74,0,0,1-.69.15.07.07,0,0,1-.06,0l-.15-.07L17.92,60.61l-1.69-1-.09-.13a3.58,3.58,0,0,1,1.38-2.16h.09l1.72,1,20.59,12,.21.12A.7.7,0,0,1,40.29,70.88Z" fill="url(#linear-gradient-2)"/><path d="M40.29,70.88a2,2,0,0,1-.85,1.61.74.74,0,0,1-.69.15.07.07,0,0,1-.06,0,.51.51,0,0,1-.28-.47,2,2,0,0,1,.84-1.61.79.79,0,0,1,.67-.17l.21.12A.7.7,0,0,1,40.29,70.88Z" fill="#0c2534"/><path d="M18,58.84l15.8,9.33a.89.89,0,0,0,.84,0h0a.38.38,0,0,0,0-.67l-15.88-9.4a.79.79,0,0,0-.76,0h0A.41.41,0,0,0,18,58.84Z" fill="#f0f0f0" opacity="0.11" style="mix-blend-mode:screen"/></g></g></svg>