<svg id="Layer_1" data-name="Layer 1" xmlns="http://www.w3.org/2000/svg" xmlns:xlink="http://www.w3.org/1999/xlink" viewBox="0 0 100 100"><defs><linearGradient id="linear-gradient" x1="77.93" y1="51.24" x2="51.84" y2="37.11" gradientUnits="userSpaceOnUse"><stop offset="0.45" stop-color="#0c2534"/><stop offset="1" stop-color="#1d5a80"/></linearGradient><linearGradient id="linear-gradient-2" x1="59.31" y1="80.58" x2="56.2" y2="50.76" xlink:href="#linear-gradient"/><linearGradient id="linear-gradient-3" x1="31.36" y1="68.67" x2="66.93" y2="63.85" xlink:href="#linear-gradient"/><linearGradient id="linear-gradient-4" x1="58.76" y1="64.97" x2="43.08" y2="81.28" gradientTransform="translate(128.27 -2.2) rotate(79.98)" gradientUnits="userSpaceOnUse"><stop offset="0.13" stop-color="#fff"/><stop offset="1" stop-color="#145b94"/></linearGradient><linearGradient id="linear-gradient-5" x1="69" y1="31.21" x2="27.69" y2="58.13" gradientTransform="matrix(1, 0, 0, 1, 0, 0)" xlink:href="#linear-gradient-4"/><linearGradient id="linear-gradient-6" x1="39.23" y1="75.02" x2="38.3" y2="44.73" xlink:href="#linear-gradient"/></defs><title>Computer Accessories Isometric Pack - Scene 3</title><path d="M64.13,54.82l4.39-9.94c3.18-7.19.32-14.56-6.37-16.47h0C55.47,26.51,47.47,30.79,44.3,38L39.83,48.08l-2.25-3,4.06-8.79s3.53-8.68,10.25-9.94,11.68-.73,14.8,6-3.81,17-3.81,17l-1.26,3.57Z" fill="#0c2534"/><path d="M68.52,44.88l-4.39,9.93-2.51-1.92,1.26-3.58s6.94-10.24,3.81-17a15,15,0,0,0-1.41-2.46C69.66,32.87,71.14,38.94,68.52,44.88Z" fill="#1d5a80"/><path d="M62.62,52.89l-1.47-.65,4.39-9.93a12.46,12.46,0,0,0,.23-10.25,9.5,9.5,0,0,0-6.08-5.12c-6.31-1.8-13.89,2.29-16.91,9.11L38.32,46.16l-1.47-.65L41.32,35.4c3.32-7.53,11.76-12,18.81-10a11,11,0,0,1,7.09,6A14,14,0,0,1,67,43Z" fill="url(#linear-gradient)"/><polygon points="39.36 39.83 36.85 45.51 38.32 46.16 40.92 40.27 39.36 39.83" fill="#0c2534"/><polygon points="63.18 47.65 61.15 52.24 62.62 52.89 64.72 48.13 63.18 47.65" fill="#0c2534"/><ellipse cx="59.88" cy="57.41" rx="4.25" ry="3.31" transform="translate(-9.89 102.28) rotate(-76.54)" fill="#0c2534"/><path d="M65.92,60c-1,4.4-3.46,9.42-6.75,9.29a16.11,16.11,0,0,1-3.34-.72c-4.2-1-6.49-6.47-5.12-12.21s5.9-9.58,10.1-8.58c1,.25,2.06.54,3.2.83C65.62,49,67,55.67,65.92,60Z" fill="#b0ad9a"/><path d="M65.92,60c-1,4.4-3.46,9.42-6.75,9.29a16.11,16.11,0,0,1-3.34-.72c-4.2-1-6.49-6.47-5.12-12.21s5.9-9.58,10.1-8.58c1,.25,2.06.54,3.2.83C65.62,49,67,55.67,65.92,60Z" fill="#1d5a80"/><path d="M55.83,68.55a16.11,16.11,0,0,0,3.34.72c2.23.09,4-2.19,5.32-5L58.3,61.7S57,53.86,55,57.77s-4.66,1.52-4.27-1.43C49.34,62.08,51.63,67.55,55.83,68.55Z" fill="url(#linear-gradient-2)"/><ellipse cx="60.92" cy="58.78" rx="10.69" ry="6.02" transform="translate(-10.43 104.35) rotate(-76.54)" fill="#0c2534"/><ellipse cx="38.64" cy="49.24" rx="3.76" ry="2.92" transform="translate(-18.24 75.36) rotate(-76.54)" fill="#0c2534"/><path d="M44,51.51c-.93,3.89-4,8.5-6.86,8.07a17.05,17.05,0,0,1-2.06-.48c-3.72-.89-5.74-5.73-4.53-10.81s5.22-8.47,8.93-7.58c.93.22,1.69.42,2.69.69C42.89,41.6,44.9,47.71,44,51.51Z" fill="#0c2534"/><ellipse cx="39.02" cy="50.33" rx="9.45" ry="5.88" transform="translate(-19.01 76.56) rotate(-76.54)" fill="#1d5a80"/><path d="M60.6,58.56a3.86,3.86,0,0,1,3-2.76c-.32-.12-1.13-.27-1.37-.33-1.39-.33-2.86.84-3.29,2.63s.36,3.47,1.75,3.83c.36.1,1,.27,1.45.35A3.79,3.79,0,0,1,60.6,58.56Z" fill="#1d5a80"/><path d="M62.28,59.28a30.24,30.24,0,0,1-5.77,7.45A33.84,33.84,0,0,1,49.62,71a26.7,26.7,0,0,1-7.69,2.37,15.36,15.36,0,0,1-7.85-.78,14.92,14.92,0,0,0,7.68-.1,25.38,25.38,0,0,0,7-3.07,32.1,32.1,0,0,0,5.93-4.73,20.67,20.67,0,0,0,4.12-6Z" fill="url(#linear-gradient-3)"/><path d="M63.5,60.45a24,24,0,0,1-5.61,6.28A33.84,33.84,0,0,1,51,71a26.7,26.7,0,0,1-7.69,2.37c-2.64.36-6.79.22-9.23-.78a20.66,20.66,0,0,0,9.06-.1,25.38,25.38,0,0,0,7-3.07,32.1,32.1,0,0,0,5.93-4.73A20.34,20.34,0,0,0,60.33,59Z" fill="#1d5a80"/><ellipse cx="62.61" cy="58.98" rx="3.35" ry="2.24" transform="translate(-9.33 106.14) rotate(-76.54)" fill="url(#linear-gradient-4)"/><ellipse cx="40.17" cy="50.49" rx="4.08" ry="2.73" transform="translate(-18.29 77.8) rotate(-76.54)" fill="#0c2534"/><rect x="33.35" y="71.03" width="7" height="3.81" rx="1.91" transform="translate(11.36 -4.7) rotate(8.63)" fill="#1d5a80"/><path d="M38.09,73.41H38L35.07,73a.8.8,0,1,1,.21-1.59l2.92.4a.8.8,0,0,1-.11,1.6Z" fill="#f0f0f0"/><path d="M40.07,46.58a4.38,4.38,0,0,0-2.56,3.28c-.48,2,.13,3.9,1.37,4.47a4.4,4.4,0,0,0,2.56-3.28C41.92,49,41.31,47.15,40.07,46.58Z" fill="url(#linear-gradient-5)"/><path d="M44.22,53.44c-2.15,3-5.2,4.54-7.37,2.28s-.9-6.48-.9-6.48-.55,1.66-1.67,1.47-1-1.82-1-1.75c-1.21,5.08.36,9.81,3.52,10.56C39.61,60.19,42.69,57.55,44.22,53.44Z" fill="url(#linear-gradient-6)"/></svg>