<svg id="Layer_1" data-name="Layer 1" xmlns="http://www.w3.org/2000/svg" xmlns:xlink="http://www.w3.org/1999/xlink" viewBox="0 0 100 100"><defs><linearGradient id="linear-gradient" x1="62.14" y1="38.07" x2="30.35" y2="57.64" gradientUnits="userSpaceOnUse"><stop offset="0.45" stop-color="#0c2534"/><stop offset="1" stop-color="#1d5a80"/></linearGradient><linearGradient id="linear-gradient-2" x1="58.58" y1="49.7" x2="42.47" y2="59.61" xlink:href="#linear-gradient"/><linearGradient id="linear-gradient-3" x1="62.47" y1="51.96" x2="46.37" y2="61.87" xlink:href="#linear-gradient"/><linearGradient id="linear-gradient-4" x1="66.16" y1="54.21" x2="50.05" y2="64.12" xlink:href="#linear-gradient"/><linearGradient id="linear-gradient-5" x1="70.22" y1="56.43" x2="54.12" y2="66.34" xlink:href="#linear-gradient"/><linearGradient id="linear-gradient-6" x1="35.01" y1="36.04" x2="18.9" y2="45.95" xlink:href="#linear-gradient"/><linearGradient id="linear-gradient-7" x1="38.91" y1="38.3" x2="22.8" y2="48.21" xlink:href="#linear-gradient"/><linearGradient id="linear-gradient-8" x1="42.59" y1="40.55" x2="26.48" y2="50.46" xlink:href="#linear-gradient"/><linearGradient id="linear-gradient-9" x1="39.44" y1="33.3" x2="23.34" y2="43.21" xlink:href="#linear-gradient"/><linearGradient id="linear-gradient-10" x1="43.34" y1="35.57" x2="27.24" y2="45.48" xlink:href="#linear-gradient"/><linearGradient id="linear-gradient-11" x1="47.02" y1="37.82" x2="30.92" y2="47.73" xlink:href="#linear-gradient"/><linearGradient id="linear-gradient-12" x1="50.93" y1="40.23" x2="34.83" y2="50.14" xlink:href="#linear-gradient"/><linearGradient id="linear-gradient-13" x1="54.83" y1="42.49" x2="38.72" y2="52.4" xlink:href="#linear-gradient"/><linearGradient id="linear-gradient-14" x1="58.73" y1="45" x2="42.62" y2="54.91" xlink:href="#linear-gradient"/><linearGradient id="linear-gradient-15" x1="62.47" y1="47.25" x2="46.37" y2="57.16" xlink:href="#linear-gradient"/><linearGradient id="linear-gradient-16" x1="66.16" y1="49.5" x2="50.05" y2="59.41" xlink:href="#linear-gradient"/><linearGradient id="linear-gradient-17" x1="76.12" y1="49.93" x2="53.9" y2="63.61" xlink:href="#linear-gradient"/><linearGradient id="linear-gradient-18" x1="87.19" y1="43.52" x2="57.51" y2="61.78" xlink:href="#linear-gradient"/><linearGradient id="linear-gradient-19" x1="44.01" y1="30.77" x2="27.9" y2="40.68" xlink:href="#linear-gradient"/><linearGradient id="linear-gradient-20" x1="47.91" y1="33.03" x2="31.8" y2="42.94" xlink:href="#linear-gradient"/><linearGradient id="linear-gradient-21" x1="51.59" y1="35.28" x2="35.48" y2="45.19" xlink:href="#linear-gradient"/><linearGradient id="linear-gradient-22" x1="55.5" y1="37.69" x2="39.39" y2="47.6" xlink:href="#linear-gradient"/><linearGradient id="linear-gradient-23" x1="59.39" y1="39.96" x2="43.29" y2="49.87" xlink:href="#linear-gradient"/><linearGradient id="linear-gradient-24" x1="63.39" y1="42.34" x2="47.28" y2="52.25" xlink:href="#linear-gradient"/><linearGradient id="linear-gradient-25" x1="67.04" y1="44.72" x2="50.93" y2="54.63" xlink:href="#linear-gradient"/><linearGradient id="linear-gradient-26" x1="70.72" y1="46.97" x2="54.62" y2="56.88" xlink:href="#linear-gradient"/><linearGradient id="linear-gradient-27" x1="48.41" y1="28.24" x2="32.31" y2="38.15" xlink:href="#linear-gradient"/><linearGradient id="linear-gradient-28" x1="53.2" y1="25.59" x2="37.09" y2="35.5" xlink:href="#linear-gradient"/><linearGradient id="linear-gradient-29" x1="57.35" y1="27.91" x2="41.25" y2="37.82" xlink:href="#linear-gradient"/><linearGradient id="linear-gradient-30" x1="61.66" y1="30.46" x2="45.55" y2="40.38" xlink:href="#linear-gradient"/><linearGradient id="linear-gradient-31" x1="66.06" y1="32.93" x2="49.96" y2="42.84" xlink:href="#linear-gradient"/><linearGradient id="linear-gradient-32" x1="70.47" y1="35.67" x2="54.37" y2="45.58" xlink:href="#linear-gradient"/><linearGradient id="linear-gradient-33" x1="75.18" y1="38.18" x2="59.07" y2="48.09" xlink:href="#linear-gradient"/><linearGradient id="linear-gradient-34" x1="79.54" y1="40.8" x2="63.44" y2="50.71" xlink:href="#linear-gradient"/><linearGradient id="linear-gradient-35" x1="52.31" y1="30.5" x2="36.21" y2="40.41" xlink:href="#linear-gradient"/><linearGradient id="linear-gradient-36" x1="55.99" y1="32.75" x2="39.89" y2="42.66" xlink:href="#linear-gradient"/><linearGradient id="linear-gradient-37" x1="59.9" y1="35.16" x2="43.8" y2="45.07" xlink:href="#linear-gradient"/><linearGradient id="linear-gradient-38" x1="63.8" y1="37.42" x2="47.69" y2="47.33" xlink:href="#linear-gradient"/><linearGradient id="linear-gradient-39" x1="67.48" y1="39.67" x2="51.38" y2="49.58" xlink:href="#linear-gradient"/><linearGradient id="linear-gradient-40" x1="71.44" y1="42.18" x2="55.34" y2="52.09" xlink:href="#linear-gradient"/><linearGradient id="linear-gradient-41" x1="75.13" y1="44.43" x2="59.02" y2="54.34" xlink:href="#linear-gradient"/><linearGradient id="linear-gradient-42" x1="81.48" y1="44.66" x2="68.48" y2="52.66" xlink:href="#linear-gradient"/><linearGradient id="linear-gradient-43" x1="84.92" y1="46.58" x2="71.93" y2="54.58" xlink:href="#linear-gradient"/><linearGradient id="linear-gradient-44" x1="88.31" y1="48.46" x2="75.32" y2="56.45" xlink:href="#linear-gradient"/><linearGradient id="linear-gradient-45" x1="78.46" y1="46.59" x2="65.47" y2="54.59" xlink:href="#linear-gradient"/><linearGradient id="linear-gradient-46" x1="81.91" y1="48.51" x2="68.91" y2="56.51" xlink:href="#linear-gradient"/><linearGradient id="linear-gradient-47" x1="85.3" y1="50.39" x2="72.3" y2="58.38" xlink:href="#linear-gradient"/></defs><title>Computer Accessories Isometric Pack - Scene 4</title><polygon points="83.09 56.31 83.09 54.46 16.91 44.38 16.91 46.23 58.86 69.76 83.09 56.31" fill="#0c2534"/><polygon points="83.09 54.46 41.6 30.24 16.91 44.38 58.86 67.91 83.09 54.46" fill="#1d5a80"/><polygon points="45.39 55.2 45.39 54.21 32.05 49.76 32.05 50.76 42.8 56.65 45.39 55.2" fill="url(#linear-gradient)"/><polygon points="45.39 54.21 34.64 48.27 32.05 49.76 42.8 55.66 45.39 54.21" fill="#0c2534"/><polygon points="49.25 57.5 49.25 56.5 44.18 56.5 44.18 57.5 46.66 58.95 49.25 57.5" fill="url(#linear-gradient-2)"/><polygon points="49.25 56.5 46.77 55.01 44.18 56.5 46.66 57.95 49.25 56.5" fill="#0c2534"/><polygon points="53.15 59.76 53.15 58.76 48.08 58.76 48.08 59.76 50.55 61.21 53.15 59.76" fill="url(#linear-gradient-3)"/><polygon points="53.15 58.76 50.67 57.27 48.08 58.76 50.55 60.21 53.15 58.76" fill="#0c2534"/><polygon points="56.83 62.01 56.83 61.01 51.76 61.01 51.76 62.01 54.24 63.46 56.83 62.01" fill="url(#linear-gradient-4)"/><polygon points="56.83 61.01 54.35 59.52 51.76 61.01 54.24 62.46 56.83 61.01" fill="#0c2534"/><polygon points="60.89 64.23 60.89 63.23 55.82 63.23 55.82 64.23 58.3 65.67 60.89 64.23" fill="url(#linear-gradient-5)"/><polygon points="60.89 63.23 58.41 61.74 55.82 63.23 58.3 64.68 60.89 63.23" fill="#0c2534"/><polygon points="25.68 43.84 25.68 42.84 20.61 42.84 20.61 43.84 23.09 45.29 25.68 43.84" fill="url(#linear-gradient-6)"/><polygon points="25.68 42.84 23.2 41.35 20.61 42.84 23.09 44.29 25.68 42.84" fill="#0c2534"/><polygon points="29.58 46.1 29.58 45.1 24.51 45.1 24.51 46.1 26.98 47.55 29.58 46.1" fill="url(#linear-gradient-7)"/><polygon points="29.58 45.1 27.1 43.61 24.51 45.1 26.98 46.55 29.58 45.1" fill="#0c2534"/><polygon points="33.26 48.35 33.26 47.35 28.19 47.35 28.19 48.35 30.67 49.8 33.26 48.35" fill="url(#linear-gradient-8)"/><polygon points="33.26 47.35 30.78 45.86 28.19 47.35 30.67 48.8 33.26 47.35" fill="#0c2534"/><polygon points="30.12 41.1 30.12 40.1 25.05 40.1 25.05 41.1 27.52 42.55 30.12 41.1" fill="url(#linear-gradient-9)"/><polygon points="30.12 40.1 27.64 38.62 25.05 40.1 27.52 41.55 30.12 40.1" fill="#0c2534"/><polygon points="34.01 43.37 34.01 42.37 28.94 42.37 28.94 43.37 31.42 44.81 34.01 43.37" fill="url(#linear-gradient-10)"/><polygon points="34.01 42.37 31.53 40.88 28.94 42.37 31.42 43.82 34.01 42.37" fill="#0c2534"/><polygon points="37.7 45.62 37.7 44.62 32.63 44.62 32.63 45.62 35.1 47.06 37.7 45.62" fill="url(#linear-gradient-11)"/><polygon points="37.7 44.62 35.22 43.13 32.63 44.62 35.1 46.07 37.7 44.62" fill="#0c2534"/><polygon points="41.6 48.03 41.6 47.03 36.53 47.03 36.53 48.03 39.01 49.47 41.6 48.03" fill="url(#linear-gradient-12)"/><polygon points="41.6 47.03 39.13 45.54 36.53 47.03 39.01 48.48 41.6 47.03" fill="#0c2534"/><polygon points="45.5 50.29 45.5 49.29 40.43 49.29 40.43 50.29 42.91 51.74 45.5 50.29" fill="url(#linear-gradient-13)"/><polygon points="45.5 49.29 43.02 47.8 40.43 49.29 42.91 50.74 45.5 49.29" fill="#0c2534"/><polygon points="49.4 52.8 49.4 51.8 44.33 51.8 44.33 52.8 46.8 54.25 49.4 52.8" fill="url(#linear-gradient-14)"/><polygon points="49.4 51.8 46.92 50.31 44.33 51.8 46.8 53.25 49.4 51.8" fill="#0c2534"/><polygon points="53.15 55.05 53.15 54.05 48.08 54.05 48.08 55.05 50.55 56.5 53.15 55.05" fill="url(#linear-gradient-15)"/><polygon points="53.15 54.05 50.67 52.56 48.08 54.05 50.55 55.5 53.15 54.05" fill="#0c2534"/><polygon points="56.83 57.3 56.83 56.3 51.76 56.3 51.76 57.3 54.24 58.75 56.83 57.3" fill="url(#linear-gradient-16)"/><polygon points="56.83 56.3 54.35 54.81 51.76 56.3 54.24 57.75 56.83 56.3" fill="#0c2534"/><polygon points="63.99 61.51 63.99 60.52 55.51 58.5 55.51 59.5 61.39 62.96 63.99 61.51" fill="url(#linear-gradient-17)"/><polygon points="63.99 60.52 58.1 57.01 55.51 58.5 61.39 61.97 63.99 60.52" fill="#0c2534"/><polygon points="70.52 57.91 70.52 56.91 60.12 56.04 60.12 57.03 66 60.5 70.52 57.91" fill="url(#linear-gradient-18)"/><polygon points="70.52 56.91 64.64 53.4 60.12 56.04 66 59.5 70.52 56.91" fill="#0c2534"/><polygon points="34.68 38.57 34.68 37.57 29.61 37.57 29.61 38.57 32.09 40.02 34.68 38.57" fill="url(#linear-gradient-19)"/><polygon points="34.68 37.57 32.2 36.08 29.61 37.57 32.09 39.02 34.68 37.57" fill="#0c2534"/><polygon points="38.58 40.83 38.58 39.84 33.51 39.84 33.51 40.83 35.98 42.28 38.58 40.83" fill="url(#linear-gradient-20)"/><polygon points="38.58 39.84 36.1 38.35 33.51 39.84 35.98 41.28 38.58 39.84" fill="#0c2534"/><polygon points="42.26 43.08 42.26 42.09 37.19 42.09 37.19 43.08 39.67 44.53 42.26 43.08" fill="url(#linear-gradient-21)"/><polygon points="42.26 42.09 39.78 40.6 37.19 42.09 39.67 43.53 42.26 42.09" fill="#0c2534"/><polygon points="46.17 45.49 46.17 44.5 41.1 44.5 41.1 45.49 43.58 46.94 46.17 45.49" fill="url(#linear-gradient-22)"/><polygon points="46.17 44.5 43.69 43.01 41.1 44.5 43.58 45.94 46.17 44.5" fill="#0c2534"/><polygon points="50.06 47.76 50.06 46.76 44.99 46.76 44.99 47.76 47.47 49.2 50.06 47.76" fill="url(#linear-gradient-23)"/><polygon points="50.06 46.76 47.59 45.27 44.99 46.76 47.47 48.21 50.06 46.76" fill="#0c2534"/><polygon points="54.06 50.14 54.06 49.14 48.99 49.14 48.99 50.14 51.47 51.58 54.06 50.14" fill="url(#linear-gradient-24)"/><polygon points="54.06 49.14 51.58 47.65 48.99 49.14 51.47 50.59 54.06 49.14" fill="#0c2534"/><polygon points="57.71 52.52 57.71 51.52 52.64 51.52 52.64 52.52 55.12 53.97 57.71 52.52" fill="url(#linear-gradient-25)"/><polygon points="57.71 51.52 55.23 50.03 52.64 51.52 55.12 52.97 57.71 51.52" fill="#0c2534"/><polygon points="61.39 54.77 61.39 53.77 56.32 53.77 56.32 54.77 58.8 56.22 61.39 54.77" fill="url(#linear-gradient-26)"/><polygon points="61.39 53.77 58.91 52.28 56.32 53.77 58.8 55.22 61.39 53.77" fill="#0c2534"/><polygon points="39.09 36.03 39.09 35.04 34.01 35.04 34.01 36.03 36.49 37.48 39.09 36.03" fill="url(#linear-gradient-27)"/><polygon points="39.09 35.04 36.61 33.55 34.01 35.04 36.49 36.49 39.09 35.04" fill="#0c2534"/><polygon points="43.87 33.39 43.87 32.39 38.8 32.39 38.8 33.39 41.28 34.83 43.87 33.39" fill="url(#linear-gradient-28)"/><polygon points="43.87 32.39 41.39 30.9 38.8 32.39 41.28 33.84 43.87 32.39" fill="#0c2534"/><polygon points="48.03 35.71 48.03 34.71 42.95 34.71 42.95 35.71 45.43 37.16 48.03 35.71" fill="url(#linear-gradient-29)"/><polygon points="48.03 34.71 45.55 33.22 42.95 34.71 45.43 36.16 48.03 34.71" fill="#0c2534"/><polygon points="52.33 38.26 52.33 37.27 47.26 37.27 47.26 38.26 49.74 39.71 52.33 38.26" fill="url(#linear-gradient-30)"/><polygon points="52.33 37.27 49.85 35.78 47.26 37.27 49.74 38.72 52.33 37.27" fill="#0c2534"/><polygon points="56.74 40.73 56.74 39.73 51.66 39.73 51.66 40.73 54.14 42.18 56.74 40.73" fill="url(#linear-gradient-31)"/><polygon points="56.74 39.73 54.26 38.24 51.66 39.73 54.14 41.18 56.74 39.73" fill="#0c2534"/><polygon points="61.14 43.47 61.14 42.47 56.07 42.47 56.07 43.47 58.55 44.92 61.14 43.47" fill="url(#linear-gradient-32)"/><polygon points="61.14 42.47 58.66 40.98 56.07 42.47 58.55 43.92 61.14 42.47" fill="#0c2534"/><polygon points="65.85 45.98 65.85 44.98 60.78 44.98 60.78 45.98 63.26 47.42 65.85 45.98" fill="url(#linear-gradient-33)"/><polygon points="65.85 44.98 63.37 43.49 60.78 44.98 63.26 46.43 65.85 44.98" fill="#0c2534"/><polygon points="70.22 48.59 70.22 47.6 65.14 47.6 65.14 48.59 67.62 50.04 70.22 48.59" fill="url(#linear-gradient-34)"/><polygon points="70.22 47.6 67.74 46.11 65.14 47.6 67.62 49.05 70.22 47.6" fill="#0c2534"/><polygon points="42.98 38.3 42.98 37.3 37.91 37.3 37.91 38.3 40.39 39.75 42.98 38.3" fill="url(#linear-gradient-35)"/><polygon points="42.98 37.3 40.5 35.81 37.91 37.3 40.39 38.75 42.98 37.3" fill="#0c2534"/><polygon points="46.66 40.55 46.66 39.55 41.59 39.55 41.59 40.55 44.07 42 46.66 40.55" fill="url(#linear-gradient-36)"/><polygon points="46.66 39.55 44.19 38.06 41.59 39.55 44.07 41 46.66 39.55" fill="#0c2534"/><polygon points="50.57 42.96 50.57 41.96 45.5 41.96 45.5 42.96 47.98 44.41 50.57 42.96" fill="url(#linear-gradient-37)"/><polygon points="50.57 41.96 48.09 40.47 45.5 41.96 47.98 43.41 50.57 41.96" fill="#0c2534"/><polygon points="54.47 45.22 54.47 44.22 49.4 44.22 49.4 45.22 51.88 46.67 54.47 45.22" fill="url(#linear-gradient-38)"/><polygon points="54.47 44.22 51.99 42.73 49.4 44.22 51.88 45.67 54.47 44.22" fill="#0c2534"/><polygon points="58.15 47.47 58.15 46.47 53.08 46.47 53.08 47.47 55.56 48.92 58.15 47.47" fill="url(#linear-gradient-39)"/><polygon points="58.15 46.47 55.67 44.98 53.08 46.47 55.56 47.92 58.15 46.47" fill="#0c2534"/><polygon points="62.12 49.98 62.12 48.98 57.04 48.98 57.04 49.98 59.52 51.43 62.12 49.98" fill="url(#linear-gradient-40)"/><polygon points="62.12 48.98 59.64 47.49 57.04 48.98 59.52 50.43 62.12 48.98" fill="#0c2534"/><polygon points="65.8 52.23 65.8 51.23 60.73 51.23 60.73 52.23 63.2 53.68 65.8 52.23" fill="url(#linear-gradient-41)"/><polygon points="65.8 51.23 63.32 49.74 60.73 51.23 63.2 52.68 65.8 51.23" fill="#0c2534"/><polygon points="73.95 50.96 73.95 50.15 69.86 50.15 69.86 50.96 71.86 52.13 73.95 50.96" fill="url(#linear-gradient-42)"/><polygon points="73.95 50.15 71.95 48.95 69.86 50.15 71.86 51.32 73.95 50.15" fill="#0c2534"/><polygon points="77.4 52.88 77.4 52.07 73.3 52.07 73.3 52.88 75.31 54.05 77.4 52.88" fill="url(#linear-gradient-43)"/><polygon points="77.4 52.07 75.4 50.87 73.3 52.07 75.31 53.24 77.4 52.07" fill="#0c2534"/><polygon points="80.78 54.75 80.78 53.94 76.69 53.94 76.69 54.75 78.69 55.92 80.78 54.75" fill="url(#linear-gradient-44)"/><polygon points="80.78 53.94 78.78 52.74 76.69 53.94 78.69 55.11 80.78 53.94" fill="#0c2534"/><polygon points="70.94 52.88 70.94 52.08 66.84 52.08 66.84 52.88 68.84 54.05 70.94 52.88" fill="url(#linear-gradient-45)"/><polygon points="70.94 52.08 68.94 50.88 66.84 52.08 68.84 53.25 70.94 52.08" fill="#0c2534"/><polygon points="74.38 54.81 74.38 54 70.29 54 70.29 54.81 72.29 55.98 74.38 54.81" fill="url(#linear-gradient-46)"/><polygon points="74.38 54 72.38 52.8 70.29 54 72.29 55.17 74.38 54" fill="#0c2534"/><polygon points="77.77 56.68 77.77 55.87 73.68 55.87 73.68 56.68 75.68 57.85 77.77 56.68" fill="url(#linear-gradient-47)"/><polygon points="77.77 55.87 75.77 54.67 73.68 55.87 75.68 57.04 77.77 55.87" fill="#0c2534"/></svg>