<svg xmlns="http://www.w3.org/2000/svg" xmlns:xlink="http://www.w3.org/1999/xlink" viewBox="0 0 100 100"><defs><linearGradient id="linear-gradient" x1="56.85" y1="38.32" x2="73.24" y2="103.62" gradientUnits="userSpaceOnUse"><stop offset="0" stop-color="#0c2534"/><stop offset="1" stop-color="#1d5a80"/></linearGradient><linearGradient id="linear-gradient-2" x1="50.42" y1="68.93" x2="39.37" y2="40.62" xlink:href="#linear-gradient"/><linearGradient id="linear-gradient-3" x1="53.69" y1="8.15" x2="9.99" y2="120.4" gradientUnits="userSpaceOnUse"><stop offset="0" stop-color="#fff"/><stop offset="1" stop-color="#145b94"/></linearGradient><linearGradient id="linear-gradient-4" x1="52.68" y1="38.37" x2="29.4" y2="98.17" xlink:href="#linear-gradient"/></defs><title>Computer Accessories Isometric Pack - Scene 5</title><g style="isolation:isolate"><g id="Layer_1" data-name="Layer 1"><polygon points="23.59 70.73 23.59 69.09 85.64 58.18 43.85 83.06 23.59 70.73" fill="#0c2534"/><polygon points="23.59 69.09 66.26 45.08 85.64 56.53 43.85 81.42 23.59 69.09" fill="#1d5a80"/><polygon points="27.89 68.54 66.56 46.95 77.21 53.04 39.13 75.23 27.89 68.54" fill="#0c2534"/><polygon points="53.19 67.75 66.14 60.32 71.67 63.24 58.57 70.92 53.19 67.75" fill="#f0f0f0"/><polygon points="43.85 81.38 43.85 83.06 85.64 58.18 85.64 56.49 43.85 81.38" fill="url(#linear-gradient)"/><path d="M57.79,17.36l7.82,27.18-42,24.18-1.72-2.49-7.5-26.07L56.7,17.05l.1-.05a.67.67,0,0,1,.45-.05A1.14,1.14,0,0,1,57.79,17.36Z" fill="url(#linear-gradient-2)"/><polygon points="24.08 65.88 16.88 40.85 57.15 19.2 64.08 43.31 24.08 65.88" fill="url(#linear-gradient-3)"/><path d="M23.58,68.72,15.45,40.47s-.47-.7-1.09-.31l7.78,27a2.26,2.26,0,0,0,1.44,1.52Z" fill="#0c2534"/><path d="M42,39.25h0c-.15.13-.32,0-.38-.19l-.42-1.77a.78.78,0,0,1,.17-.68h0c.15-.14.32,0,.38.19l.42,1.77A.76.76,0,0,1,42,39.25Z" fill="#f0f0f0"/><path d="M42.56,39.13h0c-.15-.08-.21-.36-.15-.62l.45-1.82c.07-.27.24-.43.39-.35h0c.14.07.21.35.14.62L43,38.78C42.88,39.05,42.71,39.2,42.56,39.13Z" fill="#f0f0f0"/><path d="M43,39.78h0a.78.78,0,0,1,.17-.69l.94-.84c.15-.13.32,0,.37.2h0a.76.76,0,0,1-.16.68l-.94.84C43.21,40.11,43,40,43,39.78Z" fill="#f0f0f0"/><path d="M43,40.82h0c.07-.27.24-.42.39-.35l.86.45c.15.07.22.35.15.62h0c-.07.26-.24.42-.39.34l-.86-.44A.6.6,0,0,1,43,40.82Z" fill="#f0f0f0"/><path d="M42.52,41.64h0c.15-.13.32,0,.38.19L43.17,43a.78.78,0,0,1-.17.68h0c-.15.14-.32,0-.38-.19l-.27-1.19A.79.79,0,0,1,42.52,41.64Z" fill="#f0f0f0"/><path d="M41.91,41.76h0a.57.57,0,0,1,.15.62l-.27,1c-.06.27-.23.43-.38.35h0a.56.56,0,0,1-.15-.62l.27-1C41.59,41.84,41.77,41.69,41.91,41.76Z" fill="#f0f0f0"/><path d="M41.49,41.11h0a.78.78,0,0,1-.16.69l-.56.5c-.16.13-.32.05-.38-.19h0a.77.77,0,0,1,.17-.69l.56-.5C41.27,40.78,41.44,40.87,41.49,41.11Z" fill="#f0f0f0"/><path d="M41.51,40.07h0c-.07.27-.24.42-.39.35l-.48-.25a.6.6,0,0,1-.15-.62h0c.07-.27.24-.42.39-.35l.48.25A.56.56,0,0,1,41.51,40.07Z" fill="#f0f0f0"/><polygon points="44.4 54.42 53.25 21.29 57.15 19.2 59.02 25.7 53.1 49.51 44.4 54.42" fill="#f0f0f0"/><polygon points="46.74 56.06 82.11 57.64 84.8 56.04 66.26 45.08 46.74 56.06" fill="#f0f0f0" opacity="0.11" style="mix-blend-mode:screen"/><path d="M28.93,65.41s.62,0,.87,1L62.07,48.19s.45-.75-.62-1.24Z" fill="url(#linear-gradient-4)"/><path d="M29.8,66.36l-1.11-.58a.46.46,0,0,1,.24-.37C29.18,65.27,29.78,65.88,29.8,66.36Z" fill="#0c2534"/></g></g></svg>