<svg xmlns="http://www.w3.org/2000/svg" viewBox="0 0 100 100"><title>Computer Accessories Isometric Pack - Scene 6</title><g style="isolation:isolate"><g id="Layer_1" data-name="Layer 1"><path d="M69.91,55c0,1.76-1.08,3.48-3.36,4.77l-2,1.13c-4.57,2.59-12.09,2.47-17.18-.11,0,0,0,0,0,0A10.48,10.48,0,0,1,46,60L34.84,52.56h0l-1.39-.92c-2.23-1.5-3.36-3.31-3.36-5.05V43.81l5.55-2s9.73-2.51,14.92.06l19.35,9.91S69.88,52.9,69.91,55Z" fill="#0c2534"/><path d="M66.55,57l-2,1.13C59.56,61,51,60.57,46,57.23L33.45,48.87c-4.48-3-4.48-7.25,0-9.79h0c4.48-2.54,11.93-2.51,17.11.08L65.09,46.4C70.89,49.29,71.56,54.19,66.55,57Z" fill="#1d5a80"/><path d="M37.81,51.78S38.69,45,44.35,42s8.82-1.51,8.82-1.51l-2-1a13.88,13.88,0,0,0-7.47,1.83,13.2,13.2,0,0,0-6.5,10.09v.73l.5.28Z" fill="#0c2534"/><path d="M34.83,49.79c2.42,1.62,4,1.06,7.19,2.63s2.85,4,5.36,5.62v1.54l-6.82-4.3-5.07-3.5Z" fill="#0c2534"/><path d="M47.37,60.79A10.48,10.48,0,0,1,46,60L34.84,52.56h0c2.41,1.61,4,.92,7.19,2.49S44.87,59.17,47.37,60.79Z" fill="#0c2534"/><path d="M44.81,41.17s-5.06-3.61-9.09-3.08c0,0,0-.25,2-.53a21.93,21.93,0,0,1,9.63,2.71Z" fill="#0c2534"/><path d="M50.77,57.68a19,19,0,0,0,12-.4c3.68-1.27,3.68-5-.72-3.43a17.72,17.72,0,0,1-10.16.84C49.49,54.09,47.09,56.41,50.77,57.68Z" fill="#f0f0f0" opacity="0.11" style="mix-blend-mode:screen"/><path d="M39.54,38.21s2.21.82,4.22,1.62c0,0,1.08.08,1.08-.75h0s-.17-.53-2.42-1.21C40.48,37.29,39.62,37.72,39.54,38.21Z" fill="#b0ad9a"/><path d="M42.42,37.87a3.56,3.56,0,0,0-2.5-.1c-.24.21,1.59.81,3,1.17s1.49.35,1.94.14C44.84,39.08,44.67,38.55,42.42,37.87Z" fill="#f3f0d5"/></g></g></svg>