<svg id="Layer_1" data-name="Layer 1" xmlns="http://www.w3.org/2000/svg" xmlns:xlink="http://www.w3.org/1999/xlink" viewBox="0 0 100 100"><defs><linearGradient id="linear-gradient" x1="-12.87" y1="72.8" x2="72.99" y2="18.01" gradientUnits="userSpaceOnUse"><stop offset="0.45" stop-color="#0c2534"/><stop offset="1" stop-color="#1d5a80"/></linearGradient><linearGradient id="linear-gradient-2" x1="17.38" y1="54.65" x2="71.95" y2="54.65" xlink:href="#linear-gradient"/><linearGradient id="linear-gradient-3" x1="19.54" y1="54.7" x2="39.15" y2="35.94" xlink:href="#linear-gradient"/></defs><title>Computer Accessories Isometric Pack - Scene 7</title><path d="M22.19,38.87,59.94,17.61a2.74,2.74,0,0,1,2.73,0L75.53,25l1.7,1.82L39.43,49.37Z" fill="url(#linear-gradient)"/><path d="M40.05,48.22,76.44,26.55l2.22,2.55,0,28.65A3.41,3.41,0,0,1,77,60.69l-36.9,22a2.3,2.3,0,0,1-1.87-.31l1.38-13.61L39,50.27Z" fill="url(#linear-gradient-2)"/><path d="M40.05,51.75V81.31a1.23,1.23,0,0,1-1.87,1L22.61,72.88a2.65,2.65,0,0,1-1.27-2.26V40.2A1.42,1.42,0,0,1,23.49,39l14.28,8.7A4.74,4.74,0,0,1,40.05,51.75Z" fill="#1d5a80"/><path d="M38.43,53.27V77a1.39,1.39,0,0,1-2.11,1.19L24,70.73A2.18,2.18,0,0,1,23,68.86V43.72a1.16,1.16,0,0,1,1.77-1l11.8,7.18A3.93,3.93,0,0,1,38.43,53.27Z" fill="#0c2534"/><path d="M24.74,45.77a43.14,43.14,0,0,1,6.16,3.17,41.62,41.62,0,0,1,5.64,4,41.63,41.63,0,0,1-6.16-3.17A41.62,41.62,0,0,1,24.74,45.77Z" fill="#1d5a80"/><path d="M24.74,50.27a43.08,43.08,0,0,1,6.16,3.16,41.62,41.62,0,0,1,5.64,4,42.56,42.56,0,0,1-6.16-3.16A43.46,43.46,0,0,1,24.74,50.27Z" fill="#1d5a80"/><path d="M24.74,54.76a43.08,43.08,0,0,1,6.16,3.16,42.52,42.52,0,0,1,5.64,4,42.56,42.56,0,0,1-6.16-3.16A42.52,42.52,0,0,1,24.74,54.76Z" fill="#1d5a80"/><ellipse cx="29.77" cy="68.75" rx="1.13" ry="2.04" transform="translate(-24.75 17.36) rotate(-23.28)" fill="#1d5a80"/><ellipse cx="29.77" cy="64.38" rx="0.4" ry="0.73" transform="translate(-23.02 17.01) rotate(-23.28)" fill="#1d5a80"/><ellipse cx="29.77" cy="61.94" rx="0.4" ry="0.73" transform="translate(-22.06 16.81) rotate(-23.28)" fill="#1d5a80"/><path d="M78.66,29.1,60,40.23,39.75,52.28v-.35a4.8,4.8,0,0,0-2-4.25l-.12-.08L60,34.3,75.53,25l.88.54A4.81,4.81,0,0,1,78.66,29.1Z" fill="#1d5a80"/><path d="M28.64,68.41c-.1-.88.3-1.47.89-1.29A2.31,2.31,0,0,1,30.78,69c.09.89-.31,1.47-.9,1.3a2.3,2.3,0,0,1-1.24-1.93m-.22-.06a2.78,2.78,0,0,0,1.5,2.31c.7.2,1.18-.49,1.07-1.56a2.77,2.77,0,0,0-1.49-2.3c-.71-.21-1.19.49-1.08,1.55Z" fill="#fff"/><path d="M29,68.53c-.06-.57.2-.94.57-.83a1.47,1.47,0,0,1,.8,1.23c.06.57-.19.94-.57.83a1.47,1.47,0,0,1-.8-1.23m-.13,0A1.75,1.75,0,0,0,29.84,70c.45.13.76-.31.69-1a1.78,1.78,0,0,0-1-1.48c-.45-.13-.76.32-.68,1Z" fill="#fff"/><polygon points="26.66 39.29 26.66 38.77 39.75 43.97 39.75 44.49 37.7 45.53 26.66 39.29" fill="url(#linear-gradient-3)"/><polygon points="26.66 38.77 28.7 37.54 39.75 43.97 37.7 45.02 26.66 38.77" fill="#1d5a80"/><polygon points="27.92 38.76 28.59 38.36 30.4 39.41 29.73 39.75 27.92 38.76" fill="#0c2534"/><polygon points="30.4 40.15 31.07 39.75 32.88 40.8 32.21 41.15 30.4 40.15" fill="#0c2534"/><polygon points="36.02 43.31 36.69 42.91 38.5 43.96 37.83 44.3 36.02 43.31" fill="#0c2534"/><path d="M33.36,41.37c-.23.13-.2.35,0,.5a1,1,0,0,0,.86,0c.22-.13.2-.35-.06-.49a.92.92,0,0,0-.85,0Z" fill="#0c2534"/><path d="M34.78,42.19c-.22.13-.2.36,0,.5a1,1,0,0,0,.86,0c.23-.13.2-.36,0-.5a1,1,0,0,0-.86,0Z" fill="#0c2534"/></svg>