<svg id="Layer_1" data-name="Layer 1" xmlns="http://www.w3.org/2000/svg" viewBox="0 0 100 100"><title>Computer Accessories Isometric Pack - Scene 8</title><path d="M48,37.88l1.37,18a1.08,1.08,0,0,1-.23.67l-.65.39L43,59.84a1.1,1.1,0,0,0,.44-.88V40.37a3.08,3.08,0,0,0-1.47-2.63L32.7,32.12A.83.83,0,0,0,32,32h0l4.09-2.21s.76-.4,1.15-.16l9.23,5.62A3.05,3.05,0,0,1,48,37.88Z" fill="#1d5a80"/><path d="M43.41,40.37V59a1.09,1.09,0,0,1-1.65.93L32.14,54a1.71,1.71,0,0,1-.83-1.46V32.91a.91.91,0,0,1,1.39-.78l9.24,5.61A3.1,3.1,0,0,1,43.41,40.37Z" fill="#0c2534"/><path d="M39.62,56.36v.33a.21.21,0,0,1-.33.18l-5-3.13a.32.32,0,0,1-.17-.29v-.54a.19.19,0,0,1,.28-.16l5,3.09A.6.6,0,0,1,39.62,56.36Z" fill="#1d5a80"/><ellipse cx="36.91" cy="47.25" rx="1.08" ry="1.96" transform="translate(-15.67 18.44) rotate(-23.28)" fill="#1d5a80"/><ellipse cx="34.09" cy="36.18" rx="0.54" ry="0.98" transform="translate(-11.52 16.42) rotate(-23.28)" fill="#1d5a80"/><ellipse cx="37.36" cy="38.01" rx="0.54" ry="0.98" transform="translate(-11.98 17.86) rotate(-23.28)" fill="#1d5a80"/><ellipse cx="40.6" cy="39.82" rx="0.54" ry="0.98" transform="translate(-12.43 19.29) rotate(-23.28)" fill="#1d5a80"/><path d="M33.84,46.35c-.27-2.5.86-4.14,2.52-3.66s3.24,2.92,3.51,5.42-.86,4.14-2.52,3.65-3.23-2.91-3.51-5.41m-.59-.17c.33,3,2.2,5.9,4.2,6.48s3.34-1.38,3-4.38-2.2-5.9-4.19-6.48-3.35,1.38-3,4.38Z" fill="#fff"/><path d="M34.93,46.67c-.18-1.6.55-2.65,1.61-2.34s2.07,1.86,2.24,3.46-.55,2.65-1.61,2.34-2.07-1.86-2.24-3.46m-.38-.12c.21,1.92,1.41,3.78,2.68,4.15s2.14-.88,1.93-2.8-1.41-3.77-2.68-4.15-2.14.89-1.93,2.8Z" fill="#fff"/><path d="M67.31,48.26l1.38,18a1.08,1.08,0,0,1-.23.67l-.65.39-5.5,2.94a1.1,1.1,0,0,0,.44-.88V50.76a3.08,3.08,0,0,0-1.47-2.63L52,42.51a.83.83,0,0,0-.68-.1h0l4.09-2.22s.76-.4,1.15-.16l9.23,5.62A3.05,3.05,0,0,1,67.31,48.26Z" fill="#1d5a80"/><path d="M62.76,50.76V69.35a1.09,1.09,0,0,1-1.66.93l-9.62-5.86A1.7,1.7,0,0,1,50.66,63V43.29a.92.92,0,0,1,1.39-.78l9.23,5.62A3.08,3.08,0,0,1,62.76,50.76Z" fill="#0c2534"/><path d="M59,66.75v.32a.22.22,0,0,1-.33.19l-5-3.13a.34.34,0,0,1-.16-.29V63.3a.18.18,0,0,1,.27-.16l5,3.09A.61.61,0,0,1,59,66.75Z" fill="#1d5a80"/><ellipse cx="56.26" cy="57.64" rx="1.08" ry="1.96" transform="translate(-18.2 26.93) rotate(-23.28)" fill="#1d5a80"/><ellipse cx="53.44" cy="46.56" rx="0.54" ry="0.98" transform="translate(-14.05 24.91) rotate(-23.28)" fill="#1d5a80"/><ellipse cx="56.71" cy="48.4" rx="0.54" ry="0.98" transform="translate(-14.51 26.35) rotate(-23.28)" fill="#1d5a80"/><ellipse cx="59.95" cy="50.21" rx="0.54" ry="0.98" transform="translate(-14.96 27.78) rotate(-23.28)" fill="#1d5a80"/><path d="M53.19,56.74c-.27-2.5.86-4.14,2.52-3.66s3.23,2.91,3.5,5.42-.86,4.14-2.52,3.65-3.23-2.91-3.5-5.41m-.6-.17c.33,3,2.21,5.9,4.2,6.48s3.34-1.38,3-4.38-2.21-5.9-4.2-6.48-3.34,1.38-3,4.38Z" fill="#fff"/><path d="M54.27,57.05c-.17-1.6.55-2.65,1.61-2.34s2.07,1.87,2.25,3.47-.55,2.65-1.61,2.34-2.07-1.87-2.25-3.47m-.38-.11c.21,1.92,1.41,3.78,2.69,4.15s2.14-.88,1.93-2.8-1.41-3.78-2.69-4.15-2.14.89-1.93,2.8Z" fill="#fff"/></svg>