<svg id="Layer_1" data-name="Layer 1" xmlns="http://www.w3.org/2000/svg" xmlns:xlink="http://www.w3.org/1999/xlink" viewBox="0 0 100 100"><defs><linearGradient id="linear-gradient" x1="38.47" y1="34.34" x2="68.11" y2="58.27" gradientUnits="userSpaceOnUse"><stop offset="0" stop-color="#0c2534"/><stop offset="1" stop-color="#1d5a80"/></linearGradient></defs><title>Computer Accessories Isometric Pack - Scene 9</title><polygon points="57.02 58.92 41.02 49.66 40.98 43.72 57.03 52.99 57.02 58.92" fill="#0c2534"/><polygon points="43.78 64.66 30.23 56.84 30.21 52.33 43.76 60.15 43.78 64.66" fill="#949181"/><polygon points="43.03 63.57 30.81 56.55 30.79 54.99 43.02 62 43.03 63.57" fill="#1d5a80"/><path d="M57,58.92,41,49.66l9.95-6.16c4-2.48,10.87-2.42,15.3.13h0c4.43,2.56,4.76,6.65.74,9.13Z" fill="url(#linear-gradient)"/><polygon points="43.76 60.15 43.78 64.66 60.47 54.74 60.47 50.15 43.76 60.15" fill="#b0ad9a"/><polygon points="30.21 52.33 49.48 41.2 56.83 52.33 43.76 60.15 30.21 52.33" fill="#f3f0d5"/><path d="M69.78,42.46l0,6.1c0,1.55-.93,3.07-2.81,4.23L57,58.92V52.59l9.92-6.13a7.32,7.32,0,0,0,1.56-1.28A4.25,4.25,0,0,0,69.78,42.46Z" fill="#0c2534"/><path d="M57,52.59,41,43.33l9.95-6.16c4-2.49,10.87-2.43,15.3.13h0c4.43,2.56,4.76,6.64.74,9.13Z" fill="#1d5a80"/><polygon points="56.42 57.15 56.42 53.04 42.62 45.16 40.98 46.11 40.98 43.33 57.02 52.59 57.02 58.92 55.22 57.86 56.42 57.15" fill="#0c2534"/><polygon points="42.65 51.32 39.35 49.41 42.45 47.7 45.75 49.61 42.65 51.32" fill="#b0ad9a"/><polygon points="45.28 49.87 41.3 50.54 39.35 49.41 42.45 47.7 45.75 49.61 45.28 49.87" fill="#949181"/><polygon points="47.93 54.4 44.63 52.49 47.73 50.78 51.03 52.68 47.93 54.4" fill="#b0ad9a"/><polygon points="50.56 52.94 46.58 53.61 44.63 52.49 47.73 50.78 51.03 52.68 50.56 52.94" fill="#949181"/><polygon points="30.79 54.99 32.1 54.14 43.03 60.46 43.02 62 30.79 54.99" fill="#0c2534"/><polygon points="33.58 56.18 32.3 55.44 33.16 54.99 34.44 55.73 33.58 56.18" fill="#f3f0d5"/><polygon points="35.72 57.37 34.44 56.63 35.3 56.18 36.58 56.92 35.72 57.37" fill="#f3f0d5"/><polygon points="38.05 58.68 36.77 57.94 37.63 57.49 38.91 58.23 38.05 58.68" fill="#f3f0d5"/><polygon points="40.52 60.11 39.24 59.37 40.11 58.92 41.39 59.66 40.52 60.11" fill="#f3f0d5"/><polygon points="49.32 46.26 48.75 46.01 59.24 40.23 59.8 40.48 49.32 46.26" fill="#0c2534"/><polygon points="60.98 39.54 60.54 41.1 59.23 40.51 57.92 39.92 60.98 39.54" fill="#0c2534"/><polygon points="53.5 43.78 53.83 43.37 56.3 43.69 58.27 42.6 58.84 42.85 56.46 44.16 53.5 43.78" fill="#0c2534"/><polygon points="59.08 43.18 57.61 42.52 59.19 41.65 60.66 42.31 59.08 43.18" fill="#0c2534"/><polygon points="50.82 45.11 49.77 43.68 52.14 42.37 52.7 42.63 50.73 43.71 51.61 44.9 50.82 45.11" fill="#0c2534"/><path d="M52,42.73h0a2.47,2.47,0,0,0,1.93-.13h0c.56-.31.59-.74.08-1h0a2.47,2.47,0,0,0-1.93.13h0C51.51,42.07,51.47,42.5,52,42.73Z" fill="#0c2534"/><path d="M48.24,46.57h0a2.43,2.43,0,0,0,1.93-.14h0c.56-.3.59-.74.08-1h0a2.43,2.43,0,0,0-1.93.14h0C47.76,45.91,47.73,46.34,48.24,46.57Z" fill="#0c2534"/></svg>