<svg id="Layer_1" data-name="Layer 1" xmlns="http://www.w3.org/2000/svg" xmlns:xlink="http://www.w3.org/1999/xlink" viewBox="0 0 100 100"><defs><linearGradient id="linear-gradient" x1="42.57" y1="52.32" x2="54.18" y2="52.71" gradientUnits="userSpaceOnUse"><stop offset="0.45" stop-color="#0c2534"/><stop offset="1" stop-color="#1d5a80"/></linearGradient><linearGradient id="linear-gradient-2" x1="47.05" y1="44.45" x2="63.02" y2="65.47" xlink:href="#linear-gradient"/><linearGradient id="linear-gradient-3" x1="41.52" y1="57.21" x2="57.05" y2="38.67" gradientTransform="matrix(1, 0, 0.02, 1, -6.53, -0.19)" xlink:href="#linear-gradient"/><linearGradient id="linear-gradient-4" x1="67.62" y1="27.65" x2="33.92" y2="72.9" gradientTransform="matrix(1, 0, 0.02, 1, -6.53, -0.19)" gradientUnits="userSpaceOnUse"><stop offset="0.13" stop-color="#fff"/><stop offset="1" stop-color="#145b94"/></linearGradient></defs><title>Computer Accessories Isometric Pack - Scene 10</title><path d="M56.7,55l1,1A4.15,4.15,0,0,0,56.7,55Z" fill="#1d5a80"/><path d="M59.84,66.21c-3.86,3.24-11,4.37-16,2.53-4.61-1.7-5.74-5.36-2.8-8.46l3.45-3.61a3.37,3.37,0,0,0-.79,1.61,2.49,2.49,0,0,0,.16,1.4,3.24,3.24,0,0,0,1,1.27,5.16,5.16,0,0,0,.77.52,7.83,7.83,0,0,0,.87.39,11.62,11.62,0,0,0,9.61-1.18,6.85,6.85,0,0,0,.61-.45l.2-.18A4.35,4.35,0,0,0,58,58.63a2.79,2.79,0,0,0,.25-1.42A2.93,2.93,0,0,0,57.77,56l2.71,2.54.24.22C63,60.83,62.75,63.77,59.84,66.21Z" fill="#1d5a80"/><path d="M48,47.28v0Z" fill="#0c2534"/><path d="M58.25,57.21A2.93,2.93,0,0,0,57.77,56l0,0-1-1a7,7,0,0,0-1.26-.62,11.67,11.67,0,0,0-8.87.72,7.29,7.29,0,0,0-1.36.9,5,5,0,0,0-.69.68h0a3.37,3.37,0,0,0-.79,1.61,2.49,2.49,0,0,0,.16,1.4,3.24,3.24,0,0,0,1,1.27,5.16,5.16,0,0,0,.77.52,7.83,7.83,0,0,0,.87.39,11.62,11.62,0,0,0,9.61-1.18,6.85,6.85,0,0,0,.61-.45l.2-.18A4.35,4.35,0,0,0,58,58.63,2.79,2.79,0,0,0,58.25,57.21ZM57,58.13a3.08,3.08,0,0,1-.83,1.4c-.12.12-.24.24-.37.35l-.37.28a9.65,9.65,0,0,1-8.18,1.07,4.46,4.46,0,0,1-.85-.4,3.26,3.26,0,0,1-.71-.52A2.44,2.44,0,0,1,44.92,59a2.3,2.3,0,0,1,.2-1.42,3.74,3.74,0,0,1,1-1.27A9.51,9.51,0,0,1,54.7,55a3.62,3.62,0,0,1,2.16,1.75A2.1,2.1,0,0,1,57,58.13Z" fill="#0c2534"/><path d="M57,58.13a3.08,3.08,0,0,1-.83,1.4c-.12.12-.24.24-.37.35l-.37.28a9.65,9.65,0,0,1-8.18,1.07,4.46,4.46,0,0,1-.85-.4,3.26,3.26,0,0,1-.71-.52A2.44,2.44,0,0,1,44.92,59a2.3,2.3,0,0,1,.2-1.42,3.74,3.74,0,0,1,1-1.27A9.51,9.51,0,0,1,54.7,55a3.62,3.62,0,0,1,2.16,1.75A2.1,2.1,0,0,1,57,58.13Z" fill="#1d5a80"/><path d="M54,57.85v0a1.13,1.13,0,0,1,0,.25,1.9,1.9,0,0,1-.59.86l-.18.14a4.75,4.75,0,0,1-4,.53c-.16-.06-.3-.13-.43-.19a2,2,0,0,1-.35-.26,1.24,1.24,0,0,1-.37-.64v-.41l0-10.81v-.06a1.21,1.21,0,0,1,.12-.44,1.89,1.89,0,0,1,.51-.63,4.76,4.76,0,0,1,4.22-.67,1.78,1.78,0,0,1,1.07.88,1,1,0,0,1,.06.69V57.72Z" fill="url(#linear-gradient)"/><path d="M48,58.15v.41A1,1,0,0,1,48,58.15Z" fill="#0c2534"/><path d="M53.94,47.11v5a1.4,1.4,0,0,1-.41.69,1,1,0,0,1-.18.18l-.18.14a4.75,4.75,0,0,1-4,.53,2.44,2.44,0,0,1-.43-.2,2,2,0,0,1-.35-.26,1.2,1.2,0,0,1-.37-.64.36.36,0,0,1,0-.1V47.28a1.21,1.21,0,0,1,.12-.44,1.89,1.89,0,0,1,.51-.63,4.76,4.76,0,0,1,4.22-.67,1.78,1.78,0,0,1,1.07.88A1,1,0,0,1,53.94,47.11Z" fill="url(#linear-gradient-2)"/><path d="M53.94,52.11v-.5A.85.85,0,0,1,53.94,52.11Z" fill="#0c2534"/><path d="M60.3,33.22,58.15,44l-9.69,6.15-5.79,2.52-2.41-1.6L38,49.58h0A4.23,4.23,0,0,1,37.05,47l0-1.11a9.85,9.85,0,0,1,4.87-8.74l10.65-6.2a4.14,4.14,0,0,1,4.66.34l.06,0Z" fill="url(#linear-gradient-3)"/><path d="M57.81,31.65a4.09,4.09,0,0,0-4.27-.09L42.9,37.77A9.8,9.8,0,0,0,38,46.5l0,1.11A4.21,4.21,0,0,0,39,50.2h0v0l-1-.65h0A4.29,4.29,0,0,1,37.05,47l0-1.11a9.85,9.85,0,0,1,4.87-8.74l10.65-6.2a4.14,4.14,0,0,1,4.66.34Z" fill="#0c2534"/><path d="M41.14,48.4l0,1.11a4.35,4.35,0,0,0,6.51,3.69l10.1-6A10.64,10.64,0,0,0,63,37.78l0-.72a4.22,4.22,0,0,0-6.29-3.6L46,39.66A9.86,9.86,0,0,0,41.14,48.4Z" fill="#1d5a80"/><path d="M53.4,42.44c.36,2.91-1.64,6.83-4.45,8.73-1.41.95-2.76,1.25-3.72.84-.12,0-.24,0-.3-.12a2.89,2.89,0,0,1-1.6-2.56C43,46.42,45,42.5,47.72,40.6a4.26,4.26,0,0,1,3.6-1l1.14.65A3.64,3.64,0,0,1,53.4,42.44Z" fill="#0c2534"/><path d="M52,43.37a7.53,7.53,0,0,1-3.24,6.36,3,3,0,0,1-2.71.61c-.09,0-.17,0-.22-.09a2.07,2.07,0,0,1-1.16-1.86A7.61,7.61,0,0,1,47.89,42a3.12,3.12,0,0,1,2.63-.69l.83.47A2.69,2.69,0,0,1,52,43.37Z" fill="url(#linear-gradient-4)"/><path d="M49.11,43.07a6.16,6.16,0,0,0-2.71,3.58c-.48,1.37-1.64.17,0-2.55S51,41.82,49.11,43.07Z" fill="#fff"/></svg>